<?xml version="1.0" encoding="UTF-8"?>
<svg xmlns="http://www.w3.org/2000/svg" width="1438" height="808" viewBox="0 0 1438 808" preserveAspectRatio="xMidYMid meet" data-state="playing">
  <title>Entrainment reference signal playing with live PCM telemetry</title>
  <desc>Deterministic vector snapshot of the active 100 and 104 hertz stereo signal and its fading mid-side vectorscope history.</desc>
  <rect width="1438" height="808" fill="#f6f5ef"/>
  <g fill="none" stroke="#111" stroke-width="1" stroke-opacity=".075" vector-effect="non-scaling-stroke"><line x1="41" y1="127" x2="1397" y2="127"/><line x1="41" y1="220" x2="1397" y2="220"/><line x1="41" y1="313" x2="1397" y2="313"/><line x1="41" y1="406" x2="1397" y2="406"/><line x1="41" y1="499" x2="1397" y2="499"/><line x1="41" y1="592" x2="1397" y2="592"/><line x1="41" y1="685" x2="1397" y2="685"/></g>
  <g fill="#111" fill-opacity=".58" font-family="SFMono-Regular, SF Mono, ui-monospace, monospace" font-size="10">
    <text x="41" y="130">L  LIVE  -22.9 DBFS</text>
    <text x="1397" y="130" text-anchor="end">R  LIVE  -23.0 DBFS</text>
  </g>
  <g fill="none" stroke="#111" vector-effect="non-scaling-stroke">
    <circle cx="719" cy="404" r="170" stroke-opacity=".18"/>
    <path d="M549 404H889M719 234V574" stroke-opacity=".11"/>
    <path d="M41 404 L43 406.83 L45 409.62 L47 412.32 L49 414.87 L51 417.21 L53 419.31 L55 421.12 L57 422.59 L59 423.7 L61 424.43 L63 424.74 L65 424.65 L67 424.13 L69 423.22 L71 421.91 L73 420.23 L75 418.21 L77 415.9 L79 413.34 L81 410.57 L83 407.65 L85 404.64 L87 401.6 L89 398.59 L91 395.67 L93 392.9 L95 390.34 L97 388.04 L99 386.04 L101 384.39 L103 383.13 L105 382.27 L107 381.85 L109 381.87 L111 382.34 L113 383.24 L115 384.56 L117 386.28 L119 388.36 L121 390.77 L123 393.46 L125 396.37 L127 399.45 L129 402.64 L131 405.86 L133 409.07 L135 412.19 L137 415.16 L139 417.93 L141 420.42 L143 422.6 L145 424.41 L147 425.83 L149 426.81 L151 427.34 L153 427.4 L155 426.99 L157 426.12 L159 424.81 L161 423.07 L163 420.94 L165 418.47 L167 415.69 L169 412.67 L171 409.47 L173 406.14 L175 402.76 L177 399.4 L179 396.11 L181 392.97 L183 390.04 L185 387.38 L187 385.05 L189 383.09 L191 381.54 L193 380.44 L195 379.8 L197 379.65 L199 379.99 L201 380.81 L203 382.09 L205 383.82 L207 385.96 L209 388.46 L211 391.28 L213 394.36 L215 397.64 L217 401.06 L219 404.54 L221 408.01 L223 411.42 L225 414.68 L227 417.73 L229 420.51 L231 422.97 L233 425.05 L235 426.71 L237 427.92 L239 428.65 L241 428.89 L243 428.63 L245 427.88 L247 426.65 L249 424.96 L251 422.86 L253 420.37 L255 417.56 L257 414.47 L259 411.17 L261 407.72 L263 404.2 L265 400.68 L267 397.22 L269 393.89 L271 390.77 L273 387.91 L275 385.38 L277 383.21 L279 381.47 L281 380.17 L283 379.35 L285 379.03 L287 379.2 L289 379.87 L291 381.02 L293 382.63 L295 384.67 L297 387.09 L299 389.85 L301 392.89 L303 396.15 L305 399.56 L307 403.05 L309 406.56 L311 410.02 L313 413.34 L315 416.48 L317 419.36 L319 421.93 L321 424.14 L323 425.94 L325 427.3 L327 428.19 L329 428.59 L331 428.51 L333 427.93 L335 426.88 L337 425.37 L339 423.43 L341 421.12 L343 418.47 L345 415.53 L347 412.37 L349 409.06 L351 405.65 L353 402.22 L355 398.83 L357 395.56 L359 392.47 L361 389.62 L363 387.06 L365 384.85 L367 383.03 L369 381.63 L371 380.69 L373 380.22 L375 380.22 L377 380.69 L379 381.64 L381 383.02 L383 384.82 L385 386.99 L387 389.49 L389 392.28 L391 395.28 L393 398.45 L395 401.72 L397 405.01 L399 408.28 L401 411.44 L403 414.44 L405 417.21 L407 419.72 L409 421.89 L411 423.7 L413 425.1 L415 426.08 L417 426.62 L419 426.69 L421 426.32 L423 425.5 L425 424.26 L427 422.62 L429 420.61 L431 418.29 L433 415.69 L435 412.88 L437 409.9 L439 406.82 L441 403.7 L443 400.61 L445 397.6 L447 394.73 L449 392.07 L451 389.66 L453 387.55 L455 385.78 L457 384.38 L459 383.39 L461 382.81 L463 382.66 L465 382.93 L467 383.62 L469 384.72 L471 386.19 L473 388.01 L475 390.13 L477 392.52 L479 395.12 L481 397.89 L483 400.75 L485 403.66 L487 406.56 L489 409.39 L491 412.1 L493 414.62 L495 416.92 L497 418.94 L499 420.65 L501 422.02 L503 423.02" stroke-opacity=".76" stroke-width="1.15"/>
    <path d="M935 388.59 L937 386.83 L939 385.43 L941 384.42 L943 383.84 L945 383.68 L947 383.97 L949 384.69 L951 385.83 L953 387.38 L955 389.3 L957 391.55 L959 394.08 L961 396.85 L963 399.79 L965 402.83 L967 405.93 L969 409 L971 411.98 L973 414.81 L975 417.42 L977 419.76 L979 421.76 L981 423.4 L983 424.62 L985 425.41 L987 425.73 L989 425.59 L991 424.97 L993 423.9 L995 422.39 L997 420.47 L999 418.18 L1001 415.58 L1003 412.7 L1005 409.63 L1007 406.41 L1009 403.12 L1011 399.84 L1013 396.63 L1015 393.56 L1017 390.71 L1019 388.12 L1021 385.87 L1023 384 L1025 382.55 L1027 381.57 L1029 381.06 L1031 381.05 L1033 381.54 L1035 382.51 L1037 383.96 L1039 385.85 L1041 388.14 L1043 390.78 L1045 393.72 L1047 396.9 L1049 400.24 L1051 403.68 L1053 407.14 L1055 410.55 L1057 413.83 L1059 416.91 L1061 419.71 L1063 422.19 L1065 424.29 L1067 425.95 L1069 427.14 L1071 427.84 L1073 428.02 L1075 427.68 L1077 426.83 L1079 425.48 L1081 423.66 L1083 421.4 L1085 418.77 L1087 415.8 L1089 412.58 L1091 409.15 L1093 405.61 L1095 402.02 L1097 398.47 L1099 395.02 L1101 391.77 L1103 388.77 L1105 386.09 L1107 383.79 L1109 381.93 L1111 380.54 L1113 379.66 L1115 379.3 L1117 379.48 L1119 380.19 L1121 381.41 L1123 383.13 L1125 385.3 L1127 387.88 L1129 390.81 L1131 394.03 L1133 397.47 L1135 401.06 L1137 404.71 L1139 408.35 L1141 411.91 L1143 415.29 L1145 418.43 L1147 421.27 L1149 423.73 L1151 425.76 L1153 427.33 L1155 428.39 L1157 428.93 L1159 428.92 L1161 428.38 L1163 427.31 L1165 425.73 L1167 423.69 L1169 421.21 L1171 418.37 L1173 415.22 L1175 411.82 L1177 408.26 L1179 404.6 L1181 400.93 L1183 397.34 L1185 393.89 L1187 390.66 L1189 387.72 L1191 385.13 L1193 382.96 L1195 381.24 L1197 380.02 L1199 379.32 L1201 379.15 L1203 379.52 L1205 380.41 L1207 381.82 L1209 383.71 L1211 386.03 L1213 388.73 L1215 391.76 L1217 395.05 L1219 398.53 L1221 402.11 L1223 405.73 L1225 409.31 L1227 412.77 L1229 416.02 L1231 419.01 L1233 421.67 L1235 423.94 L1237 425.77 L1239 427.13 L1241 427.99 L1243 428.32 L1245 428.13 L1247 427.41 L1249 426.2 L1251 424.51 L1253 422.37 L1255 419.85 L1257 417 L1259 413.87 L1261 410.54 L1263 407.08 L1265 403.57 L1267 400.08 L1269 396.68 L1271 393.46 L1273 390.47 L1275 387.79 L1277 385.47 L1279 383.56 L1281 382.1 L1283 381.11 L1285 380.63 L1287 380.65 L1289 381.17 L1291 382.19 L1293 383.67 L1295 385.58 L1297 387.89 L1299 390.53 L1301 393.45 L1303 396.58 L1305 399.86 L1307 403.21 L1309 406.56 L1311 409.84 L1313 412.98 L1315 415.91 L1317 418.57 L1319 420.9 L1321 422.85 L1323 424.38 L1325 425.47 L1327 426.09 L1329 426.23 L1331 425.89 L1333 425.08 L1335 423.81 L1337 422.13 L1339 420.07 L1341 417.67 L1343 414.99 L1345 412.09 L1347 409.03 L1349 405.88 L1351 402.71 L1353 399.59 L1355 396.58 L1357 393.74 L1359 391.15 L1361 388.85 L1363 386.89 L1365 385.31 L1367 384.15 L1369 383.42 L1371 383.14 L1373 383.31 L1375 383.92 L1377 384.97 L1379 386.41 L1381 388.23 L1383 390.37 L1385 392.8 L1387 395.45 L1389 398.27 L1391 401.19 L1393 404.15 L1395 407.09 L1397 409.94" stroke-opacity=".76" stroke-width="1.15"/>
    <g stroke-linejoin="round" stroke-linecap="round" stroke-width="1.05"><path d="M661.16 346.16 L666.78 324.61 L674.29 305.86 L683.48 290.54 L694.03 279.16 L705.61 272.11 L717.83 269.61 L730.27 271.72 L742.5 278.37 L754.09 289.3 L764.63 304.12 L773.74 322.31 L781.07 343.24 L786.36 366.17 L789.38 390.31 L790 414.82 L788.17 438.87 L783.91 461.63 L777.35 482.32 L768.68 500.24 L758.17 514.79 L746.16 525.48 L733.06 531.96 L719.31 534.02 L705.37 531.62 L691.73 524.85 L678.86 513.97 L667.22 499.36 L657.24 481.54 L649.27 461.15 L643.62 438.88 L640.51 415.52 L640.09 391.86 L642.39 368.73 L647.37 346.92 L654.89 327.16 L664.72 310.13 L676.53 296.39 L689.95 286.41 L704.53 280.51 L719.76 278.87 L735.14 281.53 L750.13 288.37 L764.21 299.15 L776.87 313.46 L787.67 330.81 L796.21 350.59 L802.16 372.09 L805.3 394.58 L805.49 417.27 L802.69 439.39 L796.96 460.19 L788.49 478.95 L777.52 495.04 L764.42 507.93 L749.62 517.18 L733.62 522.5 L716.96 523.74 L700.2 520.86 L683.94 513.99 L668.73 503.39 L655.11 489.45 L643.58 472.65 L634.54 453.6 L628.34 432.95 L625.21 411.44 L625.3 389.79 L628.63 368.76 L635.1 349.06 L644.54 331.36 L656.63 316.25 L670.98 304.25 L687.11 295.73 L704.48 290.98 L722.51 290.13 L740.57 293.19 L758.03 300.03 L774.3 310.38 L788.79 323.88 L800.99 340.04 L810.46 358.28 L816.84 377.97 L819.91 398.43 L819.51 418.94 L815.64 438.8 L808.4 457.34 L798.02 473.92 L784.83 488 L769.27 499.1 L751.85 506.87 L733.17 511.06 L713.85 511.55 L694.57 508.35 L675.98 501.61 L658.75 491.56 L643.46 478.59 L630.67 463.16 L620.84 445.81 L614.32 427.16 L611.37 407.86 L612.11 388.56 L616.54 369.94 L624.54 352.63 L635.85 337.21 L650.11 324.2 L666.84 314.02 L685.49 307 L705.42 303.36 L725.95 303.19 L746.37 306.48 L765.99 313.08 L784.11 322.75 L800.11 335.11 L813.41 349.74 L823.54 366.1 L830.13 383.63 L832.93 401.7 L831.82 419.7 L826.81 437.01 L818.06 453.04 L805.83 467.26 L790.54 479.18 L772.68 488.42 L752.87 494.69 L731.78 497.81 L710.12 497.68 L688.64 494.34 L668.08 487.94 L649.15 478.73 L632.53 467.04 L618.79 453.3 L608.43 438.01 L601.82 421.69 L599.22 404.92 L600.73 388.28 L606.32 372.35 L615.82 357.65 L628.94 344.68 L645.23 333.87 L664.14 325.57 L685.05 320.03 L707.23 317.43 L729.94 317.82 L752.38 321.15 L773.79 327.29 L793.42 335.98 L810.59 346.92 L824.69 359.69 L835.21 373.84 L841.78 388.87 L844.15 404.26 L842.23 419.47 L836.05 433.99 L825.8 447.31 L811.84 459.01 L794.6 468.69 L774.68 476.04 L752.76 480.85 L729.57 482.97 L705.91 482.36 L682.59 479.08 L660.43 473.27 L640.18 465.16 L622.56 455.05 L608.19 443.32 L597.57 430.38 L591.08 416.7 L588.98 402.76 L591.34 389.04 L598.11 376 L609.06 364.08 L623.85 353.69 L641.98 345.15 L662.83 338.73 L685.7 334.63 L709.81 332.97 L734.32 333.75 L758.41 336.93 L781.23 342.35 L801.99 349.82 L819.98 359.03 L834.56 369.65 L845.21 381.3 L851.56 393.56 L853.37 405.99 L850.56 418.18 L843.21 429.71 L831.56 440.18 L815.99 449.26 L797.03 456.66 L775.32 462.14 L751.6 465.55 L726.67 466.8 L701.39 465.88 L676.64 462.86 L653.26 457.88 L632.07 451.13 L613.8 442.88 L599.1 433.43 L588.47 423.14 L582.31 412.36 L580.82 401.48 L584.09 390.87 L592.01 380.89 L604.33 371.88 L620.62 364.13 L640.35 357.87 L662.85 353.31 L687.34 350.57 L712.99 349.7 L738.92 350.7 L764.24 353.52 L788.07 358 L809.59 363.97 L828.05 371.2 L842.81 379.4 L853.35 388.29 L859.29 397.53 L860.43 406.81 L856.7 415.8 L848.22 424.2 L835.28 431.74 L818.3 438.16 L797.87 443.28 L774.67 446.94 L749.51 449.05 L723.23 449.58 L696.75 448.53 L670.98 445.98 L646.79 442.05 L625.04 436.92 L606.47 430.78 L591.73 423.87 L581.34 416.45 L575.66 408.78 L574.9 401.15 L579.09 393.8 L588.1 387 L601.63 380.95 L619.23 375.85 L640.29 371.86 L664.1 369.07 L689.84 367.56 L716.63 367.34 L743.56 368.38 L769.68 370.61 L794.11 373.93 L816 378.17 L834.6 383.17 L849.25 388.73 L859.44 394.64 L864.82 400.69 L865.2 406.65 L860.55 412.32 L851.03 417.52 L836.95 422.08 L818.79 425.86 L797.18 428.75 L772.85 430.69 L746.63 431.63" opacity="0.03"/><path d="M768.23 499.14 L757.84 513.56 L745.97 524.17 L733.01 530.61 L719.4 532.68 L705.6 530.33 L692.1 523.66 L679.35 512.92 L667.83 498.48 L657.93 480.87 L650.03 460.7 L644.43 438.67 L641.33 415.55 L640.9 392.14 L643.16 369.25 L648.07 347.64 L655.49 328.07 L665.2 311.2 L676.89 297.58 L690.16 287.68 L704.58 281.81 L719.66 280.16 L734.88 282.76 L749.72 289.51 L763.66 300.15 L776.2 314.29 L786.9 331.45 L795.36 351 L801.27 372.27 L804.4 394.52 L804.61 416.99 L801.85 438.89 L796.21 459.48 L787.83 478.06 L777 494.01 L764.05 506.78 L749.41 515.96 L733.58 521.26 L717.09 522.51 L700.51 519.69 L684.4 512.92 L669.34 502.45 L655.86 488.67 L644.42 472.06 L635.46 453.22 L629.31 432.79 L626.19 411.5 L626.26 390.08 L629.53 369.26 L635.92 349.75 L645.23 332.22 L657.18 317.25 L671.37 305.34 L687.33 296.89 L704.52 292.17 L722.35 291.3 L740.23 294.3 L757.52 301.04 L773.62 311.27 L787.98 324.61 L800.07 340.58 L809.46 358.62 L815.8 378.11 L818.86 398.35 L818.49 418.65 L814.68 438.31 L807.54 456.67 L797.28 473.1 L784.25 487.05 L768.86 498.06 L751.63 505.77 L733.15 509.94 L714.03 510.45 L694.94 507.31 L676.55 500.65 L659.48 490.73 L644.33 477.92 L631.66 462.66 L621.91 445.5 L615.43 427.05 L612.49 407.94 L613.19 388.85 L617.56 370.41 L625.45 353.27 L636.63 337.99 L650.72 325.1 L667.27 315 L685.71 308.03 L705.42 304.41 L725.74 304.22 L745.96 307.45 L765.38 313.97 L783.33 323.51 L799.18 335.73 L812.36 350.2 L822.41 366.38 L828.96 383.72 L831.75 401.6 L830.68 419.42 L825.75 436.56 L817.1 452.44 L805.03 466.52 L789.91 478.33 L772.26 487.5 L752.66 493.73 L731.79 496.83 L710.35 496.72 L689.09 493.44 L668.73 487.13 L649.99 478.03 L633.52 466.47 L619.91 452.89 L609.63 437.76 L603.06 421.62 L600.46 405.02 L601.92 388.55 L607.43 372.77 L616.81 358.22 L629.77 345.37 L645.87 334.65 L664.57 326.42 L685.25 320.93 L707.2 318.33 L729.68 318.69 L751.89 321.97 L773.09 328.03 L792.54 336.62 L809.54 347.43 L823.51 360.06 L833.95 374.06 L840.48 388.93 L842.86 404.16 L840.98 419.21 L834.89 433.58 L824.78 446.78 L810.98 458.37 L793.95 467.96 L774.25 475.26 L752.56 480.03 L729.61 482.15 L706.2 481.57 L683.12 478.34 L661.17 472.6 L641.12 464.59 L623.66 454.59 L609.41 442.99 L598.88 430.2 L592.43 416.67 L590.32 402.87 L592.62 389.28 L599.29 376.37 L610.11 364.57 L624.73 354.27 L642.65 345.8 L663.27 339.44 L685.89 335.37 L709.74 333.7 L734 334.46 L757.84 337.59 L780.44 342.95 L801.01 350.32 L818.83 359.43 L833.28 369.93 L843.86 381.45 L850.17 393.58 L851.99 405.89 L849.24 417.96 L841.99 429.37 L830.49 439.75 L815.11 448.74 L796.36 456.07 L774.89 461.51 L751.42 464.9 L726.76 466.15 L701.74 465.26 L677.24 462.28 L654.09 457.36 L633.1 450.69 L615 442.54 L600.42 433.19 L589.87 423.01 L583.74 412.35 L582.24 401.58 L585.45 391.07 L593.25 381.19 L605.41 372.27 L621.52 364.58 L641.03 358.39 L663.27 353.86 L687.5 351.13 L712.88 350.26 L738.55 351.24 L763.61 354.01 L787.21 358.44 L808.52 364.34 L826.82 371.48 L841.45 379.6 L851.91 388.39 L857.82 397.54 L858.98 406.72 L855.32 415.62 L846.96 423.94 L834.18 431.4 L817.4 437.77 L797.2 442.84 L774.26 446.48 L749.36 448.58 L723.36 449.11 L697.16 448.08 L671.64 445.57 L647.69 441.69 L626.14 436.62 L607.74 430.54 L593.13 423.71 L582.81 416.37 L577.16 408.78 L576.37 401.22 L580.49 393.95 L589.38 387.21 L602.74 381.22 L620.13 376.17 L640.95 372.21 L664.5 369.45 L689.97 367.94 L716.48 367.71 L743.13 368.74 L768.99 370.94 L793.19 374.21 L814.87 378.41 L833.29 383.35 L847.82 388.85 L857.94 394.7 L863.3 400.68 L863.71 406.58 L859.14 412.2 L849.74 417.35 L835.84 421.87 L817.9 425.61 L796.53 428.48 L772.46 430.4 L746.53 431.35 L719.61 431.31 L692.63 430.34 L666.52 428.5 L642.19 425.89 L620.46 422.63 L602.09 418.86 L587.72 414.74 L577.85 410.42 L572.81 406.08 L572.8 401.86 L577.81 397.91 L587.68 394.35 L602.08 391.31 L620.51 388.86 L642.34 387.06 L666.83 385.95 L693.14 385.52 L720.36 385.77 L747.55 386.64" opacity="0.03"/><path d="M690.32 288.74 L704.6 282.89 L719.55 281.23 L734.64 283.78 L749.36 290.44 L763.18 300.96 L775.63 314.97 L786.25 331.95 L794.65 351.32 L800.53 372.4 L803.65 394.46 L803.87 416.73 L801.16 438.44 L795.59 458.87 L787.3 477.3 L776.57 493.13 L763.75 505.82 L749.25 514.95 L733.56 520.22 L717.22 521.49 L700.78 518.72 L684.81 512.03 L669.87 501.68 L656.48 488.04 L645.14 471.59 L636.24 452.92 L630.11 432.68 L627.01 411.58 L627.05 390.34 L630.27 369.69 L636.58 350.34 L645.8 332.95 L657.63 318.09 L671.68 306.27 L687.49 297.86 L704.53 293.15 L722.21 292.27 L739.93 295.22 L757.07 301.88 L773.05 311.99 L787.29 325.2 L799.3 341.02 L808.62 358.89 L814.93 378.2 L817.98 398.26 L817.64 418.39 L813.89 437.89 L806.83 456.1 L796.68 472.4 L783.78 486.25 L768.54 497.18 L751.47 504.85 L733.15 509.01 L714.2 509.54 L695.28 506.45 L677.03 499.87 L660.1 490.06 L645.07 477.37 L632.49 462.26 L622.8 445.26 L616.36 426.97 L613.41 408.04 L614.09 389.1 L618.39 370.82 L626.2 353.82 L637.25 338.66 L651.21 325.85 L667.6 315.83 L685.87 308.9 L705.41 305.28 L725.55 305.07 L745.59 308.26 L764.85 314.69 L782.66 324.14 L798.39 336.24 L811.48 350.56 L821.46 366.59 L827.97 383.78 L830.77 401.51 L829.73 419.17 L824.87 436.17 L816.32 451.92 L804.37 465.89 L789.4 477.62 L771.92 486.73 L752.5 492.92 L731.82 496.01 L710.57 495.93 L689.48 492.7 L669.3 486.46 L650.71 477.45 L634.36 466.02 L620.84 452.56 L610.63 437.57 L604.1 421.57 L601.49 405.12 L602.91 388.8 L608.35 373.14 L617.62 358.7 L630.44 345.95 L646.39 335.32 L664.91 327.14 L685.4 321.67 L707.16 319.08 L729.43 319.42 L751.47 322.65 L772.49 328.64 L791.78 337.14 L808.66 347.84 L822.53 360.35 L832.9 374.22 L839.4 388.96 L841.79 404.06 L839.95 418.98 L833.95 433.24 L823.95 446.33 L810.29 457.83 L793.42 467.35 L773.91 474.6 L752.42 479.35 L729.68 481.47 L706.46 480.91 L683.58 477.72 L661.81 472.05 L641.92 464.12 L624.59 454.23 L610.44 442.74 L599.97 430.06 L593.55 416.65 L591.43 402.97 L593.69 389.5 L600.27 376.69 L610.97 364.98 L625.43 354.76 L643.18 346.36 L663.6 340.03 L686.02 335.98 L709.66 334.31 L733.71 335.05 L757.35 338.14 L779.77 343.43 L800.17 350.73 L817.86 359.75 L832.21 370.15 L842.72 381.57 L849.01 393.59 L850.84 405.79 L848.14 417.76 L840.99 429.08 L829.61 439.37 L814.39 448.3 L795.83 455.58 L774.56 460.99 L751.3 464.36 L726.85 465.61 L702.05 464.74 L677.76 461.8 L654.8 456.94 L633.97 450.34 L616.01 442.26 L601.53 433.01 L591.05 422.91 L584.94 412.34 L583.42 401.67 L586.56 391.25 L594.28 381.45 L606.3 372.6 L622.24 364.97 L641.56 358.82 L663.6 354.32 L687.61 351.6 L712.77 350.72 L738.21 351.69 L763.06 354.42 L786.47 358.8 L807.62 364.64 L825.78 371.71 L840.31 379.76 L850.71 388.47 L856.6 397.53 L857.77 406.64 L854.18 415.46 L845.92 423.72 L833.28 431.12 L816.67 437.44 L796.67 442.48 L773.94 446.09 L749.27 448.18 L723.5 448.72 L697.52 447.71 L672.21 445.23 L648.46 441.4 L627.08 436.37 L608.82 430.36 L594.3 423.59 L584.04 416.31 L578.41 408.79 L577.59 401.3 L581.64 394.09 L590.42 387.4 L603.65 381.46 L620.86 376.44 L641.48 372.51 L664.81 369.76 L690.05 368.26 L716.33 368.03 L742.74 369.03 L768.39 371.21 L792.39 374.44 L813.91 378.6 L832.2 383.49 L846.62 388.95 L856.69 394.74 L862.03 400.67 L862.47 406.52 L857.97 412.1 L848.69 417.2 L834.93 421.68 L817.17 425.4 L796.01 428.25 L772.17 430.16 L746.46 431.11 L719.78 431.08 L693.03 430.12 L667.14 428.3 L643 425.72 L621.44 422.49 L603.21 418.76 L588.94 414.67 L579.12 410.4 L574.1 406.09 L574.05 401.9 L578.98 397.98 L588.74 394.46 L602.98 391.44 L621.23 389 L642.85 387.22 L667.11 386.11 L693.18 385.68 L720.16 385.92 L747.13 386.78 L773.15 388.19 L797.33 390.08 L818.84 392.33 L836.94 394.86 L851 397.54 L860.53 400.26 L865.2 402.92 L864.85 405.42 L859.49 407.68 L849.3 409.62 L834.62 411.2 L815.96 412.37 L793.96 413.13 L769.37 413.47 L743.04 413.41 L715.87 413 L688.79 412.29 L662.75 411.33 L638.62 410.2" opacity="0.04"/><path d="M717.33 520.93 L700.97 518.2 L685.07 511.57 L670.2 501.29 L656.86 487.74 L645.56 471.39 L636.68 452.82 L630.57 432.69 L627.45 411.69 L627.48 390.54 L630.66 369.99 L636.92 350.72 L646.08 333.39 L657.84 318.59 L671.81 306.8 L687.53 298.41 L704.48 293.7 L722.07 292.79 L739.71 295.7 L756.78 302.31 L772.69 312.35 L786.88 325.47 L798.84 341.2 L808.14 358.98 L814.45 378.19 L817.5 398.15 L817.18 418.19 L813.47 437.6 L806.47 455.74 L796.39 471.97 L783.56 485.77 L768.41 496.67 L751.43 504.33 L733.2 508.49 L714.35 509.04 L695.51 505.99 L677.35 499.47 L660.49 489.72 L645.52 477.11 L632.98 462.09 L623.31 445.18 L616.88 426.99 L613.93 408.14 L614.58 389.3 L618.83 371.1 L626.58 354.16 L637.56 339.06 L651.43 326.3 L667.73 316.3 L685.9 309.39 L705.34 305.76 L725.38 305.54 L745.34 308.68 L764.51 315.07 L782.24 324.44 L797.91 336.47 L810.96 350.71 L820.92 366.66 L827.42 383.76 L830.23 401.4 L829.22 418.98 L824.41 435.91 L815.93 451.59 L804.06 465.51 L789.18 477.2 L771.79 486.28 L752.48 492.47 L731.9 495.57 L710.75 495.5 L689.76 492.31 L669.66 486.12 L651.15 477.17 L634.86 465.8 L621.39 452.43 L611.2 437.51 L604.67 421.6 L602.05 405.23 L603.44 388.97 L608.82 373.39 L618.03 359.01 L630.77 346.31 L646.62 335.71 L665.04 327.55 L685.42 322.09 L707.07 319.49 L729.24 319.81 L751.17 323.01 L772.1 328.95 L791.31 337.39 L808.13 348.03 L821.95 360.47 L832.3 374.27 L838.8 388.93 L841.2 403.95 L839.4 418.82 L833.45 433.01 L823.53 446.04 L809.95 457.5 L793.19 466.99 L773.78 474.22 L752.41 478.97 L729.78 481.09 L706.68 480.55 L683.9 477.4 L662.23 471.77 L642.41 463.9 L625.15 454.06 L611.04 442.63 L600.6 430.02 L594.18 416.68 L592.04 403.06 L594.26 389.65 L600.78 376.9 L611.4 365.24 L625.77 355.06 L643.41 346.68 L663.73 340.37 L686.02 336.33 L709.54 334.65 L733.48 335.37 L757.02 338.42 L779.33 343.68 L799.66 350.93 L817.28 359.89 L831.59 370.24 L842.07 381.6 L848.36 393.56 L850.22 405.71 L847.56 417.62 L840.47 428.89 L829.17 439.14 L814.05 448.04 L795.59 455.29 L774.44 460.68 L751.31 464.05 L726.98 465.32 L702.3 464.46 L678.11 461.55 L655.25 456.72 L634.51 450.17 L616.61 442.14 L602.17 432.93 L591.71 422.89 L585.6 412.38 L584.06 401.75 L587.16 391.38 L594.81 381.62 L606.75 372.8 L622.59 365.2 L641.79 359.07 L663.71 354.58 L687.59 351.86 L712.63 350.98 L737.95 351.92 L762.69 354.63 L786 358.98 L807.06 364.79 L825.16 371.82 L839.65 379.81 L850.02 388.48 L855.92 397.5 L857.12 406.56 L853.57 415.35 L845.38 423.57 L832.83 430.95 L816.33 437.24 L796.44 442.27 L773.84 445.87 L749.29 447.97 L723.65 448.51 L697.79 447.51 L672.6 445.05 L648.95 441.25 L627.65 436.25 L609.45 430.27 L594.98 423.54 L584.74 416.3 L579.1 408.82 L578.26 401.36 L582.26 394.18 L590.96 387.52 L604.09 381.6 L621.2 376.61 L641.7 372.68 L664.91 369.94 L690.01 368.44 L716.16 368.19 L742.46 369.19 L767.99 371.35 L791.89 374.56 L813.32 378.69 L831.55 383.56 L845.93 388.98 L855.98 394.75 L861.33 400.65 L861.8 406.47 L857.35 412.02 L848.15 417.11 L834.49 421.57 L816.83 425.28 L795.79 428.12 L772.08 430.03 L746.51 430.97 L719.95 430.95 L693.33 430.01 L667.56 428.2 L643.52 425.64 L622.04 422.43 L603.87 418.71 L589.64 414.65 L579.83 410.4 L574.8 406.11 L574.72 401.94 L579.6 398.04 L589.28 394.53 L603.42 391.52 L621.56 389.09 L643.06 387.31 L667.19 386.2 L693.13 385.77 L719.98 386 L746.82 386.86 L772.73 388.26 L796.81 390.13 L818.24 392.37 L836.27 394.88 L850.29 397.55 L859.81 400.26 L864.49 402.91 L864.18 405.4 L858.87 407.65 L848.76 409.59 L834.18 411.16 L815.64 412.33 L793.76 413.08 L769.3 413.42 L743.1 413.37 L716.06 412.97 L689.11 412.26 L663.18 411.3 L639.15 410.18 L617.86 408.94 L600.04 407.68 L586.3 406.44 L577.11 405.3 L572.8 404.31 L573.51 403.5 L579.22 402.91 L589.73 402.54 L604.69 402.39 L623.57 402.45 L645.74 402.7 L670.42 403.08 L696.78 403.57 L723.9 404.1 L750.85 404.61 L776.7 405.07 L800.57 405.41 L821.64 405.59 L839.18 405.58" opacity="0.06"/><path d="M756.64 302.33 L772.55 312.35 L786.74 325.44 L798.71 341.14 L808.02 358.9 L814.34 378.08 L817.41 398.03 L817.12 418.04 L813.43 437.45 L806.46 455.58 L796.41 471.82 L783.61 485.62 L768.48 496.54 L751.52 504.21 L733.32 508.39 L714.48 508.97 L695.66 505.94 L677.5 499.45 L660.64 489.73 L645.67 477.15 L633.12 462.15 L623.44 445.27 L616.99 427.09 L614.02 408.27 L614.64 389.43 L618.87 371.24 L626.59 354.31 L637.54 339.21 L651.38 326.44 L667.65 316.43 L685.8 309.5 L705.22 305.86 L725.24 305.6 L745.18 308.73 L764.35 315.08 L782.08 324.44 L797.75 336.44 L810.81 350.65 L820.78 366.58 L827.31 383.66 L830.14 401.28 L829.16 418.86 L824.37 435.77 L815.92 451.45 L804.08 465.37 L789.23 477.07 L771.87 486.16 L752.58 492.36 L732.03 495.48 L710.9 495.44 L689.92 492.27 L669.83 486.1 L651.32 477.18 L635.03 465.84 L621.55 452.48 L611.34 437.59 L604.8 421.69 L602.15 405.34 L603.51 389.09 L608.86 373.52 L618.04 359.14 L630.75 346.43 L646.56 335.82 L664.96 327.66 L685.31 322.18 L706.93 319.57 L729.08 319.87 L751 323.04 L771.92 328.96 L791.13 337.38 L807.95 348 L821.79 360.42 L832.16 374.19 L838.67 388.84 L841.1 403.85 L839.33 418.71 L833.41 432.89 L823.52 445.93 L809.98 457.39 L793.25 466.89 L773.88 474.13 L752.53 478.89 L729.92 481.03 L706.84 480.51 L684.07 477.37 L662.41 471.77 L642.6 463.91 L625.33 454.09 L611.21 442.68 L600.75 430.09 L594.31 416.76 L592.14 403.15 L594.33 389.75 L600.82 377.01 L611.4 365.35 L625.74 355.16 L643.35 346.77 L663.63 340.46 L685.9 336.4 L709.39 334.71 L733.31 335.41 L756.83 338.45 L779.14 343.69 L799.47 350.92 L817.1 359.87 L831.42 370.2 L841.92 381.54 L848.23 393.49 L850.11 405.62 L847.49 417.53 L840.44 428.79 L829.18 439.05 L814.08 447.95 L795.66 455.21 L774.54 460.61 L751.44 463.99 L727.14 465.27 L702.48 464.43 L678.3 461.53 L655.45 456.72 L634.7 450.18 L616.8 442.16 L602.35 432.97 L591.87 422.95 L585.73 412.44 L584.16 401.82 L587.23 391.46 L594.84 381.7 L606.74 372.88 L622.55 365.28 L641.72 359.14 L663.6 354.64 L687.46 351.91 L712.46 351.02 L737.77 351.95 L762.5 354.65 L785.8 358.98 L806.86 364.77 L824.96 371.79 L839.47 379.78 L849.86 388.43 L855.79 397.45 L857.02 406.5 L853.5 415.29 L845.35 423.5 L832.84 430.88 L816.37 437.18 L796.52 442.21 L773.95 445.82 L749.44 447.92 L723.82 448.47 L697.98 447.49 L672.8 445.04 L649.15 441.25 L627.86 436.26 L609.65 430.3 L595.16 423.57 L584.9 416.34 L579.23 408.87 L578.36 401.41 L582.32 394.23 L590.99 387.58 L604.08 381.66 L621.15 376.66 L641.62 372.73 L664.79 369.98 L689.86 368.47 L715.99 368.22 L742.26 369.21 L767.79 371.35 L791.68 374.56 L813.11 378.68 L831.35 383.54 L845.75 388.95 L855.82 394.71 L861.2 400.61 L861.7 406.43 L857.29 411.98 L848.12 417.07 L834.5 421.53 L816.89 425.24 L795.88 428.08 L772.2 430 L746.66 430.95 L720.13 430.94 L693.53 430 L667.77 428.2 L643.73 425.64 L622.25 422.43 L604.07 418.73 L589.82 414.67 L580 410.42 L574.94 406.13 L574.82 401.97 L579.67 398.07 L589.3 394.56 L603.41 391.54 L621.5 389.12 L642.97 387.33 L667.07 386.22 L692.97 385.79 L719.8 386.02 L746.62 386.86 L772.51 388.26 L796.59 390.13 L818.02 392.37 L836.07 394.87 L850.11 397.54 L859.64 400.24 L864.36 402.89 L864.08 405.38 L858.81 407.63 L848.74 409.57 L834.2 411.14 L815.69 412.31 L793.85 413.07 L769.43 413.41 L743.26 413.36 L716.25 412.96 L689.32 412.26 L663.39 411.31 L639.37 410.18 L618.07 408.95 L600.24 407.68 L586.48 406.45 L577.27 405.31 L572.93 404.32 L573.6 403.51 L579.28 402.91 L589.75 402.54 L604.67 402.39 L623.51 402.45 L645.64 402.7 L670.29 403.08 L696.62 403.56 L723.71 404.09 L750.64 404.61 L776.49 405.07 L800.36 405.41 L821.43 405.59 L838.98 405.58 L852.41 405.36 L861.25 404.91 L865.2 404.23 L864.13 403.36 L858.07 402.31 L847.24 401.13 L832.01 399.88 L812.9 398.62 L790.57 397.41 L765.79 396.34 L739.42 395.47 L712.35 394.86 L685.52 394.58 L659.86 394.66 L636.24 395.15 L615.48 396.05 L598.28 397.36 L585.24 399.06 L576.81 401.11" opacity="0.07"/><path d="M645.76 477.24 L633.19 462.26 L623.49 445.39 L617.02 427.22 L614.02 408.39 L614.62 389.56 L618.83 371.36 L626.52 354.41 L637.45 339.3 L651.28 326.51 L667.53 316.48 L685.67 309.53 L705.09 305.86 L725.11 305.59 L745.05 308.69 L764.23 315.03 L781.97 324.36 L797.66 336.35 L810.74 350.55 L820.73 366.47 L827.28 383.54 L830.14 401.17 L829.18 418.74 L824.42 435.66 L815.99 451.36 L804.17 465.29 L789.34 477.01 L772 486.12 L752.72 492.34 L732.17 495.48 L711.04 495.46 L690.06 492.31 L669.96 486.16 L651.43 477.25 L635.13 465.92 L621.62 452.58 L611.39 437.7 L604.82 421.8 L602.14 405.45 L603.48 389.2 L608.81 373.62 L617.96 359.22 L630.64 346.51 L646.44 335.88 L664.82 327.7 L685.17 322.2 L706.78 319.57 L728.93 319.85 L750.86 323.01 L771.79 328.91 L791.02 337.31 L807.85 347.92 L821.72 360.32 L832.11 374.1 L838.65 388.74 L841.11 403.75 L839.37 418.61 L833.47 432.8 L823.61 445.85 L810.09 457.32 L793.37 466.84 L774.02 474.09 L752.68 478.87 L730.08 481.03 L706.99 480.52 L684.22 477.41 L662.55 471.82 L642.72 463.97 L625.43 454.17 L611.29 442.77 L600.8 430.18 L594.33 416.85 L592.13 403.25 L594.29 389.84 L600.75 377.09 L611.31 365.42 L625.63 355.22 L643.21 346.82 L663.48 340.49 L685.74 336.41 L709.23 334.71 L733.15 335.39 L756.68 338.41 L779 343.64 L799.34 350.86 L817 359.8 L831.34 370.12 L841.87 381.46 L848.21 393.41 L850.12 405.54 L847.53 417.45 L840.5 428.72 L829.27 438.98 L814.2 447.9 L795.8 455.17 L774.7 460.58 L751.6 463.98 L727.3 465.27 L702.64 464.44 L678.46 461.56 L655.59 456.76 L634.83 450.23 L616.9 442.22 L602.42 433.04 L591.92 423.02 L585.75 412.51 L584.15 401.89 L587.18 391.53 L594.77 381.77 L606.64 372.94 L622.42 365.32 L641.57 359.17 L663.44 354.66 L687.29 351.92 L712.29 351.02 L737.6 351.94 L762.34 354.62 L785.65 358.95 L806.74 364.73 L824.86 371.74 L839.39 379.72 L849.82 388.37 L855.77 397.39 L857.03 406.44 L853.55 415.23 L845.43 423.45 L832.94 430.83 L816.5 437.14 L796.67 442.18 L774.11 445.8 L749.61 447.92 L723.99 448.48 L698.15 447.51 L672.96 445.07 L649.3 441.28 L627.98 436.3 L609.75 430.34 L595.23 423.62 L584.95 416.39 L579.25 408.92 L578.34 401.46 L582.27 394.28 L590.91 387.62 L603.98 381.69 L621.02 376.69 L641.47 372.75 L664.62 369.99 L689.69 368.47 L715.81 368.22 L742.09 369.19 L767.63 371.33 L791.53 374.53 L812.99 378.65 L831.25 383.5 L845.68 388.92 L855.77 394.68 L861.19 400.57 L861.72 406.39 L857.34 411.94 L848.21 417.03 L834.61 421.5 L817.02 425.22 L796.03 428.07 L772.37 429.99 L746.84 430.95 L720.31 430.94 L693.7 430.01 L667.93 428.22 L643.88 425.66 L622.38 422.46 L604.17 418.76 L589.89 414.7 L580.04 410.45 L574.94 406.16 L574.8 402 L579.61 398.09 L589.21 394.58 L603.29 391.56 L621.36 389.13 L642.81 387.34 L666.89 386.22 L692.79 385.79 L719.62 386.01 L746.44 386.85 L772.35 388.25 L796.45 390.11 L817.9 392.35 L835.97 394.85 L850.03 397.52 L859.61 400.23 L864.35 402.88 L864.11 405.37 L858.87 407.62 L848.83 409.56 L834.32 411.13 L815.83 412.31 L794.01 413.06 L769.6 413.41 L743.44 413.37 L716.43 412.97 L689.49 412.26 L663.56 411.31 L639.52 410.19 L618.2 408.96 L600.34 407.69 L586.55 406.46 L577.31 405.32 L572.93 404.32 L573.57 403.51 L579.21 402.91 L589.66 402.54 L604.54 402.39 L623.37 402.45 L645.48 402.69 L670.12 403.08 L696.44 403.56 L723.53 404.09 L750.47 404.61 L776.33 405.06 L800.21 405.4 L821.31 405.59 L838.88 405.58 L852.34 405.36 L861.21 404.91 L865.2 404.24 L864.16 403.36 L858.14 402.32 L847.34 401.14 L832.13 399.89 L813.04 398.63 L790.73 397.42 L765.97 396.35 L739.6 395.47 L712.53 394.86 L685.7 394.58 L660.02 394.66 L636.39 395.14 L615.6 396.04 L598.38 397.35 L585.31 399.05 L576.84 401.1 L573.25 403.44 L574.68 405.99 L581.06 408.68 L592.18 411.38 L607.64 414 L626.91 416.43 L649.33 418.56 L674.13 420.27 L700.44 421.49 L727.37 422.14 L753.99 422.14 L779.38 421.48 L802.67 420.14 L823.07 418.13 L839.87 415.49 L852.5 412.3 L860.54 408.64 L863.71 404.64 L861.9 400.42" opacity="0.09"/><path d="M820.68 366.35 L827.26 383.42 L830.14 401.05 L829.21 418.63 L824.47 435.56 L816.07 451.26 L804.27 465.21 L789.45 476.94 L772.12 486.07 L752.86 492.31 L732.31 495.47 L711.18 495.47 L690.2 492.34 L670.08 486.21 L651.54 477.33 L635.22 466.01 L621.69 452.68 L611.44 437.8 L604.84 421.91 L602.14 405.56 L603.45 389.3 L608.75 373.71 L617.88 359.31 L630.54 346.58 L646.32 335.94 L664.69 327.74 L685.02 322.23 L706.64 319.57 L728.79 319.83 L750.71 322.97 L771.66 328.85 L790.9 337.25 L807.76 347.83 L821.64 360.23 L832.06 374 L838.63 388.64 L841.11 403.65 L839.4 418.51 L833.53 432.71 L823.69 445.77 L810.2 457.25 L793.5 466.78 L774.16 474.06 L752.83 478.85 L730.23 481.03 L707.15 480.54 L684.37 477.44 L662.68 471.87 L642.84 464.03 L625.53 454.24 L611.36 442.85 L600.85 430.27 L594.35 416.94 L592.12 403.34 L594.25 389.93 L600.69 377.17 L611.22 365.49 L625.51 355.28 L643.08 346.87 L663.33 340.52 L685.58 336.43 L709.07 334.7 L733 335.37 L756.53 338.38 L778.86 343.6 L799.22 350.8 L816.9 359.73 L831.26 370.05 L841.82 381.38 L848.19 393.32 L850.14 405.46 L847.57 417.37 L840.57 428.65 L829.37 438.92 L814.32 447.84 L795.94 455.13 L774.85 460.56 L751.76 463.97 L727.47 465.27 L702.8 464.46 L678.61 461.59 L655.73 456.8 L634.95 450.28 L617 442.28 L602.5 433.11 L591.96 423.09 L585.77 412.58 L584.14 401.96 L587.14 391.59 L594.69 381.83 L606.54 372.99 L622.3 365.37 L641.43 359.2 L663.29 354.68 L687.12 351.93 L712.13 351.01 L737.43 351.92 L762.18 354.6 L785.51 358.91 L806.61 364.68 L824.76 371.69 L839.32 379.66 L849.77 388.31 L855.76 397.33 L857.05 406.38 L853.6 415.17 L845.51 423.4 L833.05 430.79 L816.63 437.11 L796.81 442.15 L774.27 445.79 L749.78 447.91 L724.17 448.48 L698.32 447.52 L673.12 445.09 L649.44 441.31 L628.11 436.34 L609.85 430.38 L595.31 423.67 L584.99 416.44 L579.26 408.97 L578.32 401.51 L582.22 394.33 L590.83 387.66 L603.87 381.73 L620.89 376.71 L641.32 372.77 L664.46 370 L689.52 368.48 L715.64 368.21 L741.92 369.18 L767.46 371.31 L791.39 374.51 L812.86 378.61 L831.14 383.47 L845.6 388.88 L855.73 394.64 L861.18 400.53 L861.74 406.36 L857.4 411.91 L848.29 417 L834.72 421.48 L817.16 425.2 L796.19 428.05 L772.54 429.98 L747.01 430.95 L720.49 430.95 L693.88 430.02 L668.09 428.23 L644.03 425.68 L622.51 422.48 L604.28 418.78 L589.97 414.73 L580.08 410.48 L574.95 406.19 L574.77 402.02 L579.55 398.12 L589.13 394.6 L603.18 391.58 L621.23 389.14 L642.65 387.35 L666.72 386.22 L692.61 385.78 L719.44 386.01 L746.27 386.84 L772.19 388.24 L796.3 390.1 L817.77 392.33 L835.87 394.84 L849.96 397.5 L859.57 400.21 L864.35 402.86 L864.13 405.35 L858.93 407.61 L848.92 409.55 L834.44 411.12 L815.98 412.3 L794.17 413.06 L769.78 413.41 L743.62 413.37 L716.61 412.97 L689.67 412.27 L663.72 411.32 L639.66 410.2 L618.32 408.97 L600.44 407.7 L586.62 406.47 L577.34 405.32 L572.93 404.33 L573.54 403.52 L579.15 402.92 L589.56 402.54 L604.42 402.39 L623.22 402.45 L645.32 402.69 L669.94 403.08 L696.25 403.56 L723.35 404.09 L750.29 404.6 L776.16 405.06 L800.07 405.4 L821.18 405.59 L838.79 405.58 L852.27 405.36 L861.18 404.91 L865.2 404.25 L864.2 403.37 L858.21 402.32 L847.43 401.15 L832.26 399.9 L813.19 398.63 L790.9 397.43 L766.14 396.35 L739.78 395.48 L712.71 394.87 L685.87 394.58 L660.18 394.66 L636.53 395.14 L615.72 396.03 L598.47 397.34 L585.37 399.04 L576.87 401.08 L573.25 403.42 L574.64 405.98 L580.99 408.66 L592.08 411.36 L607.51 413.99 L626.76 416.42 L649.17 418.54 L673.95 420.26 L700.26 421.49 L727.19 422.13 L753.82 422.15 L779.22 421.49 L802.53 420.15 L822.95 418.15 L839.78 415.51 L852.44 412.33 L860.51 408.67 L863.71 404.67 L861.94 400.44 L855.26 396.15 L843.91 391.95 L828.29 387.99 L808.93 384.43 L786.51 381.43 L761.8 379.11 L735.65 377.59 L708.97 376.95 L682.67 377.26 L657.65 378.53 L634.77 380.76 L614.82 383.9 L598.47 387.88 L586.29 392.57 L578.68 397.83 L575.9 403.49 L578.04 409.36 L585.01 415.23 L596.57 420.9" opacity="0.12"/><path d="M602.14 405.66 L603.42 389.41 L608.7 373.81 L617.8 359.4 L630.44 346.66 L646.2 336 L664.56 327.78 L684.88 322.25 L706.49 319.57 L728.64 319.81 L750.57 322.94 L771.53 328.8 L790.78 337.18 L807.66 347.75 L821.57 360.14 L832.01 373.9 L838.61 388.54 L841.12 403.55 L839.43 418.42 L833.59 432.62 L823.78 445.69 L810.31 457.19 L793.63 466.73 L774.3 474.02 L752.97 478.83 L730.38 481.03 L707.3 480.56 L684.51 477.48 L662.82 471.91 L642.96 464.1 L625.63 454.32 L611.44 442.93 L600.89 430.35 L594.37 417.03 L592.11 403.43 L594.21 390.01 L600.62 377.25 L611.13 365.56 L625.4 355.34 L642.95 346.91 L663.19 340.55 L685.43 336.44 L708.91 334.7 L732.84 335.36 L756.38 338.35 L778.73 343.55 L799.1 350.74 L816.79 359.66 L831.19 369.97 L841.77 381.3 L848.17 393.24 L850.15 405.38 L847.61 417.3 L840.64 428.58 L829.46 438.86 L814.44 447.79 L796.08 455.09 L775 460.53 L751.92 463.96 L727.63 465.27 L702.96 464.48 L678.77 461.62 L655.87 456.84 L635.08 450.33 L617.1 442.34 L602.58 433.17 L592.01 423.16 L585.78 412.65 L584.12 402.03 L587.1 391.66 L594.62 381.89 L606.44 373.04 L622.18 365.41 L641.29 359.24 L663.13 354.7 L686.96 351.94 L711.96 351.01 L737.27 351.91 L762.02 354.57 L785.36 358.87 L806.49 364.64 L824.66 371.64 L839.24 379.61 L849.73 388.25 L855.74 397.26 L857.07 406.32 L853.65 415.12 L845.59 423.35 L833.15 430.75 L816.76 437.07 L796.96 442.13 L774.43 445.77 L749.95 447.9 L724.34 448.49 L698.49 447.53 L673.28 445.11 L649.59 441.34 L628.24 436.38 L609.95 430.43 L595.38 423.72 L585.03 416.49 L579.27 409.02 L578.3 401.56 L582.17 394.37 L590.75 387.7 L603.76 381.76 L620.76 376.74 L641.17 372.79 L664.29 370.01 L689.34 368.48 L715.46 368.21 L741.75 369.17 L767.3 371.29 L791.24 374.48 L812.73 378.58 L831.04 383.43 L845.53 388.84 L855.69 394.6 L861.17 400.49 L861.76 406.32 L857.45 411.87 L848.38 416.97 L834.84 421.45 L817.29 425.18 L796.34 428.04 L772.71 429.97 L747.19 430.94 L720.67 430.95 L694.05 430.03 L668.26 428.25 L644.17 425.7 L622.63 422.51 L604.38 418.81 L590.04 414.76 L580.12 410.51 L574.96 406.22 L574.75 402.05 L579.49 398.14 L589.04 394.62 L603.06 391.6 L621.09 389.15 L642.49 387.35 L666.55 386.23 L692.44 385.78 L719.26 386 L746.09 386.84 L772.02 388.22 L796.15 390.08 L817.65 392.32 L835.77 394.82 L849.89 397.48 L859.53 400.19 L864.34 402.84 L864.16 405.34 L858.99 407.59 L849.01 409.54 L834.55 411.12 L816.12 412.29 L794.33 413.06 L769.95 413.41 L743.8 413.37 L716.79 412.97 L689.84 412.27 L663.88 411.33 L639.81 410.2 L618.45 408.97 L600.53 407.71 L586.69 406.47 L577.38 405.33 L572.94 404.33 L573.51 403.52 L579.09 402.92 L589.47 402.54 L604.3 402.39 L623.08 402.45 L645.15 402.69 L669.77 403.07 L696.07 403.55 L723.17 404.08 L750.12 404.6 L776 405.06 L799.92 405.4 L821.06 405.59 L838.69 405.58 L852.21 405.36 L861.15 404.92 L865.2 404.25 L864.23 403.38 L858.27 402.33 L847.53 401.15 L832.38 399.9 L813.34 398.64 L791.06 397.44 L766.32 396.36 L739.96 395.48 L712.89 394.87 L686.04 394.58 L660.34 394.65 L636.67 395.13 L615.84 396.02 L598.56 397.33 L585.43 399.02 L576.9 401.07 L573.25 403.41 L574.61 405.96 L580.93 408.64 L591.98 411.35 L607.39 413.97 L626.62 416.4 L649.01 418.53 L673.78 420.26 L700.08 421.48 L727.01 422.13 L753.64 422.15 L779.06 421.5 L802.39 420.16 L822.83 418.16 L839.69 415.53 L852.38 412.35 L860.48 408.7 L863.72 404.69 L861.98 400.47 L855.33 396.18 L844.01 391.97 L828.41 388.01 L809.08 384.45 L786.67 381.44 L761.97 379.12 L735.83 377.59 L709.15 376.95 L682.84 377.25 L657.81 378.52 L634.91 380.74 L614.93 383.88 L598.56 387.85 L586.35 392.53 L578.71 397.79 L575.9 403.45 L578 409.32 L584.94 415.19 L596.47 420.87 L612.19 426.12 L631.55 430.76 L653.88 434.6 L678.4 437.48 L704.28 439.26 L730.61 439.84 L756.49 439.18 L781.04 437.26 L803.42 434.12 L822.85 429.83 L838.68 424.51 L850.37 418.32 L857.53 411.47 L859.92 404.17 L857.46 396.68 L850.26 389.26 L838.58 382.16 L822.81 375.65 L803.51 369.98" opacity="0.15"/><path d="M833.65 432.53 L823.86 445.61 L810.41 457.12 L793.75 466.68 L774.44 473.99 L753.12 478.81 L730.54 481.03 L707.45 480.58 L684.66 477.51 L662.95 471.96 L643.07 464.16 L625.73 454.39 L611.51 443.01 L600.94 430.44 L594.39 417.12 L592.1 403.52 L594.18 390.1 L600.56 377.33 L611.04 365.63 L625.29 355.39 L642.82 346.96 L663.04 340.58 L685.27 336.46 L708.75 334.7 L732.68 335.34 L756.23 338.32 L778.59 343.5 L798.98 350.69 L816.69 359.59 L831.11 369.9 L841.73 381.22 L848.15 393.16 L850.16 405.3 L847.65 417.22 L840.71 428.51 L829.56 438.8 L814.56 447.74 L796.21 455.05 L775.15 460.51 L752.08 463.94 L727.8 465.28 L703.13 464.49 L678.92 461.65 L656.01 456.88 L635.2 450.38 L617.2 442.4 L602.65 433.24 L592.06 423.23 L585.8 412.73 L584.11 402.1 L587.05 391.73 L594.54 381.95 L606.34 373.09 L622.05 365.45 L641.15 359.27 L662.97 354.72 L686.79 351.95 L711.79 351 L737.1 351.89 L761.86 354.54 L785.22 358.83 L806.36 364.59 L824.55 371.58 L839.16 379.55 L849.68 388.19 L855.73 397.2 L857.08 406.26 L853.69 415.06 L845.66 423.3 L833.25 430.7 L816.88 437.03 L797.11 442.1 L774.6 445.75 L750.12 447.9 L724.51 448.49 L698.66 447.55 L673.44 445.14 L649.74 441.37 L628.36 436.42 L610.06 430.47 L595.46 423.76 L585.08 416.54 L579.28 409.07 L578.28 401.61 L582.12 394.42 L590.67 387.74 L603.65 381.8 L620.62 376.77 L641.01 372.81 L664.13 370.03 L689.17 368.48 L715.28 368.2 L741.58 369.15 L767.14 371.27 L791.09 374.45 L812.61 378.55 L830.94 383.4 L845.46 388.8 L855.65 394.56 L861.16 400.45 L861.79 406.28 L857.51 411.84 L848.46 416.94 L834.95 421.43 L817.43 425.15 L796.5 428.03 L772.88 429.97 L747.37 430.94 L720.84 430.96 L694.22 430.04 L668.42 428.26 L644.32 425.72 L622.76 422.53 L604.48 418.84 L590.11 414.78 L580.16 410.54 L574.97 406.25 L574.72 402.08 L579.43 398.16 L588.95 394.64 L602.95 391.61 L620.95 389.17 L642.34 387.36 L666.38 386.23 L692.26 385.78 L719.08 386 L745.92 386.83 L771.86 388.21 L796 390.07 L817.52 392.3 L835.67 394.8 L849.82 397.46 L859.49 400.17 L864.34 402.82 L864.19 405.32 L859.05 407.58 L849.1 409.52 L834.67 411.11 L816.26 412.29 L794.49 413.06 L770.12 413.41 L743.98 413.37 L716.97 412.98 L690.02 412.28 L664.05 411.34 L639.96 410.21 L618.57 408.98 L600.63 407.72 L586.75 406.48 L577.42 405.34 L572.94 404.34 L573.48 403.53 L579.02 402.92 L589.37 402.55 L604.18 402.39 L622.94 402.45 L644.99 402.69 L669.59 403.07 L695.89 403.55 L722.99 404.08 L749.94 404.6 L775.84 405.05 L799.78 405.4 L820.94 405.59 L838.6 405.58 L852.14 405.37 L861.11 404.92 L865.2 404.26 L864.26 403.38 L858.34 402.34 L847.63 401.16 L832.5 399.91 L813.48 398.65 L791.22 397.44 L766.49 396.37 L740.14 395.49 L713.07 394.87 L686.22 394.58 L660.51 394.65 L636.82 395.13 L615.96 396.02 L598.66 397.32 L585.5 399.01 L576.93 401.05 L573.25 403.39 L574.57 405.94 L580.86 408.62 L591.88 411.33 L607.26 413.95 L626.47 416.39 L648.84 418.52 L673.6 420.25 L699.9 421.48 L726.83 422.13 L753.47 422.15 L778.9 421.51 L802.25 420.18 L822.71 418.18 L839.6 415.56 L852.32 412.37 L860.46 408.72 L863.72 404.72 L862.02 400.5 L855.4 396.21 L844.11 392 L828.54 388.04 L809.22 384.47 L786.84 381.46 L762.15 379.13 L736.01 377.6 L709.32 376.95 L683.01 377.24 L657.96 378.5 L635.05 380.72 L615.05 383.85 L598.65 387.82 L586.41 392.5 L578.73 397.75 L575.89 403.41 L577.96 409.28 L584.87 415.16 L596.37 420.83 L612.07 426.09 L631.41 430.74 L653.72 434.58 L678.23 437.46 L704.1 439.25 L730.43 439.85 L756.33 439.19 L780.89 437.28 L803.28 434.15 L822.74 429.86 L838.59 424.55 L850.32 418.37 L857.51 411.52 L859.93 404.22 L857.51 396.73 L850.34 389.3 L838.68 382.2 L822.93 375.69 L803.66 370.01 L781.52 365.39 L757.28 362.01 L731.79 360.02 L705.91 359.52 L680.55 360.57 L656.56 363.16 L634.78 367.24 L615.93 372.7 L600.67 379.37 L589.51 387.04 L582.82 395.47 L580.82 404.38 L583.57 413.46 L590.96 422.4 L602.72 430.87 L618.44 438.58 L637.57 445.24 L659.44 450.59 L683.29 454.41" opacity="0.18"/><path d="M625.17 355.45 L642.69 347 L662.9 340.61 L685.12 336.47 L708.59 334.7 L732.52 335.32 L756.08 338.29 L778.45 343.46 L798.86 350.63 L816.59 359.53 L831.04 369.82 L841.68 381.14 L848.13 393.08 L850.17 405.22 L847.7 417.14 L840.78 428.44 L829.65 438.74 L814.68 447.69 L796.35 455.01 L775.3 460.48 L752.24 463.93 L727.96 465.28 L703.29 464.51 L679.08 461.68 L656.16 456.93 L635.32 450.44 L617.31 442.46 L602.73 433.31 L592.11 423.3 L585.82 412.8 L584.09 402.17 L587.01 391.79 L594.47 382.01 L606.24 373.15 L621.93 365.5 L641 359.3 L662.82 354.75 L686.63 351.96 L711.62 351 L736.93 351.87 L761.71 354.51 L785.08 358.8 L806.24 364.55 L824.45 371.53 L839.09 379.49 L849.63 388.13 L855.71 397.14 L857.1 406.2 L853.74 415.01 L845.74 423.25 L833.36 430.66 L817.01 437 L797.25 442.07 L774.76 445.74 L750.29 447.89 L724.68 448.5 L698.83 447.56 L673.6 445.16 L649.88 441.41 L628.49 436.46 L610.16 430.52 L595.53 423.81 L585.12 416.59 L579.3 409.12 L578.26 401.66 L582.07 394.46 L590.59 387.78 L603.54 381.83 L620.49 376.8 L640.86 372.83 L663.96 370.04 L689 368.49 L715.11 368.2 L741.4 369.14 L766.98 371.25 L790.94 374.43 L812.48 378.52 L830.84 383.36 L845.38 388.76 L855.6 394.52 L861.15 400.41 L861.81 406.24 L857.56 411.8 L848.55 416.91 L835.06 421.4 L817.57 425.13 L796.65 428.01 L773.04 429.96 L747.54 430.94 L721.02 430.96 L694.4 430.05 L668.58 428.28 L644.47 425.74 L622.89 422.56 L604.58 418.86 L590.18 414.81 L580.2 410.56 L574.98 406.28 L574.7 402.1 L579.38 398.19 L588.86 394.66 L602.83 391.63 L620.81 389.18 L642.18 387.37 L666.21 386.24 L692.08 385.78 L718.9 385.99 L745.74 386.82 L771.69 388.2 L795.86 390.05 L817.4 392.28 L835.57 394.78 L849.75 397.44 L859.45 400.15 L864.33 402.81 L864.22 405.31 L859.12 407.56 L849.19 409.51 L834.79 411.1 L816.4 412.28 L794.65 413.05 L770.3 413.41 L744.16 413.37 L717.15 412.98 L690.19 412.29 L664.21 411.34 L640.1 410.22 L618.7 408.99 L600.73 407.73 L586.82 406.49 L577.45 405.35 L572.94 404.35 L573.45 403.53 L578.96 402.93 L589.28 402.55 L604.06 402.39 L622.79 402.45 L644.83 402.68 L669.42 403.07 L695.71 403.55 L722.81 404.07 L749.77 404.59 L775.67 405.05 L799.63 405.4 L820.82 405.59 L838.5 405.59 L852.08 405.37 L861.08 404.93 L865.2 404.26 L864.3 403.39 L858.4 402.35 L847.72 401.17 L832.62 399.92 L813.63 398.66 L791.38 397.45 L766.66 396.37 L740.32 395.49 L713.25 394.87 L686.39 394.58 L660.67 394.65 L636.96 395.12 L616.08 396.01 L598.75 397.31 L585.56 399 L576.96 401.04 L573.24 403.37 L574.54 405.93 L580.79 408.6 L591.78 411.31 L607.14 413.94 L626.33 416.37 L648.68 418.51 L673.43 420.24 L699.72 421.47 L726.65 422.13 L753.3 422.16 L778.74 421.51 L802.11 420.19 L822.6 418.2 L839.51 415.58 L852.26 412.4 L860.43 408.75 L863.73 404.75 L862.06 400.53 L855.47 396.24 L844.21 392.03 L828.66 388.06 L809.37 384.49 L787 381.48 L762.32 379.14 L736.19 377.6 L709.5 376.95 L683.18 377.24 L658.12 378.49 L635.19 380.7 L615.16 383.83 L598.74 387.79 L586.46 392.46 L578.76 397.72 L575.88 403.37 L577.92 409.24 L584.8 415.12 L596.27 420.8 L611.94 426.06 L631.26 430.71 L653.56 434.56 L678.06 437.45 L703.92 439.24 L730.26 439.85 L756.16 439.21 L780.74 437.3 L803.15 434.17 L822.63 429.89 L838.51 424.59 L850.26 418.41 L857.48 411.56 L859.94 404.27 L857.55 396.78 L850.41 389.35 L838.78 382.25 L823.06 375.73 L803.8 370.05 L781.68 365.41 L757.45 362.02 L731.96 360.02 L706.08 359.52 L680.71 360.56 L656.71 363.14 L634.91 367.21 L616.04 372.66 L600.75 379.32 L589.56 386.99 L582.84 395.42 L580.81 404.32 L583.53 413.4 L590.88 422.34 L602.62 430.82 L618.31 438.53 L637.42 445.2 L659.28 450.56 L683.13 454.4 L708.14 456.55 L733.45 456.92 L758.2 455.44 L781.53 452.15 L802.64 447.12 L820.83 440.5 L835.47 432.48 L846.07 423.33 L852.27 413.35 L853.89 402.86 L850.87 392.23 L843.34 381.83 L831.57 372.03 L815.97 363.17 L797.1 355.59 L775.6 349.56 L752.24 345.32 L727.81 343.06 L703.16 342.88" opacity="0.22"/><path d="M775.46 460.46 L752.41 463.92 L728.13 465.28 L703.45 464.53 L679.23 461.71 L656.3 456.97 L635.45 450.49 L617.41 442.52 L602.8 433.37 L592.15 423.37 L585.84 412.87 L584.08 402.24 L586.96 391.86 L594.4 382.07 L606.14 373.2 L621.81 365.54 L640.86 359.33 L662.66 354.77 L686.46 351.97 L711.45 351 L736.77 351.86 L761.55 354.49 L784.93 358.76 L806.11 364.5 L824.35 371.48 L839.01 379.43 L849.59 388.07 L855.7 397.08 L857.12 406.14 L853.79 414.95 L845.82 423.2 L833.46 430.61 L817.14 436.96 L797.4 442.05 L774.92 445.72 L750.46 447.89 L724.86 448.5 L699 447.58 L673.76 445.18 L650.03 441.44 L628.61 436.5 L610.26 430.56 L595.61 423.86 L585.17 416.64 L579.31 409.17 L578.24 401.7 L582.01 394.51 L590.5 387.82 L603.43 381.87 L620.36 376.83 L640.71 372.85 L663.8 370.05 L688.82 368.49 L714.93 368.19 L741.23 369.13 L766.81 371.23 L790.8 374.4 L812.35 378.49 L830.74 383.32 L845.31 388.72 L855.56 394.48 L861.14 400.37 L861.83 406.2 L857.62 411.77 L848.63 416.88 L835.17 421.37 L817.7 425.11 L796.81 428 L773.21 429.95 L747.72 430.94 L721.2 430.97 L694.57 430.06 L668.75 428.3 L644.62 425.76 L623.01 422.58 L604.68 418.89 L590.26 414.84 L580.24 410.59 L574.98 406.3 L574.67 402.13 L579.32 398.21 L588.77 394.68 L602.72 391.65 L620.67 389.19 L642.02 387.38 L666.04 386.24 L691.9 385.78 L718.72 385.99 L745.57 386.81 L771.53 388.19 L795.71 390.04 L817.27 392.27 L835.47 394.77 L849.68 397.42 L859.41 400.13 L864.33 402.79 L864.25 405.29 L859.18 407.55 L849.28 409.5 L834.91 411.09 L816.54 412.28 L794.81 413.05 L770.47 413.41 L744.34 413.38 L717.33 412.99 L690.37 412.29 L664.38 411.35 L640.25 410.23 L618.82 409 L600.83 407.73 L586.89 406.5 L577.49 405.35 L572.94 404.35 L573.42 403.54 L578.9 402.93 L589.19 402.55 L603.94 402.39 L622.65 402.45 L644.67 402.68 L669.25 403.06 L695.53 403.54 L722.63 404.07 L749.59 404.59 L775.51 405.05 L799.49 405.4 L820.69 405.59 L838.4 405.59 L852.01 405.37 L861.05 404.93 L865.2 404.27 L864.33 403.4 L858.47 402.35 L847.82 401.18 L832.75 399.93 L813.77 398.66 L791.55 397.46 L766.84 396.38 L740.5 395.5 L713.43 394.88 L686.57 394.58 L660.83 394.65 L637.1 395.12 L616.2 396 L598.84 397.3 L585.62 398.98 L576.99 401.02 L573.24 403.36 L574.5 405.91 L580.72 408.59 L591.69 411.29 L607.02 413.92 L626.18 416.36 L648.52 418.5 L673.25 420.23 L699.54 421.47 L726.48 422.13 L753.13 422.16 L778.58 421.52 L801.97 420.2 L822.48 418.21 L839.42 415.6 L852.2 412.42 L860.4 408.77 L863.73 404.78 L862.09 400.56 L855.54 396.26 L844.31 392.05 L828.79 388.08 L809.52 384.51 L787.16 381.49 L762.5 379.15 L736.37 377.61 L709.68 376.95 L683.35 377.23 L658.27 378.48 L635.32 380.68 L615.28 383.8 L598.82 387.76 L586.52 392.43 L578.78 397.68 L575.87 403.33 L577.88 409.2 L584.73 415.08 L596.17 420.76 L611.82 426.03 L631.11 430.68 L653.39 434.54 L677.89 437.44 L703.75 439.24 L730.09 439.85 L755.99 439.22 L780.58 437.32 L803.01 434.2 L822.52 429.93 L838.43 424.63 L850.21 418.46 L857.46 411.61 L859.95 404.32 L857.59 396.83 L850.48 389.4 L838.88 382.29 L823.18 375.77 L803.95 370.08 L781.84 365.44 L757.62 362.04 L732.13 360.03 L706.25 359.51 L680.87 360.54 L656.86 363.11 L635.04 367.17 L616.15 372.61 L600.83 379.27 L589.61 386.93 L582.86 395.36 L580.8 404.26 L583.48 413.34 L590.81 422.28 L602.52 430.77 L618.19 438.49 L637.28 445.16 L659.12 450.53 L682.96 454.38 L707.97 456.55 L733.28 456.93 L758.04 455.46 L781.38 452.18 L802.52 447.16 L820.73 440.55 L835.39 432.54 L846.02 423.4 L852.26 413.42 L853.91 402.93 L850.92 392.3 L843.42 381.9 L831.67 372.09 L816.09 363.22 L797.24 355.63 L775.76 349.59 L752.4 345.34 L727.98 343.07 L703.33 342.87 L679.29 344.8 L656.71 348.81 L636.33 354.81 L618.87 362.6 L604.9 371.95 L594.89 382.56 L589.17 394.07 L587.93 406.09 L591.19 418.22 L598.82 430.03 L610.54 441.11 L625.95 451.06 L644.48 459.52 L665.5 466.17 L688.27 470.76 L712.02 473.09 L735.9 473.06 L759.12 470.63 L780.86 465.86" opacity="0.26"/><path d="M711.28 350.99 L736.6 351.84 L761.39 354.46 L784.79 358.72 L805.98 364.45 L824.25 371.43 L838.94 379.38 L849.54 388.01 L855.68 397.02 L857.13 406.08 L853.84 414.89 L845.9 423.15 L833.57 430.57 L817.27 436.93 L797.55 442.02 L775.08 445.7 L750.63 447.88 L725.03 448.5 L699.17 447.59 L673.92 445.21 L650.18 441.47 L628.74 436.54 L610.36 430.61 L595.68 423.91 L585.21 416.69 L579.32 409.22 L578.22 401.75 L581.96 394.56 L590.42 387.87 L603.32 381.9 L620.23 376.85 L640.56 372.87 L663.63 370.06 L688.65 368.49 L714.76 368.19 L741.06 369.12 L766.65 371.21 L790.65 374.37 L812.23 378.45 L830.63 383.29 L845.23 388.68 L855.52 394.44 L861.13 400.33 L861.85 406.17 L857.67 411.73 L848.72 416.85 L835.29 421.35 L817.84 425.09 L796.96 427.98 L773.38 429.94 L747.89 430.94 L721.38 430.97 L694.75 430.07 L668.91 428.31 L644.76 425.78 L623.14 422.61 L604.78 418.92 L590.33 414.87 L580.28 410.62 L574.99 406.33 L574.64 402.16 L579.26 398.24 L588.69 394.7 L602.6 391.67 L620.53 389.21 L641.86 387.39 L665.87 386.24 L691.72 385.78 L718.54 385.98 L745.39 386.8 L771.37 388.18 L795.56 390.02 L817.14 392.25 L835.37 394.75 L849.61 397.41 L859.38 400.12 L864.32 402.77 L864.28 405.27 L859.24 407.54 L849.38 409.49 L835.03 411.08 L816.69 412.27 L794.97 413.05 L770.64 413.41 L744.52 413.38 L717.51 412.99 L690.54 412.3 L664.54 411.36 L640.4 410.24 L618.95 409.01 L600.93 407.74 L586.96 406.51 L577.52 405.36 L572.95 404.36 L573.39 403.54 L578.83 402.93 L589.09 402.55 L603.82 402.39 L622.5 402.45 L644.51 402.68 L669.07 403.06 L695.35 403.54 L722.44 404.07 L749.42 404.59 L775.35 405.05 L799.34 405.39 L820.57 405.59 L838.31 405.59 L851.94 405.37 L861.01 404.93 L865.2 404.27 L864.36 403.4 L858.54 402.36 L847.91 401.19 L832.87 399.94 L813.92 398.67 L791.71 397.46 L767.01 396.38 L740.68 395.5 L713.61 394.88 L686.74 394.58 L660.99 394.64 L637.25 395.11 L616.32 395.99 L598.94 397.29 L585.69 398.97 L577.02 401.01 L573.24 403.34 L574.46 405.89 L580.65 408.57 L591.59 411.28 L606.89 413.91 L626.03 416.34 L648.35 418.48 L673.08 420.22 L699.36 421.46 L726.3 422.13 L752.95 422.16 L778.42 421.53 L801.83 420.21 L822.36 418.23 L839.33 415.62 L852.14 412.44 L860.37 408.8 L863.74 404.8 L862.13 400.58 L855.61 396.29 L844.41 392.08 L828.91 388.11 L809.66 384.53 L787.33 381.51 L762.67 379.16 L736.55 377.61 L709.86 376.95 L683.52 377.22 L658.43 378.46 L635.46 380.66 L615.39 383.78 L598.91 387.73 L586.58 392.4 L578.81 397.64 L575.86 403.29 L577.84 409.16 L584.66 415.04 L596.07 420.72 L611.69 426 L630.97 430.66 L653.23 434.52 L677.72 437.42 L703.57 439.23 L729.91 439.85 L755.83 439.23 L780.43 437.34 L802.88 434.23 L822.41 429.96 L838.34 424.67 L850.15 418.5 L857.44 411.66 L859.96 404.37 L857.63 396.88 L850.56 389.45 L838.98 382.34 L823.31 375.81 L804.09 370.11 L782 365.46 L757.79 362.05 L732.31 360.03 L706.42 359.51 L681.03 360.53 L657.01 363.09 L635.17 367.14 L616.25 372.57 L600.91 379.22 L589.66 386.88 L582.88 395.3 L580.78 404.2 L583.44 413.28 L590.74 422.22 L602.42 430.71 L618.06 438.44 L637.14 445.12 L658.96 450.5 L682.79 454.36 L707.8 456.54 L733.12 456.93 L757.88 455.48 L781.24 452.22 L802.39 447.21 L820.62 440.6 L835.32 432.6 L845.97 423.46 L852.24 413.49 L853.92 403 L850.96 392.37 L843.49 381.97 L831.77 372.15 L816.22 363.28 L797.38 355.67 L775.91 349.62 L752.56 345.36 L728.14 343.07 L703.49 342.86 L679.45 344.78 L656.85 348.78 L636.45 354.76 L618.96 362.54 L604.97 371.89 L594.93 382.48 L589.19 393.99 L587.91 406.01 L591.14 418.14 L598.75 429.96 L610.45 441.05 L625.82 451 L644.34 459.47 L665.35 466.14 L688.12 470.74 L711.85 473.09 L735.75 473.07 L758.97 470.66 L780.73 465.91 L800.29 458.94 L816.98 449.98 L830.24 439.31 L839.63 427.28 L844.85 414.28 L845.73 400.76 L842.26 387.19 L834.58 374.02 L822.97 361.73 L807.84 350.75 L789.73 341.48 L769.28 334.27 L747.19 329.38 L724.23 327.02 L701.2 327.3 L678.88 330.23 L658.04 335.76 L639.39 343.71 L623.55 353.84" opacity="0.3"/><path d="M674.08 445.23 L650.32 441.5 L628.87 436.58 L610.47 430.65 L595.76 423.96 L585.26 416.74 L579.33 409.27 L578.2 401.8 L581.91 394.6 L590.34 387.91 L603.21 381.94 L620.09 376.88 L640.41 372.89 L663.46 370.07 L688.47 368.5 L714.58 368.18 L740.89 369.1 L766.49 371.19 L790.5 374.35 L812.1 378.42 L830.53 383.25 L845.16 388.65 L855.48 394.4 L861.11 400.29 L861.88 406.13 L857.73 411.7 L848.8 416.82 L835.4 421.32 L817.97 425.07 L797.12 427.97 L773.55 429.94 L748.07 430.94 L721.56 430.98 L694.92 430.08 L669.08 428.33 L644.91 425.8 L623.27 422.63 L604.88 418.94 L590.4 414.9 L580.32 410.65 L575 406.36 L574.62 402.18 L579.2 398.26 L588.6 394.73 L602.48 391.68 L620.39 389.22 L641.7 387.4 L665.7 386.25 L691.54 385.78 L718.36 385.98 L745.22 386.79 L771.2 388.16 L795.41 390.01 L817.02 392.23 L835.27 394.73 L849.54 397.39 L859.34 400.1 L864.32 402.75 L864.3 405.26 L859.3 407.52 L849.47 409.48 L835.15 411.07 L816.83 412.26 L795.13 413.04 L770.81 413.41 L744.7 413.38 L717.69 413 L690.72 412.3 L664.7 411.37 L640.54 410.25 L619.07 409.02 L601.03 407.75 L587.03 406.51 L577.56 405.37 L572.95 404.37 L573.36 403.55 L578.77 402.94 L589 402.55 L603.7 402.39 L622.36 402.44 L644.35 402.68 L668.9 403.06 L695.17 403.54 L722.26 404.06 L749.24 404.58 L775.19 405.04 L799.19 405.39 L820.45 405.59 L838.21 405.59 L851.88 405.38 L860.98 404.94 L865.2 404.28 L864.4 403.41 L858.6 402.37 L848.01 401.19 L832.99 399.94 L814.06 398.68 L791.87 397.47 L767.19 396.39 L740.86 395.5 L713.79 394.88 L686.91 394.58 L661.15 394.64 L637.39 395.11 L616.44 395.98 L599.03 397.28 L585.75 398.96 L577.05 400.99 L573.24 403.32 L574.43 405.87 L580.58 408.55 L591.49 411.26 L606.77 413.89 L625.89 416.33 L648.19 418.47 L672.91 420.21 L699.18 421.46 L726.12 422.13 L752.78 422.17 L778.26 421.54 L801.68 420.23 L822.24 418.25 L839.24 415.64 L852.08 412.47 L860.34 408.83 L863.74 404.83 L862.17 400.61 L855.68 396.32 L844.51 392.11 L829.04 388.13 L809.81 384.56 L787.49 381.53 L762.84 379.18 L736.72 377.62 L710.03 376.95 L683.69 377.21 L658.59 378.45 L635.6 380.64 L615.51 383.75 L599 387.7 L586.63 392.36 L578.83 397.6 L575.86 403.25 L577.8 409.12 L584.58 415 L595.97 420.69 L611.57 425.97 L630.82 430.63 L653.07 434.5 L677.54 437.41 L703.4 439.23 L729.74 439.86 L755.66 439.24 L780.28 437.36 L802.74 434.25 L822.29 430 L838.26 424.71 L850.1 418.55 L857.42 411.71 L859.97 404.42 L857.68 396.93 L850.63 389.49 L839.08 382.38 L823.43 375.85 L804.24 370.14 L782.16 365.49 L757.96 362.07 L732.48 360.04 L706.6 359.5 L681.2 360.51 L657.16 363.06 L635.3 367.11 L616.36 372.53 L600.99 379.17 L589.71 386.82 L582.9 395.24 L580.77 404.14 L583.39 413.22 L590.66 422.17 L602.31 430.66 L617.94 438.4 L636.99 445.09 L658.81 450.48 L682.63 454.35 L707.63 456.54 L732.95 456.94 L757.72 455.5 L781.09 452.25 L802.27 447.25 L820.52 440.65 L835.24 432.66 L845.93 423.53 L852.23 413.55 L853.93 403.07 L851.01 392.44 L843.56 382.03 L831.87 372.21 L816.34 363.33 L797.52 355.71 L776.07 349.65 L752.73 345.38 L728.31 343.07 L703.65 342.85 L679.6 344.75 L656.99 348.74 L636.58 354.71 L619.06 362.48 L605.04 371.82 L594.97 382.41 L589.2 393.91 L587.9 405.93 L591.1 418.06 L598.67 429.88 L610.35 440.98 L625.7 450.95 L644.2 459.43 L665.2 466.1 L687.96 470.72 L711.69 473.08 L735.59 473.09 L758.82 470.69 L780.6 465.95 L800.17 459 L816.88 450.05 L830.17 439.39 L839.59 427.36 L844.84 414.37 L845.75 400.85 L842.31 387.27 L834.65 374.1 L823.06 361.8 L807.96 350.82 L789.87 341.53 L769.42 334.3 L747.34 329.4 L724.39 327.02 L701.35 327.28 L679.02 330.2 L658.17 335.71 L639.5 343.64 L623.64 353.76 L611.12 365.73 L602.36 379.16 L597.64 393.6 L597.11 408.56 L600.75 423.52 L608.44 437.98 L619.87 451.42 L634.65 463.36 L652.25 473.37 L672.04 481.09 L693.35 486.23 L715.42 488.57 L737.51 488.02 L758.85 484.55 L778.71 478.26 L796.42 469.34 L811.38 458.07 L823.09 444.82 L831.18 430.03" opacity="0.35"/><path d="M811.97 378.39 L830.43 383.22 L845.09 388.61 L855.43 394.36 L861.1 400.25 L861.9 406.09 L857.78 411.66 L848.89 416.79 L835.51 421.29 L818.11 425.05 L797.27 427.95 L773.72 429.93 L748.25 430.94 L721.74 430.98 L695.09 430.1 L669.24 428.35 L645.06 425.83 L623.39 422.66 L604.98 418.97 L590.47 414.93 L580.36 410.68 L575.01 406.39 L574.59 402.21 L579.15 398.29 L588.51 394.75 L602.37 391.7 L620.25 389.23 L641.55 387.41 L665.52 386.25 L691.36 385.78 L718.18 385.97 L745.04 386.78 L771.04 388.15 L795.27 389.99 L816.89 392.22 L835.17 394.71 L849.47 397.37 L859.3 400.08 L864.31 402.74 L864.33 405.24 L859.36 407.51 L849.56 409.47 L835.27 411.06 L816.97 412.26 L795.3 413.04 L770.99 413.41 L744.88 413.38 L717.87 413 L690.89 412.31 L664.87 411.37 L640.69 410.26 L619.2 409.03 L601.12 407.76 L587.1 406.52 L577.6 405.38 L572.95 404.37 L573.33 403.55 L578.71 402.94 L588.91 402.55 L603.58 402.39 L622.22 402.44 L644.18 402.68 L668.72 403.05 L694.99 403.53 L722.08 404.06 L749.07 404.58 L775.02 405.04 L799.05 405.39 L820.32 405.59 L838.12 405.59 L851.81 405.38 L860.95 404.94 L865.2 404.28 L864.43 403.42 L858.67 402.37 L848.11 401.2 L833.11 399.95 L814.21 398.69 L792.04 397.48 L767.36 396.4 L741.04 395.51 L713.97 394.88 L687.09 394.58 L661.31 394.64 L637.53 395.1 L616.56 395.98 L599.12 397.27 L585.81 398.95 L577.08 400.98 L573.23 403.31 L574.39 405.86 L580.52 408.53 L591.39 411.24 L606.64 413.87 L625.74 416.32 L648.03 418.46 L672.73 420.2 L699 421.45 L725.94 422.13 L752.61 422.17 L778.1 421.55 L801.54 420.24 L822.13 418.26 L839.15 415.66 L852.02 412.49 L860.32 408.85 L863.75 404.86 L862.21 400.64 L855.75 396.35 L844.61 392.13 L829.16 388.16 L809.96 384.58 L787.65 381.54 L763.02 379.19 L736.9 377.62 L710.21 376.95 L683.86 377.21 L658.74 378.44 L635.74 380.62 L615.62 383.73 L599.09 387.67 L586.69 392.33 L578.86 397.57 L575.85 403.22 L577.76 409.08 L584.51 414.97 L595.87 420.65 L611.44 425.93 L630.68 430.6 L652.91 434.48 L677.37 437.4 L703.22 439.22 L729.56 439.86 L755.49 439.25 L780.12 437.38 L802.61 434.28 L822.18 430.03 L838.18 424.75 L850.05 418.59 L857.39 411.76 L859.98 404.47 L857.72 396.98 L850.7 389.54 L839.18 382.42 L823.56 375.89 L804.38 370.18 L782.32 365.51 L758.13 362.08 L732.65 360.04 L706.77 359.5 L681.36 360.5 L657.31 363.04 L635.43 367.07 L616.47 372.49 L601.07 379.12 L589.76 386.77 L582.92 395.18 L580.76 404.08 L583.35 413.16 L590.59 422.11 L602.21 430.61 L617.82 438.35 L636.85 445.05 L658.65 450.45 L682.46 454.33 L707.46 456.53 L732.78 456.95 L757.56 455.52 L780.95 452.28 L802.14 447.29 L820.42 440.7 L835.16 432.72 L845.88 423.59 L852.21 413.62 L853.95 403.14 L851.05 392.51 L843.64 382.1 L831.97 372.27 L816.46 363.38 L797.66 355.75 L776.22 349.68 L752.89 345.39 L728.47 343.08 L703.81 342.84 L679.75 344.73 L657.13 348.7 L636.7 354.66 L619.16 362.42 L605.11 371.75 L595.02 382.33 L589.21 393.83 L587.88 405.85 L591.05 417.98 L598.6 429.81 L610.25 440.91 L625.58 450.89 L644.06 459.38 L665.05 466.07 L687.8 470.7 L711.53 473.08 L735.43 473.1 L758.67 470.72 L780.46 466 L800.06 459.06 L816.79 450.12 L830.1 439.47 L839.55 427.45 L844.83 414.46 L845.77 400.94 L842.35 387.36 L834.73 374.19 L823.16 361.88 L808.08 350.88 L790 341.59 L769.57 334.34 L747.5 329.42 L724.54 327.02 L701.5 327.26 L679.17 330.17 L658.3 335.66 L639.61 343.58 L623.72 353.68 L611.18 365.64 L602.4 379.06 L597.65 393.5 L597.09 408.46 L600.71 423.43 L608.36 437.89 L619.78 451.34 L634.53 463.29 L652.11 473.32 L671.9 481.05 L693.2 486.21 L715.28 488.57 L737.37 488.04 L758.71 484.59 L778.59 478.32 L796.31 469.41 L811.3 458.16 L823.03 444.92 L831.14 430.13 L835.37 414.3 L835.58 397.96 L831.79 381.67 L824.16 365.99 L812.97 351.48 L798.61 338.64 L781.62 327.95 L762.57 319.78 L742.14 314.45 L721.03 312.16 L699.98 313.03 L679.7 317.05 L660.89 324.1 L644.19 333.98 L630.14 346.37 L619.23 360.86 L611.81 376.96 L608.1 394.13 L608.21 411.8" opacity="0.4"/><path d="M590.55 414.96 L580.4 410.71 L575.01 406.42 L574.57 402.24 L579.09 398.31 L588.42 394.77 L602.25 391.72 L620.11 389.25 L641.39 387.41 L665.35 386.26 L691.19 385.78 L718 385.97 L744.87 386.77 L770.87 388.14 L795.12 389.98 L816.77 392.2 L835.07 394.69 L849.4 397.35 L859.26 400.06 L864.3 402.72 L864.36 405.23 L859.42 407.5 L849.65 409.46 L835.38 411.05 L817.11 412.25 L795.46 413.04 L771.16 413.41 L745.06 413.39 L718.06 413.01 L691.07 412.32 L665.03 411.38 L640.84 410.26 L619.32 409.04 L601.22 407.77 L587.16 406.53 L577.63 405.38 L572.96 404.38 L573.3 403.55 L578.64 402.94 L588.81 402.56 L603.46 402.39 L622.07 402.44 L644.02 402.67 L668.55 403.05 L694.81 403.53 L721.9 404.06 L748.89 404.58 L774.86 405.04 L798.9 405.39 L820.2 405.58 L838.02 405.59 L851.75 405.38 L860.91 404.94 L865.2 404.29 L864.46 403.42 L858.73 402.38 L848.2 401.21 L833.24 399.96 L814.35 398.7 L792.2 397.49 L767.54 396.4 L741.22 395.51 L714.15 394.89 L687.26 394.58 L661.48 394.64 L637.68 395.1 L616.68 395.97 L599.22 397.25 L585.88 398.93 L577.11 400.97 L573.23 403.29 L574.36 405.84 L580.45 408.52 L591.3 411.22 L606.52 413.86 L625.6 416.3 L647.86 418.45 L672.56 420.19 L698.82 421.45 L725.76 422.13 L752.44 422.17 L777.94 421.55 L801.4 420.25 L822.01 418.28 L839.05 415.68 L851.96 412.51 L860.29 408.88 L863.75 404.89 L862.25 400.67 L855.82 396.38 L844.71 392.16 L829.29 388.18 L810.1 384.6 L787.81 381.56 L763.19 379.2 L737.08 377.63 L710.39 376.94 L684.02 377.2 L658.9 378.42 L635.87 380.61 L615.74 383.7 L599.17 387.64 L586.75 392.29 L578.88 397.53 L575.84 403.18 L577.72 409.04 L584.44 414.93 L595.77 420.62 L611.32 425.9 L630.53 430.58 L652.75 434.46 L677.2 437.38 L703.04 439.22 L729.39 439.86 L755.33 439.26 L779.97 437.4 L802.48 434.31 L822.07 430.06 L838.09 424.79 L849.99 418.63 L857.37 411.8 L859.99 404.52 L857.76 397.03 L850.77 389.59 L839.28 382.47 L823.68 375.93 L804.53 370.21 L782.48 365.54 L758.3 362.1 L732.83 360.05 L706.94 359.49 L681.52 360.48 L657.46 363.01 L635.56 367.04 L616.57 372.44 L601.15 379.07 L589.82 386.71 L582.94 395.12 L580.75 404.02 L583.31 413.1 L590.51 422.05 L602.11 430.56 L617.69 438.31 L636.71 445.01 L658.49 450.42 L682.29 454.31 L707.29 456.53 L732.62 456.96 L757.4 455.54 L780.8 452.31 L802.02 447.33 L820.32 440.76 L835.09 432.78 L845.83 423.66 L852.19 413.69 L853.96 403.21 L851.1 392.58 L843.71 382.17 L832.07 372.33 L816.58 363.43 L797.8 355.8 L776.38 349.71 L753.05 345.41 L728.64 343.08 L703.97 342.83 L679.91 344.7 L657.26 348.66 L636.82 354.61 L619.26 362.36 L605.18 371.68 L595.06 382.26 L589.23 393.75 L587.86 405.77 L591 417.91 L598.52 429.73 L610.15 440.84 L625.46 450.83 L643.93 459.33 L664.9 466.04 L687.64 470.68 L711.37 473.08 L735.28 473.11 L758.53 470.75 L780.33 466.04 L799.94 459.12 L816.7 450.19 L830.04 439.55 L839.51 427.53 L844.82 414.55 L845.79 401.03 L842.4 387.45 L834.8 374.27 L823.26 361.95 L808.19 350.94 L790.14 341.64 L769.72 334.37 L747.65 329.44 L724.7 327.02 L701.65 327.25 L679.31 330.13 L658.43 335.61 L639.72 343.51 L623.81 353.6 L611.25 365.55 L602.43 378.97 L597.66 393.4 L597.07 408.36 L600.66 423.33 L608.29 437.8 L619.68 451.25 L634.42 463.22 L651.98 473.26 L671.76 481.02 L693.05 486.19 L715.13 488.57 L737.22 488.06 L758.58 484.63 L778.46 478.37 L796.21 469.49 L811.21 458.25 L822.98 445.02 L831.11 430.24 L835.36 414.41 L835.6 398.07 L831.84 381.77 L824.23 366.09 L813.06 351.56 L798.73 338.72 L781.74 328 L762.7 319.82 L742.28 314.47 L721.17 312.16 L700.12 313.01 L679.83 317 L661.01 324.04 L644.28 333.9 L630.22 346.28 L619.29 360.75 L611.83 376.84 L608.1 394.02 L608.19 411.68 L612.08 429.23 L619.61 446.05 L630.49 461.56 L644.34 475.22 L660.66 486.53 L678.87 495.08 L698.34 500.55 L718.38 502.74 L738.32 501.54 L757.46 496.95 L775.16 489.13 L790.81 478.3 L803.9 464.82 L813.98 449.14 L820.75 431.79 L823.98 413.34 L823.59 394.43 L819.62 375.7 L812.23 357.82" opacity="0.46"/><path d="M864.3 402.7 L864.39 405.21 L859.48 407.48 L849.74 409.44 L835.5 411.04 L817.25 412.25 L795.62 413.03 L771.33 413.41 L745.24 413.39 L718.24 413.01 L691.24 412.32 L665.2 411.39 L640.98 410.27 L619.45 409.04 L601.32 407.78 L587.23 406.54 L577.67 405.39 L572.96 404.38 L573.26 403.56 L578.58 402.95 L588.72 402.56 L603.34 402.39 L621.93 402.44 L643.86 402.67 L668.37 403.05 L694.63 403.53 L721.72 404.05 L748.72 404.57 L774.7 405.04 L798.76 405.39 L820.08 405.58 L837.92 405.59 L851.68 405.38 L860.88 404.95 L865.2 404.29 L864.5 403.43 L858.8 402.39 L848.3 401.22 L833.36 399.97 L814.5 398.7 L792.36 397.49 L767.71 396.41 L741.4 395.52 L714.33 394.89 L687.44 394.58 L661.64 394.64 L637.82 395.09 L616.8 395.96 L599.31 397.24 L585.94 398.92 L577.14 400.95 L573.23 403.28 L574.32 405.82 L580.38 408.5 L591.2 411.21 L606.4 413.84 L625.45 416.29 L647.7 418.44 L672.38 420.19 L698.64 421.44 L725.58 422.13 L752.27 422.18 L777.79 421.56 L801.26 420.26 L821.89 418.29 L838.96 415.7 L851.9 412.54 L860.26 408.9 L863.76 404.91 L862.29 400.7 L855.89 396.4 L844.81 392.19 L829.41 388.2 L810.25 384.62 L787.98 381.57 L763.36 379.21 L737.26 377.64 L710.56 376.94 L684.19 377.19 L659.06 378.41 L636.01 380.59 L615.85 383.68 L599.26 387.61 L586.81 392.26 L578.91 397.49 L575.83 403.14 L577.68 409.01 L584.37 414.89 L595.67 420.58 L611.19 425.87 L630.38 430.55 L652.59 434.44 L677.03 437.37 L702.87 439.21 L729.21 439.86 L755.16 439.27 L779.82 437.42 L802.34 434.34 L821.96 430.1 L838.01 424.83 L849.94 418.68 L857.35 411.85 L860 404.57 L857.8 397.08 L850.85 389.64 L839.38 382.51 L823.81 375.96 L804.67 370.24 L782.64 365.56 L758.47 362.11 L733 360.06 L707.11 359.49 L681.69 360.46 L657.6 362.99 L635.69 367 L616.68 372.4 L601.23 379.02 L589.87 386.66 L582.96 395.06 L580.73 403.96 L583.26 413.04 L590.44 422 L602.01 430.51 L617.57 438.26 L636.56 444.98 L658.33 450.39 L682.13 454.3 L707.12 456.52 L732.45 456.96 L757.25 455.56 L780.66 452.34 L801.89 447.38 L820.21 440.81 L835.01 432.84 L845.78 423.72 L852.18 413.76 L853.98 403.29 L851.14 392.65 L843.79 382.23 L832.17 372.39 L816.71 363.48 L797.94 355.84 L776.53 349.74 L753.22 345.43 L728.8 343.09 L704.14 342.82 L680.06 344.68 L657.4 348.63 L636.94 354.56 L619.36 362.3 L605.25 371.61 L595.1 382.18 L589.24 393.67 L587.85 405.69 L590.96 417.83 L598.45 429.66 L610.05 440.77 L625.34 450.77 L643.79 459.29 L664.75 466 L687.48 470.66 L711.21 473.08 L735.12 473.13 L758.38 470.78 L780.19 466.08 L799.83 459.17 L816.61 450.26 L829.97 439.63 L839.47 427.62 L844.81 414.64 L845.8 401.13 L842.45 387.54 L834.87 374.35 L823.36 362.03 L808.31 351.01 L790.27 341.69 L769.86 334.41 L747.8 329.46 L724.85 327.03 L701.8 327.23 L679.45 330.1 L658.55 335.56 L639.83 343.45 L623.9 353.52 L611.31 365.46 L602.47 378.87 L597.67 393.3 L597.05 408.26 L600.61 423.23 L608.22 437.71 L619.59 451.17 L634.3 463.15 L651.85 473.21 L671.62 480.98 L692.9 486.17 L714.98 488.57 L737.08 488.08 L758.44 484.67 L778.34 478.43 L796.11 469.56 L811.13 458.33 L822.92 445.11 L831.08 430.34 L835.36 414.52 L835.62 398.18 L831.89 381.88 L824.3 366.18 L813.15 351.65 L798.84 338.79 L781.87 328.06 L762.84 319.86 L742.42 314.49 L721.31 312.16 L700.25 312.98 L679.96 316.96 L661.12 323.98 L644.38 333.82 L630.3 346.18 L619.34 360.64 L611.86 376.73 L608.1 393.9 L608.17 411.56 L612.03 429.11 L619.54 445.95 L630.4 461.47 L644.23 475.14 L660.54 486.47 L678.74 495.04 L698.2 500.54 L718.25 502.75 L738.19 501.56 L757.34 497 L775.05 489.2 L790.72 478.39 L803.83 464.93 L813.93 449.26 L820.72 431.91 L823.97 413.46 L823.61 394.55 L819.66 375.82 L812.3 357.93 L801.79 341.49 L788.52 327.09 L772.96 315.24 L755.67 306.36 L737.25 300.79 L718.34 298.74 L699.6 300.31 L681.66 305.47 L665.14 314.06 L650.59 325.82 L638.49 340.35 L629.25 357.18 L623.15 375.73 L620.38 395.39 L621.01 415.47 L625 435.29 L632.17 454.17 L642.26 471.43 L654.89 486.49" opacity="0.51"/><path d="M578.52 402.95 L588.62 402.56 L603.22 402.39 L621.79 402.44 L643.7 402.67 L668.2 403.05 L694.45 403.52 L721.54 404.05 L748.54 404.57 L774.53 405.03 L798.61 405.39 L819.96 405.58 L837.83 405.59 L851.62 405.38 L860.84 404.95 L865.2 404.3 L864.53 403.43 L858.86 402.4 L848.39 401.23 L833.48 399.98 L814.64 398.71 L792.52 397.5 L767.89 396.41 L741.58 395.52 L714.51 394.89 L687.61 394.58 L661.8 394.63 L637.96 395.09 L616.93 395.95 L599.4 397.23 L586 398.91 L577.18 400.94 L573.22 403.26 L574.28 405.8 L580.31 408.48 L591.1 411.19 L606.27 413.82 L625.3 416.27 L647.54 418.42 L672.21 420.18 L698.46 421.44 L725.4 422.12 L752.09 422.18 L777.63 421.57 L801.12 420.27 L821.77 418.31 L838.87 415.72 L851.84 412.56 L860.23 408.93 L863.77 404.94 L862.32 400.73 L855.96 396.43 L844.91 392.21 L829.54 388.23 L810.4 384.64 L788.14 381.59 L763.54 379.22 L737.44 377.64 L710.74 376.94 L684.36 377.19 L659.21 378.4 L636.15 380.57 L615.97 383.65 L599.35 387.58 L586.86 392.23 L578.93 397.46 L575.83 403.1 L577.64 408.97 L584.3 414.85 L595.57 420.55 L611.07 425.84 L630.24 430.52 L652.42 434.42 L676.86 437.36 L702.69 439.21 L729.04 439.87 L754.99 439.28 L779.67 437.44 L802.21 434.36 L821.85 430.13 L837.92 424.87 L849.88 418.72 L857.33 411.9 L860.01 404.62 L857.84 397.13 L850.92 389.68 L839.48 382.56 L823.93 376 L804.82 370.27 L782.8 365.58 L758.64 362.13 L733.17 360.06 L707.28 359.48 L681.85 360.45 L657.75 362.96 L635.82 366.97 L616.79 372.36 L601.31 378.97 L589.92 386.6 L582.98 395 L580.72 403.9 L583.22 412.98 L590.37 421.94 L601.91 430.45 L617.44 438.22 L636.42 444.94 L658.18 450.37 L681.96 454.28 L706.95 456.52 L732.28 456.97 L757.09 455.58 L780.51 452.37 L801.76 447.42 L820.11 440.86 L834.94 432.9 L845.74 423.79 L852.16 413.83 L853.99 403.36 L851.19 392.72 L843.86 382.3 L832.27 372.45 L816.83 363.54 L798.08 355.88 L776.69 349.77 L753.38 345.45 L728.97 343.09 L704.3 342.81 L680.21 344.65 L657.54 348.59 L637.06 354.51 L619.45 362.24 L605.33 371.54 L595.15 382.11 L589.25 393.59 L587.83 405.61 L590.91 417.75 L598.38 429.59 L609.95 440.71 L625.22 450.71 L643.65 459.24 L664.59 465.97 L687.32 470.65 L711.05 473.07 L734.96 473.14 L758.23 470.81 L780.06 466.13 L799.71 459.23 L816.51 450.33 L829.9 439.71 L839.43 427.71 L844.8 414.73 L845.82 401.22 L842.5 387.63 L834.95 374.44 L823.46 362.1 L808.43 351.07 L790.41 341.74 L770.01 334.45 L747.96 329.48 L725.01 327.03 L701.95 327.21 L679.59 330.06 L658.68 335.51 L639.94 343.38 L623.99 353.45 L611.37 365.38 L602.51 378.78 L597.67 393.2 L597.03 408.16 L600.56 423.14 L608.15 437.62 L619.49 451.09 L634.19 463.08 L651.72 473.16 L671.48 480.94 L692.76 486.15 L714.83 488.57 L736.93 488.1 L758.31 484.7 L778.22 478.49 L796 469.63 L811.05 458.42 L822.86 445.21 L831.05 430.45 L835.35 414.63 L835.64 398.28 L831.93 381.98 L824.37 366.28 L813.25 351.74 L798.95 338.86 L781.99 328.12 L762.98 319.9 L742.56 314.5 L721.46 312.16 L700.39 312.96 L680.09 316.92 L661.24 323.92 L644.48 333.74 L630.37 346.09 L619.39 360.54 L611.89 376.62 L608.11 393.78 L608.15 411.44 L611.99 429 L619.47 445.84 L630.31 461.38 L644.12 475.06 L660.42 486.41 L678.61 495 L698.07 500.52 L718.12 502.75 L738.06 501.59 L757.22 497.05 L774.94 489.27 L790.63 478.48 L803.75 465.03 L813.89 449.37 L820.7 432.03 L823.97 413.59 L823.63 394.68 L819.71 375.94 L812.36 358.04 L801.87 341.59 L788.62 327.17 L773.07 315.3 L755.79 306.4 L737.38 300.81 L718.47 298.74 L699.72 300.28 L681.78 305.42 L665.24 313.99 L650.67 325.72 L638.56 340.24 L629.29 357.05 L623.17 375.6 L620.38 395.25 L620.99 415.34 L624.95 435.17 L632.1 454.05 L642.17 471.33 L654.79 486.4 L669.5 498.73 L685.79 507.86 L703.08 513.48 L720.77 515.35 L738.24 513.4 L754.91 507.66 L770.21 498.31 L783.62 485.66 L794.7 470.11 L803.09 452.18 L808.53 432.49 L810.85 411.71 L810.01 390.53 L806.06 369.69 L799.16 349.92 L789.59 331.89 L777.68 316.25 L763.87 303.54 L748.66 294.23" opacity="0.58"/><path d="M833.94 399.97 L815.07 398.7 L792.9 397.49 L768.21 396.4 L741.83 395.5 L714.68 394.87 L687.69 394.55 L661.79 394.6 L637.87 395.05 L616.75 395.92 L599.15 397.2 L585.68 398.88 L576.8 400.91 L572.8 403.24 L573.83 405.79 L579.84 408.48 L590.63 411.19 L605.82 413.84 L624.88 416.29 L647.17 418.45 L671.9 420.21 L698.22 421.48 L725.24 422.18 L752.02 422.24 L777.64 421.63 L801.22 420.33 L821.95 418.37 L839.13 415.77 L852.16 412.61 L860.61 408.97 L864.19 404.97 L862.78 400.75 L856.43 396.44 L845.37 392.2 L829.98 388.21 L810.81 384.6 L788.5 381.54 L763.84 379.16 L737.67 377.57 L710.9 376.86 L684.43 377.1 L659.2 378.31 L636.05 380.48 L615.78 383.57 L599.09 387.5 L586.54 392.16 L578.55 397.4 L575.4 403.06 L577.19 408.94 L583.84 414.85 L595.12 420.56 L610.63 425.87 L629.83 430.58 L652.07 434.49 L676.56 437.44 L702.47 439.3 L728.89 439.97 L754.93 439.4 L779.69 437.55 L802.31 434.48 L822.04 430.24 L838.18 424.97 L850.21 418.81 L857.71 411.97 L860.43 404.67 L858.29 397.16 L851.37 389.69 L839.93 382.54 L824.36 375.96 L805.21 370.21 L783.14 365.5 L758.92 362.02 L733.39 359.94 L707.42 359.35 L681.9 360.31 L657.73 362.82 L635.71 366.83 L616.6 372.22 L601.05 378.85 L589.59 386.5 L582.6 394.92 L580.31 403.84 L582.78 412.95 L589.92 421.93 L601.47 430.48 L617.02 438.27 L636.04 445.02 L657.84 450.47 L681.69 454.41 L706.74 456.67 L732.15 457.13 L757.04 455.75 L780.55 452.54 L801.88 447.59 L820.3 441.02 L835.2 433.04 L846.06 423.91 L852.53 413.93 L854.4 403.43 L851.62 392.76 L844.3 382.3 L832.7 372.42 L817.24 363.47 L798.46 355.78 L777.01 349.64 L753.64 345.3 L729.16 342.92 L704.42 342.62 L680.26 344.46 L657.51 348.39 L636.94 354.32 L619.26 362.06 L605.07 371.38 L594.83 381.97 L588.89 393.48 L587.43 405.53 L590.5 417.71 L597.95 429.58 L609.53 440.74 L624.83 450.79 L643.29 459.35 L664.29 466.12 L687.07 470.82 L710.87 473.27 L734.85 473.35 L758.2 471.03 L780.1 466.35 L799.83 459.45 L816.7 450.53 L830.16 439.89 L839.74 427.86 L845.15 414.85 L846.21 401.3 L842.9 387.67 L835.36 374.43 L823.86 362.06 L808.81 350.98 L790.75 341.61 L770.3 334.28 L748.19 329.28 L725.18 326.8 L702.06 326.98 L679.62 329.82 L658.63 335.26 L639.82 343.14 L623.8 353.22 L611.12 365.18 L602.2 378.61 L597.33 393.07 L596.65 408.07 L600.17 423.09 L607.75 437.62 L619.11 451.15 L633.83 463.18 L651.4 473.3 L671.2 481.13 L692.53 486.37 L714.67 488.82 L736.84 488.36 L758.29 484.98 L778.27 478.76 L796.12 469.9 L811.23 458.66 L823.1 445.43 L831.34 430.63 L835.68 414.77 L836 398.38 L832.31 382.02 L824.75 366.27 L813.61 351.68 L799.29 338.75 L782.3 327.96 L763.24 319.69 L742.77 314.26 L721.6 311.89 L700.47 312.67 L680.1 316.62 L661.18 323.62 L644.36 333.46 L630.19 345.82 L619.16 360.31 L611.61 376.42 L607.79 393.63 L607.8 411.35 L611.63 428.96 L619.11 445.86 L629.96 461.45 L643.8 475.19 L660.13 486.59 L678.36 495.22 L697.87 500.78 L717.98 503.04 L737.99 501.9 L757.21 497.37 L775 489.58 L790.75 478.78 L803.93 465.31 L814.11 449.62 L820.96 432.23 L824.28 413.74 L823.96 394.78 L820.05 375.98 L812.7 358.02 L802.2 341.51 L788.92 327.03 L773.35 315.11 L756.02 306.16 L737.56 300.53 L718.6 298.43 L699.79 299.95 L681.78 305.08 L665.18 313.65 L650.56 325.4 L638.39 339.94 L629.08 356.79 L622.92 375.39 L620.09 395.09 L620.68 415.24 L624.63 435.13 L631.79 454.08 L641.87 471.42 L654.51 486.55 L669.25 498.94 L685.58 508.12 L702.91 513.78 L720.65 515.68 L738.19 513.75 L754.91 508.02 L770.27 498.67 L783.73 485.99 L794.86 470.42 L803.3 452.46 L808.77 432.72 L811.12 411.87 L810.3 390.63 L806.36 369.73 L799.46 349.88 L789.87 331.79 L777.94 316.08 L764.11 303.32 L748.86 293.95 L732.73 288.33 L716.29 286.66 L700.09 289.02 L684.71 295.36 L670.64 305.48 L658.37 319.05 L648.3 335.62 L640.74 354.63 L635.95 375.44 L634.04 397.35 L635.06 419.6 L638.95 441.43 L645.53 462.07 L654.56 480.82 L665.7 497.02 L678.55 510.1 L692.64 519.58 L707.49 525.13 L722.57 526.53" opacity="0.65"/></g>
  </g>
  <g fill="#111" fill-opacity=".46" font-family="SFMono-Regular, SF Mono, ui-monospace, monospace" font-size="9">
    <text x="896" y="407">M</text>
    <text x="719" y="227" text-anchor="middle">S</text>
    <text x="719" y="590" text-anchor="middle">NORMALIZED</text>
    <text x="41" y="772">DIFF  -21.0 DBFS</text>
    <text x="1397" y="772" text-anchor="end">CORR  0.23</text>
  </g>
</svg>
