<?xml version="1.0" encoding="UTF-8"?>
<svg xmlns="http://www.w3.org/2000/svg" width="1438" height="808" viewBox="0 0 1438 808" preserveAspectRatio="xMidYMid meet">
  <title>Entrainment 100 and 104 hertz reference signal with mid-side vectorscope</title>
  <rect width="1438" height="808" fill="#f6f5ef"/>
  <g fill="none" stroke="#111" stroke-width="1" stroke-opacity=".075" vector-effect="non-scaling-stroke"><line x1="41" y1="127" x2="1397" y2="127"/><line x1="41" y1="220" x2="1397" y2="220"/><line x1="41" y1="313" x2="1397" y2="313"/><line x1="41" y1="406" x2="1397" y2="406"/><line x1="41" y1="499" x2="1397" y2="499"/><line x1="41" y1="592" x2="1397" y2="592"/><line x1="41" y1="685" x2="1397" y2="685"/></g>
  <g fill="#111" fill-opacity=".58" font-family="SFMono-Regular, SF Mono, ui-monospace, monospace" font-size="10">
    <text x="41" y="130">L  MODEL  100 HZ</text>
    <text x="1397" y="130" text-anchor="end">R  MODEL  104 HZ</text>
  </g>
  <g fill="none" stroke="#111" vector-effect="non-scaling-stroke">
    <circle cx="719" cy="404" r="170" stroke-opacity=".18"/>
    <path d="M549 404H889M719 234V574" stroke-opacity=".11"/>
    <path d="M41 404 L43 406.83 L45 409.62 L47 412.32 L49 414.87 L51 417.21 L53 419.31 L55 421.12 L57 422.59 L59 423.7 L61 424.43 L63 424.74 L65 424.65 L67 424.13 L69 423.22 L71 421.91 L73 420.23 L75 418.21 L77 415.9 L79 413.34 L81 410.57 L83 407.65 L85 404.64 L87 401.6 L89 398.59 L91 395.67 L93 392.9 L95 390.34 L97 388.04 L99 386.04 L101 384.39 L103 383.13 L105 382.27 L107 381.85 L109 381.87 L111 382.34 L113 383.24 L115 384.56 L117 386.28 L119 388.36 L121 390.77 L123 393.46 L125 396.37 L127 399.45 L129 402.64 L131 405.86 L133 409.07 L135 412.19 L137 415.16 L139 417.93 L141 420.42 L143 422.6 L145 424.41 L147 425.83 L149 426.81 L151 427.34 L153 427.4 L155 426.99 L157 426.12 L159 424.81 L161 423.07 L163 420.94 L165 418.47 L167 415.69 L169 412.67 L171 409.47 L173 406.14 L175 402.76 L177 399.4 L179 396.11 L181 392.97 L183 390.04 L185 387.38 L187 385.05 L189 383.09 L191 381.54 L193 380.44 L195 379.8 L197 379.65 L199 379.99 L201 380.81 L203 382.09 L205 383.82 L207 385.96 L209 388.46 L211 391.28 L213 394.36 L215 397.64 L217 401.06 L219 404.54 L221 408.01 L223 411.42 L225 414.68 L227 417.73 L229 420.51 L231 422.97 L233 425.05 L235 426.71 L237 427.92 L239 428.65 L241 428.89 L243 428.63 L245 427.88 L247 426.65 L249 424.96 L251 422.86 L253 420.37 L255 417.56 L257 414.47 L259 411.17 L261 407.72 L263 404.2 L265 400.68 L267 397.22 L269 393.89 L271 390.77 L273 387.91 L275 385.38 L277 383.21 L279 381.47 L281 380.17 L283 379.35 L285 379.03 L287 379.2 L289 379.87 L291 381.02 L293 382.63 L295 384.67 L297 387.09 L299 389.85 L301 392.89 L303 396.15 L305 399.56 L307 403.05 L309 406.56 L311 410.02 L313 413.34 L315 416.48 L317 419.36 L319 421.93 L321 424.14 L323 425.94 L325 427.3 L327 428.19 L329 428.59 L331 428.51 L333 427.93 L335 426.88 L337 425.37 L339 423.43 L341 421.12 L343 418.47 L345 415.53 L347 412.37 L349 409.06 L351 405.65 L353 402.22 L355 398.83 L357 395.56 L359 392.47 L361 389.62 L363 387.06 L365 384.85 L367 383.03 L369 381.63 L371 380.69 L373 380.22 L375 380.22 L377 380.69 L379 381.64 L381 383.02 L383 384.82 L385 386.99 L387 389.49 L389 392.28 L391 395.28 L393 398.45 L395 401.72 L397 405.01 L399 408.28 L401 411.44 L403 414.44 L405 417.21 L407 419.72 L409 421.89 L411 423.7 L413 425.1 L415 426.08 L417 426.62 L419 426.69 L421 426.32 L423 425.5 L425 424.26 L427 422.62 L429 420.61 L431 418.29 L433 415.69 L435 412.88 L437 409.9 L439 406.82 L441 403.7 L443 400.61 L445 397.6 L447 394.73 L449 392.07 L451 389.66 L453 387.55 L455 385.78 L457 384.38 L459 383.39 L461 382.81 L463 382.66 L465 382.93 L467 383.62 L469 384.72 L471 386.19 L473 388.01 L475 390.13 L477 392.52 L479 395.12 L481 397.89 L483 400.75 L485 403.66 L487 406.56 L489 409.39 L491 412.1 L493 414.62 L495 416.92 L497 418.94 L499 420.65 L501 422.02 L503 423.02" stroke-opacity=".76" stroke-width="1.15"/>
    <path d="M935 388.59 L937 386.83 L939 385.43 L941 384.42 L943 383.84 L945 383.68 L947 383.97 L949 384.69 L951 385.83 L953 387.38 L955 389.3 L957 391.55 L959 394.08 L961 396.85 L963 399.79 L965 402.83 L967 405.93 L969 409 L971 411.98 L973 414.81 L975 417.42 L977 419.76 L979 421.76 L981 423.4 L983 424.62 L985 425.41 L987 425.73 L989 425.59 L991 424.97 L993 423.9 L995 422.39 L997 420.47 L999 418.18 L1001 415.58 L1003 412.7 L1005 409.63 L1007 406.41 L1009 403.12 L1011 399.84 L1013 396.63 L1015 393.56 L1017 390.71 L1019 388.12 L1021 385.87 L1023 384 L1025 382.55 L1027 381.57 L1029 381.06 L1031 381.05 L1033 381.54 L1035 382.51 L1037 383.96 L1039 385.85 L1041 388.14 L1043 390.78 L1045 393.72 L1047 396.9 L1049 400.24 L1051 403.68 L1053 407.14 L1055 410.55 L1057 413.83 L1059 416.91 L1061 419.71 L1063 422.19 L1065 424.29 L1067 425.95 L1069 427.14 L1071 427.84 L1073 428.02 L1075 427.68 L1077 426.83 L1079 425.48 L1081 423.66 L1083 421.4 L1085 418.77 L1087 415.8 L1089 412.58 L1091 409.15 L1093 405.61 L1095 402.02 L1097 398.47 L1099 395.02 L1101 391.77 L1103 388.77 L1105 386.09 L1107 383.79 L1109 381.93 L1111 380.54 L1113 379.66 L1115 379.3 L1117 379.48 L1119 380.19 L1121 381.41 L1123 383.13 L1125 385.3 L1127 387.88 L1129 390.81 L1131 394.03 L1133 397.47 L1135 401.06 L1137 404.71 L1139 408.35 L1141 411.91 L1143 415.29 L1145 418.43 L1147 421.27 L1149 423.73 L1151 425.76 L1153 427.33 L1155 428.39 L1157 428.93 L1159 428.92 L1161 428.38 L1163 427.31 L1165 425.73 L1167 423.69 L1169 421.21 L1171 418.37 L1173 415.22 L1175 411.82 L1177 408.26 L1179 404.6 L1181 400.93 L1183 397.34 L1185 393.89 L1187 390.66 L1189 387.72 L1191 385.13 L1193 382.96 L1195 381.24 L1197 380.02 L1199 379.32 L1201 379.15 L1203 379.52 L1205 380.41 L1207 381.82 L1209 383.71 L1211 386.03 L1213 388.73 L1215 391.76 L1217 395.05 L1219 398.53 L1221 402.11 L1223 405.73 L1225 409.31 L1227 412.77 L1229 416.02 L1231 419.01 L1233 421.67 L1235 423.94 L1237 425.77 L1239 427.13 L1241 427.99 L1243 428.32 L1245 428.13 L1247 427.41 L1249 426.2 L1251 424.51 L1253 422.37 L1255 419.85 L1257 417 L1259 413.87 L1261 410.54 L1263 407.08 L1265 403.57 L1267 400.08 L1269 396.68 L1271 393.46 L1273 390.47 L1275 387.79 L1277 385.47 L1279 383.56 L1281 382.1 L1283 381.11 L1285 380.63 L1287 380.65 L1289 381.17 L1291 382.19 L1293 383.67 L1295 385.58 L1297 387.89 L1299 390.53 L1301 393.45 L1303 396.58 L1305 399.86 L1307 403.21 L1309 406.56 L1311 409.84 L1313 412.98 L1315 415.91 L1317 418.57 L1319 420.9 L1321 422.85 L1323 424.38 L1325 425.47 L1327 426.09 L1329 426.23 L1331 425.89 L1333 425.08 L1335 423.81 L1337 422.13 L1339 420.07 L1341 417.67 L1343 414.99 L1345 412.09 L1347 409.03 L1349 405.88 L1351 402.71 L1353 399.59 L1355 396.58 L1357 393.74 L1359 391.15 L1361 388.85 L1363 386.89 L1365 385.31 L1367 384.15 L1369 383.42 L1371 383.14 L1373 383.31 L1375 383.92 L1377 384.97 L1379 386.41 L1381 388.23 L1383 390.37 L1385 392.8 L1387 395.45 L1389 398.27 L1391 401.19 L1393 404.15 L1395 407.09 L1397 409.94" stroke-opacity=".76" stroke-width="1.15"/>
    <g stroke-linejoin="round" stroke-linecap="round" stroke-width="1.05"><path d="M661.16 346.16 L666.78 324.61 L674.29 305.86 L683.48 290.54 L694.03 279.16 L705.61 272.11 L717.83 269.61 L730.27 271.72 L742.5 278.37 L754.09 289.3 L764.63 304.12 L773.74 322.31 L781.07 343.24 L786.36 366.17 L789.38 390.31 L790 414.82 L788.17 438.87 L783.91 461.63 L777.35 482.32 L768.68 500.24 L758.17 514.79 L746.16 525.48 L733.06 531.96 L719.31 534.02 L705.37 531.62 L691.73 524.85 L678.86 513.97 L667.22 499.36 L657.24 481.54 L649.27 461.15 L643.62 438.88 L640.51 415.52 L640.09 391.86 L642.39 368.73 L647.37 346.92 L654.89 327.16 L664.72 310.13 L676.53 296.39 L689.95 286.41 L704.53 280.51 L719.76 278.87 L735.14 281.53 L750.13 288.37 L764.21 299.15 L776.87 313.46 L787.67 330.81 L796.21 350.59 L802.16 372.09 L805.3 394.58 L805.49 417.27 L802.69 439.39 L796.96 460.19 L788.49 478.95 L777.52 495.04 L764.42 507.93 L749.62 517.18 L733.62 522.5 L716.96 523.74 L700.2 520.86 L683.94 513.99 L668.73 503.39 L655.11 489.45 L643.58 472.65 L634.54 453.6 L628.34 432.95 L625.21 411.44 L625.3 389.79 L628.63 368.76 L635.1 349.06 L644.54 331.36 L656.63 316.25 L670.98 304.25 L687.11 295.73 L704.48 290.98 L722.51 290.13 L740.57 293.19 L758.03 300.03 L774.3 310.38 L788.79 323.88 L800.99 340.04 L810.46 358.28 L816.84 377.97 L819.91 398.43 L819.51 418.94 L815.64 438.8 L808.4 457.34 L798.02 473.92 L784.83 488 L769.27 499.1 L751.85 506.87 L733.17 511.06 L713.85 511.55 L694.57 508.35 L675.98 501.61 L658.75 491.56 L643.46 478.59 L630.67 463.16 L620.84 445.81 L614.32 427.16 L611.37 407.86 L612.11 388.56 L616.54 369.94 L624.54 352.63 L635.85 337.21 L650.11 324.2 L666.84 314.02 L685.49 307 L705.42 303.36 L725.95 303.19 L746.37 306.48 L765.99 313.08 L784.11 322.75 L800.11 335.11 L813.41 349.74 L823.54 366.1 L830.13 383.63 L832.93 401.7 L831.82 419.7 L826.81 437.01 L818.06 453.04 L805.83 467.26 L790.54 479.18 L772.68 488.42 L752.87 494.69 L731.78 497.81 L710.12 497.68 L688.64 494.34 L668.08 487.94 L649.15 478.73 L632.53 467.04 L618.79 453.3 L608.43 438.01 L601.82 421.69 L599.22 404.92 L600.73 388.28 L606.32 372.35 L615.82 357.65 L628.94 344.68 L645.23 333.87 L664.14 325.57 L685.05 320.03 L707.23 317.43 L729.94 317.82 L752.38 321.15 L773.79 327.29 L793.42 335.98 L810.59 346.92 L824.69 359.69 L835.21 373.84 L841.78 388.87 L844.15 404.26 L842.23 419.47 L836.05 433.99 L825.8 447.31 L811.84 459.01 L794.6 468.69 L774.68 476.04 L752.76 480.85 L729.57 482.97 L705.91 482.36 L682.59 479.08 L660.43 473.27 L640.18 465.16 L622.56 455.05 L608.19 443.32 L597.57 430.38 L591.08 416.7 L588.98 402.76 L591.34 389.04 L598.11 376 L609.06 364.08 L623.85 353.69 L641.98 345.15 L662.83 338.73 L685.7 334.63 L709.81 332.97 L734.32 333.75 L758.41 336.93 L781.23 342.35 L801.99 349.82 L819.98 359.03 L834.56 369.65 L845.21 381.3 L851.56 393.56 L853.37 405.99 L850.56 418.18 L843.21 429.71 L831.56 440.18 L815.99 449.26 L797.03 456.66 L775.32 462.14 L751.6 465.55 L726.67 466.8 L701.39 465.88 L676.64 462.86 L653.26 457.88 L632.07 451.13 L613.8 442.88 L599.1 433.43 L588.47 423.14 L582.31 412.36 L580.82 401.48 L584.09 390.87 L592.01 380.89 L604.33 371.88 L620.62 364.13 L640.35 357.87 L662.85 353.31 L687.34 350.57 L712.99 349.7 L738.92 350.7 L764.24 353.52 L788.07 358 L809.59 363.97 L828.05 371.2 L842.81 379.4 L853.35 388.29 L859.29 397.53 L860.43 406.81 L856.7 415.8 L848.22 424.2 L835.28 431.74 L818.3 438.16 L797.87 443.28 L774.67 446.94 L749.51 449.05 L723.23 449.58 L696.75 448.53 L670.98 445.98 L646.79 442.05 L625.04 436.92 L606.47 430.78 L591.73 423.87 L581.34 416.45 L575.66 408.78 L574.9 401.15 L579.09 393.8 L588.1 387 L601.63 380.95 L619.23 375.85 L640.29 371.86 L664.1 369.07 L689.84 367.56 L716.63 367.34 L743.56 368.38 L769.68 370.61 L794.11 373.93 L816 378.17 L834.6 383.17 L849.25 388.73 L859.44 394.64 L864.82 400.69 L865.2 406.65 L860.55 412.32 L851.03 417.52 L836.95 422.08 L818.79 425.86 L797.18 428.75 L772.85 430.69 L746.63 431.63" opacity="0.06"/><path d="M690.32 288.74 L704.6 282.89 L719.55 281.23 L734.64 283.78 L749.36 290.44 L763.18 300.96 L775.63 314.97 L786.25 331.95 L794.65 351.32 L800.53 372.4 L803.65 394.46 L803.87 416.73 L801.16 438.44 L795.59 458.87 L787.3 477.3 L776.57 493.13 L763.75 505.82 L749.25 514.95 L733.56 520.22 L717.22 521.49 L700.78 518.72 L684.81 512.03 L669.87 501.68 L656.48 488.04 L645.14 471.59 L636.24 452.92 L630.11 432.68 L627.01 411.58 L627.05 390.34 L630.27 369.69 L636.58 350.34 L645.8 332.95 L657.63 318.09 L671.68 306.27 L687.49 297.86 L704.53 293.15 L722.21 292.27 L739.93 295.22 L757.07 301.88 L773.05 311.99 L787.29 325.2 L799.3 341.02 L808.62 358.89 L814.93 378.2 L817.98 398.26 L817.64 418.39 L813.89 437.89 L806.83 456.1 L796.68 472.4 L783.78 486.25 L768.54 497.18 L751.47 504.85 L733.15 509.01 L714.2 509.54 L695.28 506.45 L677.03 499.87 L660.1 490.06 L645.07 477.37 L632.49 462.26 L622.8 445.26 L616.36 426.97 L613.41 408.04 L614.09 389.1 L618.39 370.82 L626.2 353.82 L637.25 338.66 L651.21 325.85 L667.6 315.83 L685.87 308.9 L705.41 305.28 L725.55 305.07 L745.59 308.26 L764.85 314.69 L782.66 324.14 L798.39 336.24 L811.48 350.56 L821.46 366.59 L827.97 383.78 L830.77 401.51 L829.73 419.17 L824.87 436.17 L816.32 451.92 L804.37 465.89 L789.4 477.62 L771.92 486.73 L752.5 492.92 L731.82 496.01 L710.57 495.93 L689.48 492.7 L669.3 486.46 L650.71 477.45 L634.36 466.02 L620.84 452.56 L610.63 437.57 L604.1 421.57 L601.49 405.12 L602.91 388.8 L608.35 373.14 L617.62 358.7 L630.44 345.95 L646.39 335.32 L664.91 327.14 L685.4 321.67 L707.16 319.08 L729.43 319.42 L751.47 322.65 L772.49 328.64 L791.78 337.14 L808.66 347.84 L822.53 360.35 L832.9 374.22 L839.4 388.96 L841.79 404.06 L839.95 418.98 L833.95 433.24 L823.95 446.33 L810.29 457.83 L793.42 467.35 L773.91 474.6 L752.42 479.35 L729.68 481.47 L706.46 480.91 L683.58 477.72 L661.81 472.05 L641.92 464.12 L624.59 454.23 L610.44 442.74 L599.97 430.06 L593.55 416.65 L591.43 402.97 L593.69 389.5 L600.27 376.69 L610.97 364.98 L625.43 354.76 L643.18 346.36 L663.6 340.03 L686.02 335.98 L709.66 334.31 L733.71 335.05 L757.35 338.14 L779.77 343.43 L800.17 350.73 L817.86 359.75 L832.21 370.15 L842.72 381.57 L849.01 393.59 L850.84 405.79 L848.14 417.76 L840.99 429.08 L829.61 439.37 L814.39 448.3 L795.83 455.58 L774.56 460.99 L751.3 464.36 L726.85 465.61 L702.05 464.74 L677.76 461.8 L654.8 456.94 L633.97 450.34 L616.01 442.26 L601.53 433.01 L591.05 422.91 L584.94 412.34 L583.42 401.67 L586.56 391.25 L594.28 381.45 L606.3 372.6 L622.24 364.97 L641.56 358.82 L663.6 354.32 L687.61 351.6 L712.77 350.72 L738.21 351.69 L763.06 354.42 L786.47 358.8 L807.62 364.64 L825.78 371.71 L840.31 379.76 L850.71 388.47 L856.6 397.53 L857.77 406.64 L854.18 415.46 L845.92 423.72 L833.28 431.12 L816.67 437.44 L796.67 442.48 L773.94 446.09 L749.27 448.18 L723.5 448.72 L697.52 447.71 L672.21 445.23 L648.46 441.4 L627.08 436.37 L608.82 430.36 L594.3 423.59 L584.04 416.31 L578.41 408.79 L577.59 401.3 L581.64 394.09 L590.42 387.4 L603.65 381.46 L620.86 376.44 L641.48 372.51 L664.81 369.76 L690.05 368.26 L716.33 368.03 L742.74 369.03 L768.39 371.21 L792.39 374.44 L813.91 378.6 L832.2 383.49 L846.62 388.95 L856.69 394.74 L862.03 400.67 L862.47 406.52 L857.97 412.1 L848.69 417.2 L834.93 421.68 L817.17 425.4 L796.01 428.25 L772.17 430.16 L746.46 431.11 L719.78 431.08 L693.03 430.12 L667.14 428.3 L643 425.72 L621.44 422.49 L603.21 418.76 L588.94 414.67 L579.12 410.4 L574.1 406.09 L574.05 401.9 L578.98 397.98 L588.74 394.46 L602.98 391.44 L621.23 389 L642.85 387.22 L667.11 386.11 L693.18 385.68 L720.16 385.92 L747.13 386.78 L773.15 388.19 L797.33 390.08 L818.84 392.33 L836.94 394.86 L851 397.54 L860.53 400.26 L865.2 402.92 L864.85 405.42 L859.49 407.68 L849.3 409.62 L834.62 411.2 L815.96 412.37 L793.96 413.13 L769.37 413.47 L743.04 413.41 L715.87 413 L688.79 412.29 L662.75 411.33 L638.62 410.2" opacity="0.1"/><path d="M756.64 302.33 L772.55 312.35 L786.74 325.44 L798.71 341.14 L808.02 358.9 L814.34 378.08 L817.41 398.03 L817.12 418.04 L813.43 437.45 L806.46 455.58 L796.41 471.82 L783.61 485.62 L768.48 496.54 L751.52 504.21 L733.32 508.39 L714.48 508.97 L695.66 505.94 L677.5 499.45 L660.64 489.73 L645.67 477.15 L633.12 462.15 L623.44 445.27 L616.99 427.09 L614.02 408.27 L614.64 389.43 L618.87 371.24 L626.59 354.31 L637.54 339.21 L651.38 326.44 L667.65 316.43 L685.8 309.5 L705.22 305.86 L725.24 305.6 L745.18 308.73 L764.35 315.08 L782.08 324.44 L797.75 336.44 L810.81 350.65 L820.78 366.58 L827.31 383.66 L830.14 401.28 L829.16 418.86 L824.37 435.77 L815.92 451.45 L804.08 465.37 L789.23 477.07 L771.87 486.16 L752.58 492.36 L732.03 495.48 L710.9 495.44 L689.92 492.27 L669.83 486.1 L651.32 477.18 L635.03 465.84 L621.55 452.48 L611.34 437.59 L604.8 421.69 L602.15 405.34 L603.51 389.09 L608.86 373.52 L618.04 359.14 L630.75 346.43 L646.56 335.82 L664.96 327.66 L685.31 322.18 L706.93 319.57 L729.08 319.87 L751 323.04 L771.92 328.96 L791.13 337.38 L807.95 348 L821.79 360.42 L832.16 374.19 L838.67 388.84 L841.1 403.85 L839.33 418.71 L833.41 432.89 L823.52 445.93 L809.98 457.39 L793.25 466.89 L773.88 474.13 L752.53 478.89 L729.92 481.03 L706.84 480.51 L684.07 477.37 L662.41 471.77 L642.6 463.91 L625.33 454.09 L611.21 442.68 L600.75 430.09 L594.31 416.76 L592.14 403.15 L594.33 389.75 L600.82 377.01 L611.4 365.35 L625.74 355.16 L643.35 346.77 L663.63 340.46 L685.9 336.4 L709.39 334.71 L733.31 335.41 L756.83 338.45 L779.14 343.69 L799.47 350.92 L817.1 359.87 L831.42 370.2 L841.92 381.54 L848.23 393.49 L850.11 405.62 L847.49 417.53 L840.44 428.79 L829.18 439.05 L814.08 447.95 L795.66 455.21 L774.54 460.61 L751.44 463.99 L727.14 465.27 L702.48 464.43 L678.3 461.53 L655.45 456.72 L634.7 450.18 L616.8 442.16 L602.35 432.97 L591.87 422.95 L585.73 412.44 L584.16 401.82 L587.23 391.46 L594.84 381.7 L606.74 372.88 L622.55 365.28 L641.72 359.14 L663.6 354.64 L687.46 351.91 L712.46 351.02 L737.77 351.95 L762.5 354.65 L785.8 358.98 L806.86 364.77 L824.96 371.79 L839.47 379.78 L849.86 388.43 L855.79 397.45 L857.02 406.5 L853.5 415.29 L845.35 423.5 L832.84 430.88 L816.37 437.18 L796.52 442.21 L773.95 445.82 L749.44 447.92 L723.82 448.47 L697.98 447.49 L672.8 445.04 L649.15 441.25 L627.86 436.26 L609.65 430.3 L595.16 423.57 L584.9 416.34 L579.23 408.87 L578.36 401.41 L582.32 394.23 L590.99 387.58 L604.08 381.66 L621.15 376.66 L641.62 372.73 L664.79 369.98 L689.86 368.47 L715.99 368.22 L742.26 369.21 L767.79 371.35 L791.68 374.56 L813.11 378.68 L831.35 383.54 L845.75 388.95 L855.82 394.71 L861.2 400.61 L861.7 406.43 L857.29 411.98 L848.12 417.07 L834.5 421.53 L816.89 425.24 L795.88 428.08 L772.2 430 L746.66 430.95 L720.13 430.94 L693.53 430 L667.77 428.2 L643.73 425.64 L622.25 422.43 L604.07 418.73 L589.82 414.67 L580 410.42 L574.94 406.13 L574.82 401.97 L579.67 398.07 L589.3 394.56 L603.41 391.54 L621.5 389.12 L642.97 387.33 L667.07 386.22 L692.97 385.79 L719.8 386.02 L746.62 386.86 L772.51 388.26 L796.59 390.13 L818.02 392.37 L836.07 394.87 L850.11 397.54 L859.64 400.24 L864.36 402.89 L864.08 405.38 L858.81 407.63 L848.74 409.57 L834.2 411.14 L815.69 412.31 L793.85 413.07 L769.43 413.41 L743.26 413.36 L716.25 412.96 L689.32 412.26 L663.39 411.31 L639.37 410.18 L618.07 408.95 L600.24 407.68 L586.48 406.45 L577.27 405.31 L572.93 404.32 L573.6 403.51 L579.28 402.91 L589.75 402.54 L604.67 402.39 L623.51 402.45 L645.64 402.7 L670.29 403.08 L696.62 403.56 L723.71 404.09 L750.64 404.61 L776.49 405.07 L800.36 405.41 L821.43 405.59 L838.98 405.58 L852.41 405.36 L861.25 404.91 L865.2 404.23 L864.13 403.36 L858.07 402.31 L847.24 401.13 L832.01 399.88 L812.9 398.62 L790.57 397.41 L765.79 396.34 L739.42 395.47 L712.35 394.86 L685.52 394.58 L659.86 394.66 L636.24 395.15 L615.48 396.05 L598.28 397.36 L585.24 399.06 L576.81 401.11" opacity="0.16"/><path d="M820.68 366.35 L827.26 383.42 L830.14 401.05 L829.21 418.63 L824.47 435.56 L816.07 451.26 L804.27 465.21 L789.45 476.94 L772.12 486.07 L752.86 492.31 L732.31 495.47 L711.18 495.47 L690.2 492.34 L670.08 486.21 L651.54 477.33 L635.22 466.01 L621.69 452.68 L611.44 437.8 L604.84 421.91 L602.14 405.56 L603.45 389.3 L608.75 373.71 L617.88 359.31 L630.54 346.58 L646.32 335.94 L664.69 327.74 L685.02 322.23 L706.64 319.57 L728.79 319.83 L750.71 322.97 L771.66 328.85 L790.9 337.25 L807.76 347.83 L821.64 360.23 L832.06 374 L838.63 388.64 L841.11 403.65 L839.4 418.51 L833.53 432.71 L823.69 445.77 L810.2 457.25 L793.5 466.78 L774.16 474.06 L752.83 478.85 L730.23 481.03 L707.15 480.54 L684.37 477.44 L662.68 471.87 L642.84 464.03 L625.53 454.24 L611.36 442.85 L600.85 430.27 L594.35 416.94 L592.12 403.34 L594.25 389.93 L600.69 377.17 L611.22 365.49 L625.51 355.28 L643.08 346.87 L663.33 340.52 L685.58 336.43 L709.07 334.7 L733 335.37 L756.53 338.38 L778.86 343.6 L799.22 350.8 L816.9 359.73 L831.26 370.05 L841.82 381.38 L848.19 393.32 L850.14 405.46 L847.57 417.37 L840.57 428.65 L829.37 438.92 L814.32 447.84 L795.94 455.13 L774.85 460.56 L751.76 463.97 L727.47 465.27 L702.8 464.46 L678.61 461.59 L655.73 456.8 L634.95 450.28 L617 442.28 L602.5 433.11 L591.96 423.09 L585.77 412.58 L584.14 401.96 L587.14 391.59 L594.69 381.83 L606.54 372.99 L622.3 365.37 L641.43 359.2 L663.29 354.68 L687.12 351.93 L712.13 351.01 L737.43 351.92 L762.18 354.6 L785.51 358.91 L806.61 364.68 L824.76 371.69 L839.32 379.66 L849.77 388.31 L855.76 397.33 L857.05 406.38 L853.6 415.17 L845.51 423.4 L833.05 430.79 L816.63 437.11 L796.81 442.15 L774.27 445.79 L749.78 447.91 L724.17 448.48 L698.32 447.52 L673.12 445.09 L649.44 441.31 L628.11 436.34 L609.85 430.38 L595.31 423.67 L584.99 416.44 L579.26 408.97 L578.32 401.51 L582.22 394.33 L590.83 387.66 L603.87 381.73 L620.89 376.71 L641.32 372.77 L664.46 370 L689.52 368.48 L715.64 368.21 L741.92 369.18 L767.46 371.31 L791.39 374.51 L812.86 378.61 L831.14 383.47 L845.6 388.88 L855.73 394.64 L861.18 400.53 L861.74 406.36 L857.4 411.91 L848.29 417 L834.72 421.48 L817.16 425.2 L796.19 428.05 L772.54 429.98 L747.01 430.95 L720.49 430.95 L693.88 430.02 L668.09 428.23 L644.03 425.68 L622.51 422.48 L604.28 418.78 L589.97 414.73 L580.08 410.48 L574.95 406.19 L574.77 402.02 L579.55 398.12 L589.13 394.6 L603.18 391.58 L621.23 389.14 L642.65 387.35 L666.72 386.22 L692.61 385.78 L719.44 386.01 L746.27 386.84 L772.19 388.24 L796.3 390.1 L817.77 392.33 L835.87 394.84 L849.96 397.5 L859.57 400.21 L864.35 402.86 L864.13 405.35 L858.93 407.61 L848.92 409.55 L834.44 411.12 L815.98 412.3 L794.17 413.06 L769.78 413.41 L743.62 413.37 L716.61 412.97 L689.67 412.27 L663.72 411.32 L639.66 410.2 L618.32 408.97 L600.44 407.7 L586.62 406.47 L577.34 405.32 L572.93 404.33 L573.54 403.52 L579.15 402.92 L589.56 402.54 L604.42 402.39 L623.22 402.45 L645.32 402.69 L669.94 403.08 L696.25 403.56 L723.35 404.09 L750.29 404.6 L776.16 405.06 L800.07 405.4 L821.18 405.59 L838.79 405.58 L852.27 405.36 L861.18 404.91 L865.2 404.25 L864.2 403.37 L858.21 402.32 L847.43 401.15 L832.26 399.9 L813.19 398.63 L790.9 397.43 L766.14 396.35 L739.78 395.48 L712.71 394.87 L685.87 394.58 L660.18 394.66 L636.53 395.14 L615.72 396.03 L598.47 397.34 L585.37 399.04 L576.87 401.08 L573.25 403.42 L574.64 405.98 L580.99 408.66 L592.08 411.36 L607.51 413.99 L626.76 416.42 L649.17 418.54 L673.95 420.26 L700.26 421.49 L727.19 422.13 L753.82 422.15 L779.22 421.49 L802.53 420.15 L822.95 418.15 L839.78 415.51 L852.44 412.33 L860.51 408.67 L863.71 404.67 L861.94 400.44 L855.26 396.15 L843.91 391.95 L828.29 387.99 L808.93 384.43 L786.51 381.43 L761.8 379.11 L735.65 377.59 L708.97 376.95 L682.67 377.26 L657.65 378.53 L634.77 380.76 L614.82 383.9 L598.47 387.88 L586.29 392.57 L578.68 397.83 L575.9 403.49 L578.04 409.36 L585.01 415.23 L596.57 420.9" opacity="0.25"/><path d="M833.65 432.53 L823.86 445.61 L810.41 457.12 L793.75 466.68 L774.44 473.99 L753.12 478.81 L730.54 481.03 L707.45 480.58 L684.66 477.51 L662.95 471.96 L643.07 464.16 L625.73 454.39 L611.51 443.01 L600.94 430.44 L594.39 417.12 L592.1 403.52 L594.18 390.1 L600.56 377.33 L611.04 365.63 L625.29 355.39 L642.82 346.96 L663.04 340.58 L685.27 336.46 L708.75 334.7 L732.68 335.34 L756.23 338.32 L778.59 343.5 L798.98 350.69 L816.69 359.59 L831.11 369.9 L841.73 381.22 L848.15 393.16 L850.16 405.3 L847.65 417.22 L840.71 428.51 L829.56 438.8 L814.56 447.74 L796.21 455.05 L775.15 460.51 L752.08 463.94 L727.8 465.28 L703.13 464.49 L678.92 461.65 L656.01 456.88 L635.2 450.38 L617.2 442.4 L602.65 433.24 L592.06 423.23 L585.8 412.73 L584.11 402.1 L587.05 391.73 L594.54 381.95 L606.34 373.09 L622.05 365.45 L641.15 359.27 L662.97 354.72 L686.79 351.95 L711.79 351 L737.1 351.89 L761.86 354.54 L785.22 358.83 L806.36 364.59 L824.55 371.58 L839.16 379.55 L849.68 388.19 L855.73 397.2 L857.08 406.26 L853.69 415.06 L845.66 423.3 L833.25 430.7 L816.88 437.03 L797.11 442.1 L774.6 445.75 L750.12 447.9 L724.51 448.49 L698.66 447.55 L673.44 445.14 L649.74 441.37 L628.36 436.42 L610.06 430.47 L595.46 423.76 L585.08 416.54 L579.28 409.07 L578.28 401.61 L582.12 394.42 L590.67 387.74 L603.65 381.8 L620.62 376.77 L641.01 372.81 L664.13 370.03 L689.17 368.48 L715.28 368.2 L741.58 369.15 L767.14 371.27 L791.09 374.45 L812.61 378.55 L830.94 383.4 L845.46 388.8 L855.65 394.56 L861.16 400.45 L861.79 406.28 L857.51 411.84 L848.46 416.94 L834.95 421.43 L817.43 425.15 L796.5 428.03 L772.88 429.97 L747.37 430.94 L720.84 430.96 L694.22 430.04 L668.42 428.26 L644.32 425.72 L622.76 422.53 L604.48 418.84 L590.11 414.78 L580.16 410.54 L574.97 406.25 L574.72 402.08 L579.43 398.16 L588.95 394.64 L602.95 391.61 L620.95 389.17 L642.34 387.36 L666.38 386.23 L692.26 385.78 L719.08 386 L745.92 386.83 L771.86 388.21 L796 390.07 L817.52 392.3 L835.67 394.8 L849.82 397.46 L859.49 400.17 L864.34 402.82 L864.19 405.32 L859.05 407.58 L849.1 409.52 L834.67 411.11 L816.26 412.29 L794.49 413.06 L770.12 413.41 L743.98 413.37 L716.97 412.98 L690.02 412.28 L664.05 411.34 L639.96 410.21 L618.57 408.98 L600.63 407.72 L586.75 406.48 L577.42 405.34 L572.94 404.34 L573.48 403.53 L579.02 402.92 L589.37 402.55 L604.18 402.39 L622.94 402.45 L644.99 402.69 L669.59 403.07 L695.89 403.55 L722.99 404.08 L749.94 404.6 L775.84 405.05 L799.78 405.4 L820.94 405.59 L838.6 405.58 L852.14 405.37 L861.11 404.92 L865.2 404.26 L864.26 403.38 L858.34 402.34 L847.63 401.16 L832.5 399.91 L813.48 398.65 L791.22 397.44 L766.49 396.37 L740.14 395.49 L713.07 394.87 L686.22 394.58 L660.51 394.65 L636.82 395.13 L615.96 396.02 L598.66 397.32 L585.5 399.01 L576.93 401.05 L573.25 403.39 L574.57 405.94 L580.86 408.62 L591.88 411.33 L607.26 413.95 L626.47 416.39 L648.84 418.52 L673.6 420.25 L699.9 421.48 L726.83 422.13 L753.47 422.15 L778.9 421.51 L802.25 420.18 L822.71 418.18 L839.6 415.56 L852.32 412.37 L860.46 408.72 L863.72 404.72 L862.02 400.5 L855.4 396.21 L844.11 392 L828.54 388.04 L809.22 384.47 L786.84 381.46 L762.15 379.13 L736.01 377.6 L709.32 376.95 L683.01 377.24 L657.96 378.5 L635.05 380.72 L615.05 383.85 L598.65 387.82 L586.41 392.5 L578.73 397.75 L575.89 403.41 L577.96 409.28 L584.87 415.16 L596.37 420.83 L612.07 426.09 L631.41 430.74 L653.72 434.58 L678.23 437.46 L704.1 439.25 L730.43 439.85 L756.33 439.19 L780.89 437.28 L803.28 434.15 L822.74 429.86 L838.59 424.55 L850.32 418.37 L857.51 411.52 L859.93 404.22 L857.51 396.73 L850.34 389.3 L838.68 382.2 L822.93 375.69 L803.66 370.01 L781.52 365.39 L757.28 362.01 L731.79 360.02 L705.91 359.52 L680.55 360.57 L656.56 363.16 L634.78 367.24 L615.93 372.7 L600.67 379.37 L589.51 387.04 L582.82 395.47 L580.82 404.38 L583.57 413.46 L590.96 422.4 L602.72 430.87 L618.44 438.58 L637.57 445.24 L659.44 450.59 L683.29 454.41" opacity="0.37"/><path d="M775.46 460.46 L752.41 463.92 L728.13 465.28 L703.45 464.53 L679.23 461.71 L656.3 456.97 L635.45 450.49 L617.41 442.52 L602.8 433.37 L592.15 423.37 L585.84 412.87 L584.08 402.24 L586.96 391.86 L594.4 382.07 L606.14 373.2 L621.81 365.54 L640.86 359.33 L662.66 354.77 L686.46 351.97 L711.45 351 L736.77 351.86 L761.55 354.49 L784.93 358.76 L806.11 364.5 L824.35 371.48 L839.01 379.43 L849.59 388.07 L855.7 397.08 L857.12 406.14 L853.79 414.95 L845.82 423.2 L833.46 430.61 L817.14 436.96 L797.4 442.05 L774.92 445.72 L750.46 447.89 L724.86 448.5 L699 447.58 L673.76 445.18 L650.03 441.44 L628.61 436.5 L610.26 430.56 L595.61 423.86 L585.17 416.64 L579.31 409.17 L578.24 401.7 L582.01 394.51 L590.5 387.82 L603.43 381.87 L620.36 376.83 L640.71 372.85 L663.8 370.05 L688.82 368.49 L714.93 368.19 L741.23 369.13 L766.81 371.23 L790.8 374.4 L812.35 378.49 L830.74 383.32 L845.31 388.72 L855.56 394.48 L861.14 400.37 L861.83 406.2 L857.62 411.77 L848.63 416.88 L835.17 421.37 L817.7 425.11 L796.81 428 L773.21 429.95 L747.72 430.94 L721.2 430.97 L694.57 430.06 L668.75 428.3 L644.62 425.76 L623.01 422.58 L604.68 418.89 L590.26 414.84 L580.24 410.59 L574.98 406.3 L574.67 402.13 L579.32 398.21 L588.77 394.68 L602.72 391.65 L620.67 389.19 L642.02 387.38 L666.04 386.24 L691.9 385.78 L718.72 385.99 L745.57 386.81 L771.53 388.19 L795.71 390.04 L817.27 392.27 L835.47 394.77 L849.68 397.42 L859.41 400.13 L864.33 402.79 L864.25 405.29 L859.18 407.55 L849.28 409.5 L834.91 411.09 L816.54 412.28 L794.81 413.05 L770.47 413.41 L744.34 413.38 L717.33 412.99 L690.37 412.29 L664.38 411.35 L640.25 410.23 L618.82 409 L600.83 407.73 L586.89 406.5 L577.49 405.35 L572.94 404.35 L573.42 403.54 L578.9 402.93 L589.19 402.55 L603.94 402.39 L622.65 402.45 L644.67 402.68 L669.25 403.06 L695.53 403.54 L722.63 404.07 L749.59 404.59 L775.51 405.05 L799.49 405.4 L820.69 405.59 L838.4 405.59 L852.01 405.37 L861.05 404.93 L865.2 404.27 L864.33 403.4 L858.47 402.35 L847.82 401.18 L832.75 399.93 L813.77 398.66 L791.55 397.46 L766.84 396.38 L740.5 395.5 L713.43 394.88 L686.57 394.58 L660.83 394.65 L637.1 395.12 L616.2 396 L598.84 397.3 L585.62 398.98 L576.99 401.02 L573.24 403.36 L574.5 405.91 L580.72 408.59 L591.69 411.29 L607.02 413.92 L626.18 416.36 L648.52 418.5 L673.25 420.23 L699.54 421.47 L726.48 422.13 L753.13 422.16 L778.58 421.52 L801.97 420.2 L822.48 418.21 L839.42 415.6 L852.2 412.42 L860.4 408.77 L863.73 404.78 L862.09 400.56 L855.54 396.26 L844.31 392.05 L828.79 388.08 L809.52 384.51 L787.16 381.49 L762.5 379.15 L736.37 377.61 L709.68 376.95 L683.35 377.23 L658.27 378.48 L635.32 380.68 L615.28 383.8 L598.82 387.76 L586.52 392.43 L578.78 397.68 L575.87 403.33 L577.88 409.2 L584.73 415.08 L596.17 420.76 L611.82 426.03 L631.11 430.68 L653.39 434.54 L677.89 437.44 L703.75 439.24 L730.09 439.85 L755.99 439.22 L780.58 437.32 L803.01 434.2 L822.52 429.93 L838.43 424.63 L850.21 418.46 L857.46 411.61 L859.95 404.32 L857.59 396.83 L850.48 389.4 L838.88 382.29 L823.18 375.77 L803.95 370.08 L781.84 365.44 L757.62 362.04 L732.13 360.03 L706.25 359.51 L680.87 360.54 L656.86 363.11 L635.04 367.17 L616.15 372.61 L600.83 379.27 L589.61 386.93 L582.86 395.36 L580.8 404.26 L583.48 413.34 L590.81 422.28 L602.52 430.77 L618.19 438.49 L637.28 445.16 L659.12 450.53 L682.96 454.38 L707.97 456.55 L733.28 456.93 L758.04 455.46 L781.38 452.18 L802.52 447.16 L820.73 440.55 L835.39 432.54 L846.02 423.4 L852.26 413.42 L853.91 402.93 L850.92 392.3 L843.42 381.9 L831.67 372.09 L816.09 363.22 L797.24 355.63 L775.76 349.59 L752.4 345.34 L727.98 343.07 L703.33 342.87 L679.29 344.8 L656.71 348.81 L636.33 354.81 L618.87 362.6 L604.9 371.95 L594.89 382.56 L589.17 394.07 L587.93 406.09 L591.19 418.22 L598.82 430.03 L610.54 441.11 L625.95 451.06 L644.48 459.52 L665.5 466.17 L688.27 470.76 L712.02 473.09 L735.9 473.06 L759.12 470.63 L780.86 465.86" opacity="0.51"/><path d="M674.08 445.23 L650.32 441.5 L628.87 436.58 L610.47 430.65 L595.76 423.96 L585.26 416.74 L579.33 409.27 L578.2 401.8 L581.91 394.6 L590.34 387.91 L603.21 381.94 L620.09 376.88 L640.41 372.89 L663.46 370.07 L688.47 368.5 L714.58 368.18 L740.89 369.1 L766.49 371.19 L790.5 374.35 L812.1 378.42 L830.53 383.25 L845.16 388.65 L855.48 394.4 L861.11 400.29 L861.88 406.13 L857.73 411.7 L848.8 416.82 L835.4 421.32 L817.97 425.07 L797.12 427.97 L773.55 429.94 L748.07 430.94 L721.56 430.98 L694.92 430.08 L669.08 428.33 L644.91 425.8 L623.27 422.63 L604.88 418.94 L590.4 414.9 L580.32 410.65 L575 406.36 L574.62 402.18 L579.2 398.26 L588.6 394.73 L602.48 391.68 L620.39 389.22 L641.7 387.4 L665.7 386.25 L691.54 385.78 L718.36 385.98 L745.22 386.79 L771.2 388.16 L795.41 390.01 L817.02 392.23 L835.27 394.73 L849.54 397.39 L859.34 400.1 L864.32 402.75 L864.3 405.26 L859.3 407.52 L849.47 409.48 L835.15 411.07 L816.83 412.26 L795.13 413.04 L770.81 413.41 L744.7 413.38 L717.69 413 L690.72 412.3 L664.7 411.37 L640.54 410.25 L619.07 409.02 L601.03 407.75 L587.03 406.51 L577.56 405.37 L572.95 404.37 L573.36 403.55 L578.77 402.94 L589 402.55 L603.7 402.39 L622.36 402.44 L644.35 402.68 L668.9 403.06 L695.17 403.54 L722.26 404.06 L749.24 404.58 L775.19 405.04 L799.19 405.39 L820.45 405.59 L838.21 405.59 L851.88 405.38 L860.98 404.94 L865.2 404.28 L864.4 403.41 L858.6 402.37 L848.01 401.19 L832.99 399.94 L814.06 398.68 L791.87 397.47 L767.19 396.39 L740.86 395.5 L713.79 394.88 L686.91 394.58 L661.15 394.64 L637.39 395.11 L616.44 395.98 L599.03 397.28 L585.75 398.96 L577.05 400.99 L573.24 403.32 L574.43 405.87 L580.58 408.55 L591.49 411.26 L606.77 413.89 L625.89 416.33 L648.19 418.47 L672.91 420.21 L699.18 421.46 L726.12 422.13 L752.78 422.17 L778.26 421.54 L801.68 420.23 L822.24 418.25 L839.24 415.64 L852.08 412.47 L860.34 408.83 L863.74 404.83 L862.17 400.61 L855.68 396.32 L844.51 392.11 L829.04 388.13 L809.81 384.56 L787.49 381.53 L762.84 379.18 L736.72 377.62 L710.03 376.95 L683.69 377.21 L658.59 378.45 L635.6 380.64 L615.51 383.75 L599 387.7 L586.63 392.36 L578.83 397.6 L575.86 403.25 L577.8 409.12 L584.58 415 L595.97 420.69 L611.57 425.97 L630.82 430.63 L653.07 434.5 L677.54 437.41 L703.4 439.23 L729.74 439.86 L755.66 439.24 L780.28 437.36 L802.74 434.25 L822.29 430 L838.26 424.71 L850.1 418.55 L857.42 411.71 L859.97 404.42 L857.68 396.93 L850.63 389.49 L839.08 382.38 L823.43 375.85 L804.24 370.14 L782.16 365.49 L757.96 362.07 L732.48 360.04 L706.6 359.5 L681.2 360.51 L657.16 363.06 L635.3 367.11 L616.36 372.53 L600.99 379.17 L589.71 386.82 L582.9 395.24 L580.77 404.14 L583.39 413.22 L590.66 422.17 L602.31 430.66 L617.94 438.4 L636.99 445.09 L658.81 450.48 L682.63 454.35 L707.63 456.54 L732.95 456.94 L757.72 455.5 L781.09 452.25 L802.27 447.25 L820.52 440.65 L835.24 432.66 L845.93 423.53 L852.23 413.55 L853.93 403.07 L851.01 392.44 L843.56 382.03 L831.87 372.21 L816.34 363.33 L797.52 355.71 L776.07 349.65 L752.73 345.38 L728.31 343.07 L703.65 342.85 L679.6 344.75 L656.99 348.74 L636.58 354.71 L619.06 362.48 L605.04 371.82 L594.97 382.41 L589.2 393.91 L587.9 405.93 L591.1 418.06 L598.67 429.88 L610.35 440.98 L625.7 450.95 L644.2 459.43 L665.2 466.1 L687.96 470.72 L711.69 473.08 L735.59 473.09 L758.82 470.69 L780.6 465.95 L800.17 459 L816.88 450.05 L830.17 439.39 L839.59 427.36 L844.84 414.37 L845.75 400.85 L842.31 387.27 L834.65 374.1 L823.06 361.8 L807.96 350.82 L789.87 341.53 L769.42 334.3 L747.34 329.4 L724.39 327.02 L701.35 327.28 L679.02 330.2 L658.17 335.71 L639.5 343.64 L623.64 353.76 L611.12 365.73 L602.36 379.16 L597.64 393.6 L597.11 408.56 L600.75 423.52 L608.44 437.98 L619.87 451.42 L634.65 463.36 L652.25 473.37 L672.04 481.09 L693.35 486.23 L715.42 488.57 L737.51 488.02 L758.85 484.55 L778.71 478.26 L796.42 469.34 L811.38 458.07 L823.09 444.82 L831.18 430.03" opacity="0.67"/></g>
  </g>
  <g fill="#111" fill-opacity=".46" font-family="SFMono-Regular, SF Mono, ui-monospace, monospace" font-size="9">
    <text x="896" y="407">M</text>
    <text x="719" y="227" text-anchor="middle">S</text>
    <text x="719" y="590" text-anchor="middle">NORMALIZED</text>
  </g>
</svg>
