<?xml version="1.0" encoding="UTF-8"?>
<svg xmlns="http://www.w3.org/2000/svg" width="1438" height="808" viewBox="0 0 1438 808" preserveAspectRatio="xMidYMid meet" data-state="playing">
  <title>Entrainment Figure 3B program playing with live PCM telemetry</title>
  <desc>Deterministic vector snapshot of the active three-pair stereo carriers, differential amplitude contours, filtered pink layer, and fading mid-side vectorscope history.</desc>
  <rect width="1438" height="808" fill="#f6f5ef"/>
  <g fill="none" stroke="#111" stroke-width="1" stroke-opacity=".075" vector-effect="non-scaling-stroke"><line x1="41" y1="127" x2="1397" y2="127"/><line x1="41" y1="220" x2="1397" y2="220"/><line x1="41" y1="313" x2="1397" y2="313"/><line x1="41" y1="406" x2="1397" y2="406"/><line x1="41" y1="499" x2="1397" y2="499"/><line x1="41" y1="592" x2="1397" y2="592"/><line x1="41" y1="685" x2="1397" y2="685"/></g>
  <g fill="#111" fill-opacity=".58" font-family="SFMono-Regular, SF Mono, ui-monospace, monospace" font-size="10">
    <text x="41" y="130">L  LIVE  -23.1 DBFS</text>
    <text x="1397" y="130" text-anchor="end">R  LIVE  -22.7 DBFS</text>
  </g>
  <g fill="none" stroke="#111" vector-effect="non-scaling-stroke">
    <circle cx="719" cy="404" r="170" stroke-opacity=".18"/>
    <path d="M549 404H889M719 234V574" stroke-opacity=".11"/>
    <path d="M41 398.43 L43 399.09 L45 400.16 L47 401.54 L49 403.12 L51 404.51 L53 406.05 L55 407.45 L57 408.74 L59 409.51 L61 409.84 L63 409.58 L65 409.33 L67 408.5 L69 407.78 L71 406.52 L73 405.89 L75 405.4 L77 405.14 L79 405.18 L81 405.87 L83 406.72 L85 407.98 L87 409.3 L89 410.77 L91 412.04 L93 412.55 L95 412.86 L97 411.96 L99 410.52 L101 408.31 L103 405.36 L105 401.81 L107 397.99 L109 393.76 L111 390.01 L113 386.76 L115 384.25 L117 382.77 L119 382.48 L121 383.35 L123 385.57 L125 388.75 L127 393 L129 398.15 L131 404.07 L133 409.61 L135 414.46 L137 419.28 L139 422.97 L141 425.45 L143 426.74 L145 426.68 L147 425.53 L149 422.92 L151 419.62 L153 415.83 L155 411.74 L157 407.51 L159 403.72 L161 400.25 L163 397.85 L165 395.91 L167 394.75 L169 394.46 L171 395.21 L173 396.24 L175 397.36 L177 398.88 L179 400.06 L181 401.42 L183 402.15 L185 402.6 L187 402.32 L189 401.85 L191 401.28 L193 400.47 L195 399.58 L197 399.23 L199 398.55 L201 398.33 L203 398.71 L205 399.27 L207 400.29 L209 401.56 L211 403.12 L213 404.78 L215 406.35 L217 407.78 L219 408.92 L221 409.59 L223 410.12 L225 409.81 L227 409.32 L229 408.36 L231 407.51 L233 406.73 L235 405.94 L237 405.71 L239 405.47 L241 406.32 L243 407.51 L245 408.68 L247 409.92 L249 411.31 L251 412.74 L253 413.61 L255 413.9 L257 413.51 L259 412.31 L261 410.39 L263 407.44 L265 403.65 L267 399.96 L269 395.58 L271 390.99 L273 387.03 L275 383.33 L277 380.95 L279 379.75 L281 379.94 L283 381.51 L285 384.2 L287 388.51 L289 393.25 L291 399.05 L293 405.08 L295 411.16 L297 416.74 L299 421.11 L301 424.81 L303 427.08 L305 428.29 L307 428.14 L309 426.55 L311 423.74 L313 420.04 L315 415.82 L317 411.56 L319 407.42 L321 403.24 L323 400.09 L325 397.23 L327 395.13 L329 394.46 L331 394.15 L333 394.76 L335 395.66 L337 397.2 L339 398.54 L341 399.91 L343 401.26 L345 401.83 L347 402.39 L349 402.19 L351 401.68 L353 401.27 L355 400.76 L357 400 L359 399.43 L361 398.93 L363 398.88 L365 399.25 L367 399.8 L369 400.98 L371 402.27 L373 403.72 L375 405.2 L377 406.6 L379 407.73 L381 408.25 L383 408.91 L385 409.15 L387 409.01 L389 408.17 L391 407.64 L393 407.08 L395 406.45 L397 405.89 L399 405.82 L401 405.88 L403 406.58 L405 407.62 L407 408.78 L409 410.22 L411 411.65 L413 412.27 L415 413.07 L417 413.22 L419 412.48 L421 411.23 L423 409.07 L425 406.3 L427 402.71 L429 398.83 L431 394.64 L433 391.14 L435 387.79 L437 384.84 L439 382.93 L441 382.17 L443 382.51 L445 384.29 L447 387.05 L449 391.29 L451 396.04 L453 400.7 L455 405.92 L457 411.33 L459 416.14 L461 419.91 L463 422.69 L465 424.65 L467 425.21 L469 424.78 L471 422.97 L473 420.45 L475 417.16 L477 413.37 L479 409.56 L481 405.97 L483 402.73 L485 399.87 L487 397.75 L489 396.43 L491 395.82 L493 395.79 L495 396.32 L497 397.35 L499 398.48 L501 399.75 L503 400.96" stroke-opacity=".76" stroke-width="1.15"/>
    <path d="M935 418.74 L937 418.22 L939 416.53 L941 413.94 L943 410.73 L945 406.87 L947 403.93 L949 400.93 L951 398.92 L953 397.66 L955 397.41 L957 397.81 L959 399.77 L961 402.06 L963 405.27 L965 407.88 L967 410.74 L969 413.38 L971 415.13 L973 415.75 L975 415.67 L977 414.51 L979 412.38 L981 409.31 L983 405.93 L985 402.35 L987 398.71 L989 395.48 L991 392.12 L993 389.95 L995 388.74 L997 388.03 L999 388.5 L1001 389.97 L1003 391.64 L1005 394.18 L1007 396.28 L1009 399.08 L1011 401.76 L1013 404.12 L1015 405.9 L1017 407.37 L1019 408.56 L1021 409.3 L1023 410.08 L1025 411.34 L1027 412.01 L1029 412.88 L1031 414.14 L1033 415.28 L1035 416.44 L1037 417.73 L1039 418.62 L1041 419.44 L1043 419.21 L1045 418.56 L1047 417.25 L1049 414.7 L1051 411.46 L1053 407.67 L1055 402.97 L1057 398.45 L1059 393.61 L1061 388.83 L1063 384.78 L1065 382.23 L1067 380.53 L1069 380.05 L1071 381.16 L1073 383.25 L1075 387.25 L1077 391.81 L1079 396.75 L1081 401.91 L1083 407.22 L1085 412.25 L1087 416.26 L1089 418.99 L1091 420.79 L1093 420.61 L1095 419.23 L1097 416.96 L1099 413.44 L1101 410.04 L1103 405.94 L1105 402.23 L1107 399.18 L1109 397.07 L1111 396.39 L1113 396.61 L1115 397.89 L1117 400.65 L1119 403.52 L1121 406.68 L1123 409.98 L1125 413.33 L1127 416.11 L1129 417.69 L1131 418.5 L1133 417.68 L1135 416.66 L1137 414.42 L1139 410.77 L1141 406.91 L1143 402.37 L1145 398.19 L1147 394.1 L1149 390.65 L1151 388.23 L1153 386.55 L1155 386.16 L1157 386.49 L1159 387.5 L1161 389.35 L1163 391.78 L1165 394.14 L1167 396.97 L1169 399.07 L1171 401.45 L1173 403.22 L1175 405.2 L1177 406.85 L1179 407.94 L1181 409.51 L1183 410.88 L1185 412.37 L1187 413.82 L1189 415.58 L1191 417.34 L1193 418.89 L1195 420.31 L1197 421.14 L1199 421.93 L1201 422.07 L1203 420.96 L1205 418.86 L1207 415.79 L1209 411.92 L1211 407.65 L1213 402.83 L1215 397.39 L1217 392.75 L1219 387.88 L1221 383.68 L1223 381.55 L1225 379.93 L1227 380.1 L1229 381.37 L1231 384.5 L1233 388.08 L1235 392.8 L1237 398.33 L1239 403.3 L1241 408.55 L1243 412.56 L1245 415.31 L1247 417.81 L1249 419.02 L1251 418.54 L1253 416.95 L1255 414.34 L1257 411.1 L1259 407.57 L1261 403.75 L1263 400.79 L1265 398.7 L1267 397.15 L1269 396.67 L1271 397.38 L1273 399.07 L1275 401.02 L1277 404.44 L1279 408.11 L1281 411.72 L1283 414.3 L1285 416.66 L1287 418.48 L1289 419 L1291 418.16 L1293 416.52 L1295 413.86 L1297 410.61 L1299 406.82 L1301 402.62 L1303 398.74 L1305 395.78 L1307 391.96 L1309 389.82 L1311 388.42 L1313 387.66 L1315 387.85 L1317 388.73 L1319 390.37 L1321 392.08 L1323 394.19 L1325 396.1 L1327 398.08 L1329 400.25 L1331 401.78 L1333 403.27 L1335 404.65 L1337 405.77 L1339 407.33 L1341 408.64 L1343 410.75 L1345 412.55 L1347 414.12 L1349 415.77 L1351 417.83 L1353 419.47 L1355 420.3 L1357 420.89 L1359 420.86 L1361 419.74 L1363 418.07 L1365 415.11 L1367 411.65 L1369 407.5 L1371 402.86 L1373 398.32 L1375 394.14 L1377 390.31 L1379 387.14 L1381 385.03 L1383 384.19 L1385 384.53 L1387 385.8 L1389 388.27 L1391 391.78 L1393 395.71 L1395 400.05 L1397 404.42" stroke-opacity=".76" stroke-width="1.15"/>
    <g stroke-linejoin="round" stroke-linecap="round" stroke-width="1.05"><path d="M717.38 412.25 L713.75 400.34 L702.51 387.65 L687.37 376.38 L670.22 367.44 L648.6 360.96 L634.72 358.65 L626.26 360.17 L626.69 365.66 L637.17 374.76 L656.44 385.93 L684.17 399.7 L718.41 414.32 L752.9 428.1 L782.64 439.58 L806.36 447.87 L820.12 451.95 L822.54 451.36 L814.7 446.22 L793.94 436.48 L770.38 424.72 L742.54 410.12 L717.1 395.07 L696.71 380.92 L684.23 369.08 L685.83 361.26 L692.49 357.11 L710.31 357.92 L729.02 362.64 L749.12 371.25 L762.85 381.62 L771.66 394.61 L770.16 408.1 L756.03 420.7 L731.13 431.46 L698.14 439.55 L660.84 444.34 L628.32 446.07 L602.12 444.3 L586.97 439.34 L584.35 432.12 L595.95 422.26 L622.92 411.12 L659.66 399.19 L702.2 387.41 L745.89 376.75 L786.82 368.28 L818.71 362.6 L837.5 360.23 L844.28 361.91 L839.88 367.16 L821.98 376.08 L800.27 388.57 L773.2 402.9 L749.14 418.25 L727.36 432.54 L712.37 444.45 L704.57 452.49 L703.86 455.61 L707.32 453.09 L711.75 445.68 L715.03 432.87 L715.42 416.49 L709.41 398.07 L697.99 379.92 L682.29 364.2 L659.37 352.2 L641.81 346.58 L627.13 347.35 L618.99 354.54 L620.82 366.43 L632.17 383.19 L654.8 402.32 L686.57 421.54 L721.46 438.24 L755.23 450.53 L785.67 457.36 L809.13 458.19 L820.76 452.99 L818.5 442.59 L807.16 429.98 L785.03 414.67 L760.34 400 L730.39 386.77 L703.58 376.75 L686.57 371.02 L678.56 369.21 L679.7 370.72 L694.16 375.3 L713.21 381.01 L736.83 387.02 L758.93 392.66 L775.98 397.23 L782.7 400.38 L778.9 402.62 L762.39 404.3 L735.37 406.19 L701.25 408.95 L662.24 412.66 L625.39 417.56 L597.59 422.81 L578.32 428.39 L572.8 432.83 L583.6 435.14 L608.51 434.17 L647.17 429.61 L689.12 420.62 L734.39 408.49 L776.38 394.32 L811.12 379.97 L834.65 368.38 L844.97 359.15 L843.17 355.35 L830.93 358.01 L807.76 366.8 L783.16 381.63 L760.53 400.7 L738.45 420.91 L723.26 439.95 L711.97 454.49 L709.53 462.55 L707.98 463.11 L708.47 455.24 L709.12 439.77 L705.92 418.36 L695.83 393.64 L684.84 369.76 L671.04 349.74 L654.93 336.3 L639.61 331.52 L629.92 335.71 L625.74 348.91 L632.12 369.69 L646.26 394.83 L669.35 421.16 L697.6 444.93 L731.18 463.43 L760.66 473.63 L785.47 474.87 L803.26 467.44 L812.24 454.14 L807.83 434.5 L796.88 413.25 L775.08 392.66 L749.65 375.99 L727.12 365.59 L706.77 361.77 L693.3 364.47 L690.21 372.6 L694.36 383.58 L707.27 394.63 L727.35 405.04 L750.79 412.05 L769.66 414.03 L785.35 411.57 L790.08 404.95 L783.29 396.06 L765.36 387.23 L736.14 380.53 L701.79 378.28 L666.97 380.96 L631.13 389.2 L601.51 402.11 L581.91 417.84 L576.15 434 L585.32 447.8 L608.37 456.62 L642.49 458.52 L680.87 452.26 L720.42 438.44 L759.96 421.08 L792.97 398.85 L818.96 376.99 L833.45 358.58 L839.19 347.04 L834.95 344.13 L820.98 350.33 L803.02 365.31 L783.62 386.87 L763.09 411.43 L745.45 433.62 L729.44 453.25 L721.22 465.83 L711.5 467.98 L703.75 459.61 L697.8 441.85 L688.18 416.6 L678.06 388.04 L664.38 360.07 L653.74 337.71 L643.31 324.51 L635.42 320.93 L632.86 329.13 L636.31 348.03 L648.92 375.36 L665.08 406.56 L685.98 437.51 L711.54 464.07 L737.98 482.43 L759.9 489.86 L775.82 486.54 L788.73 473.18 L791.85 451.45 L786.46 425.1 L772.01 397.98 L756.44 374.9 L736.86 358.31 L721.97 351 L709.1 352.66 L702.01 362.43 L700.79 376.51 L706.09 394.12 L720.04 411.15 L738.95 424.13 L756.78 430.24 L771.58 428.54 L781.25 419.54 L782.13 404.84 L774.07 387.47 L753.64 370.42 L729.51 358.51 L701.45 352.73 L668.71 355.13 L638.14 366.4 L612.87 385.17 L596.23 408.86 L588.63 433.64 L593.91 455.96 L610.84 472.09 L635.71 478.99 L666.28 476.32 L700.33 463.35 L735.81 442.22 L768.52 415.98 L796.71 388.79 L817.17 364.72 L830.36 347.72 L834.81 340.24 L831.86 343.48 L823.06 356.8 L810.24 376.1 L793.29 401.04 L774.32 426.07 L754.08 446.78 L733.61 459.53 L717.23 462.43 L698.59 453.86 L680.49 435.27 L665.08 409.7 L652.89 381.19 L644.97 356.11 L639.6 334.68 L637.37 322.5 L640.46 322.06 L648.23 333.7 L660.38 355.97 L676.09 385.77 L694.76 418.89 L713.97 450.4 L731.24 475.64" opacity="0.03"/><path d="M793.94 436.48 L770.38 424.72 L742.54 410.12 L717.1 395.07 L696.71 380.92 L684.23 369.08 L685.83 361.26 L692.49 357.11 L710.31 357.92 L729.02 362.64 L748.07 370.57 L762.85 381.62 L771.66 394.61 L770.16 408.1 L756.03 420.7 L731.13 431.46 L698.14 439.55 L660.84 444.34 L628.32 446.07 L602.12 444.3 L587.45 439.77 L584.35 432.12 L595.95 422.26 L622.92 411.12 L659.66 399.19 L702.2 387.41 L745.89 376.75 L786.82 368.28 L818.71 362.6 L837.5 360.23 L844.01 361.63 L839.88 367.16 L821.98 376.08 L800.27 388.57 L773.2 402.9 L749.14 418.25 L727.36 432.54 L712.37 444.45 L704.57 452.49 L703.86 455.61 L706.87 453.44 L711.75 445.68 L715.03 432.87 L715.42 416.49 L709.41 398.07 L697.99 379.92 L682.29 364.2 L659.37 352.2 L641.81 346.58 L627.13 347.35 L619.47 353.85 L620.82 366.43 L632.17 383.19 L654.8 402.32 L686.57 421.54 L721.46 438.24 L755.23 450.53 L785.67 457.36 L809.13 458.19 L820.76 452.99 L819.32 443.5 L807.16 429.98 L785.03 414.67 L760.34 400 L730.39 386.77 L703.58 376.75 L686.57 371.02 L678.56 369.21 L679.7 370.72 L694.16 375.3 L711.68 380.58 L736.83 387.02 L758.93 392.66 L775.98 397.23 L782.7 400.38 L778.9 402.62 L762.39 404.3 L735.37 406.19 L701.25 408.95 L662.24 412.66 L627.52 417.14 L597.59 422.81 L578.32 428.39 L572.8 432.83 L583.6 435.14 L608.51 434.17 L647.17 429.61 L689.12 420.62 L734.39 408.49 L776.38 394.32 L808.59 380.91 L834.65 368.38 L844.97 359.15 L843.17 355.35 L830.93 358.01 L807.76 366.8 L783.16 381.63 L760.53 400.7 L738.45 420.91 L723.26 439.95 L712.06 453.58 L709.53 462.55 L707.98 463.11 L708.47 455.24 L709.12 439.77 L705.92 418.36 L695.83 393.64 L684.84 369.76 L671.04 349.74 L654.93 336.3 L640.53 331.54 L629.92 335.71 L625.74 348.91 L632.12 369.69 L646.26 394.83 L669.35 421.16 L697.6 444.93 L731.18 463.43 L760.66 473.63 L785.47 474.87 L802.31 468.24 L812.24 454.14 L807.83 434.5 L796.88 413.25 L775.08 392.66 L749.65 375.99 L727.12 365.59 L706.77 361.77 L693.3 364.47 L690.21 372.6 L693.55 382.71 L707.27 394.63 L727.35 405.04 L750.79 412.05 L769.66 414.03 L785.35 411.57 L790.08 404.95 L783.29 396.06 L765.36 387.23 L736.14 380.53 L704.13 378.24 L666.97 380.96 L631.13 389.2 L601.51 402.11 L581.91 417.84 L576.15 434 L585.32 447.8 L608.37 456.62 L642.49 458.52 L680.87 452.26 L717.77 439.66 L759.96 421.08 L792.97 398.85 L818.96 376.99 L833.45 358.58 L839.19 347.04 L834.95 344.13 L820.98 350.33 L803.02 365.31 L783.62 386.87 L764.53 409.65 L745.45 433.62 L729.44 453.25 L721.22 465.83 L711.5 467.98 L703.75 459.61 L697.8 441.85 L688.18 416.6 L678.06 388.04 L664.38 360.07 L654.92 339.12 L643.31 324.51 L635.42 320.93 L632.86 329.13 L636.31 348.03 L648.92 375.36 L665.08 406.56 L685.98 437.51 L711.54 464.07 L737.98 482.43 L757.94 489.63 L775.82 486.54 L788.73 473.18 L791.85 451.45 L786.46 425.1 L772.01 397.98 L756.44 374.9 L736.86 358.31 L721.97 351 L709.1 352.66 L701.96 361.46 L700.79 376.51 L706.09 394.12 L720.04 411.15 L738.95 424.13 L756.78 430.24 L771.58 428.54 L781.25 419.54 L782.13 404.84 L774.07 387.47 L755.63 371.57 L729.51 358.51 L701.45 352.73 L668.71 355.13 L638.14 366.4 L612.87 385.17 L596.23 408.86 L588.63 433.64 L593.91 455.96 L610.84 472.09 L633.96 478.87 L666.28 476.32 L700.33 463.35 L735.81 442.22 L768.52 415.98 L796.71 388.79 L817.17 364.72 L830.36 347.72 L834.81 340.24 L831.86 343.48 L823.63 355.52 L810.24 376.1 L793.29 401.04 L774.32 426.07 L754.08 446.78 L733.61 459.53 L717.23 462.43 L698.59 453.86 L680.49 435.27 L665.08 409.7 L653.55 383.22 L644.97 356.11 L639.6 334.68 L637.37 322.5 L640.46 322.06 L648.23 333.7 L660.38 355.97 L676.09 385.77 L694.76 418.89 L713.97 450.4 L729.86 474.1 L747.06 490.73 L758.51 495.41 L768.16 488.44 L771.47 470.7 L769.59 445.38 L762.41 416.45 L751.31 388.43 L740.5 365.84 L728.51 351.4 L721.01 347.22 L717.29 352.54 L717.19 366.2 L724.16 385.64 L732.46 406.3 L744.09 424.57 L757.31 436.94 L767.64 440.69 L774.05 435.08 L776.64 421.21" opacity="0.03"/><path d="M602.12 444.3 L587.45 439.77 L584.35 432.12 L595.95 422.26 L622.92 411.12 L659.66 399.19 L702.2 387.41 L745.89 376.75 L786.82 368.28 L818.71 362.6 L836.44 360.25 L844.01 361.63 L839.88 367.16 L821.98 376.08 L800.27 388.57 L773.2 402.9 L749.14 418.25 L727.36 432.54 L712.37 444.45 L704.57 452.49 L703.67 455.56 L706.87 453.44 L711.75 445.68 L715.03 432.87 L715.42 416.49 L709.41 398.07 L697.99 379.92 L682.29 364.2 L659.37 352.2 L641.81 346.58 L627.95 347.07 L619.47 353.85 L620.82 366.43 L632.17 383.19 L654.8 402.32 L686.57 421.54 L721.46 438.24 L755.23 450.53 L785.67 457.36 L809.13 458.19 L820.06 453.51 L819.32 443.5 L807.16 429.98 L785.03 414.67 L760.34 400 L730.39 386.77 L703.58 376.75 L686.57 371.02 L678.56 369.21 L679.7 370.72 L693.22 374.96 L711.68 380.58 L736.83 387.02 L758.93 392.66 L775.98 397.23 L782.7 400.38 L778.9 402.62 L762.39 404.3 L735.37 406.19 L701.25 408.95 L664.78 412.32 L627.52 417.14 L597.59 422.81 L578.32 428.39 L572.8 432.83 L583.6 435.14 L608.51 434.17 L647.17 429.61 L689.12 420.62 L734.39 408.49 L773.52 395.36 L808.59 380.91 L834.65 368.38 L844.97 359.15 L843.17 355.35 L830.93 358.01 L807.76 366.8 L783.16 381.63 L760.53 400.7 L738.45 420.91 L723.92 438.66 L712.06 453.58 L709.53 462.55 L707.98 463.11 L708.47 455.24 L709.12 439.77 L705.92 418.36 L695.83 393.64 L684.84 369.76 L671.04 349.74 L655.93 336.97 L640.53 331.54 L629.92 335.71 L625.74 348.91 L632.12 369.69 L646.26 394.83 L669.35 421.16 L697.6 444.93 L731.18 463.43 L760.66 473.63 L783.74 475.05 L802.31 468.24 L812.24 454.14 L807.83 434.5 L796.88 413.25 L775.08 392.66 L749.65 375.99 L727.12 365.59 L706.77 361.77 L693.3 364.47 L689.64 371.82 L693.55 382.71 L707.27 394.63 L727.35 405.04 L750.79 412.05 L769.66 414.03 L785.35 411.57 L790.08 404.95 L783.29 396.06 L765.36 387.23 L738.76 380.92 L704.13 378.24 L666.97 380.96 L631.13 389.2 L601.51 402.11 L581.91 417.84 L576.15 434 L585.32 447.8 L608.37 456.62 L642.49 458.52 L678.48 453.03 L717.77 439.66 L759.96 421.08 L792.97 398.85 L818.96 376.99 L833.45 358.58 L839.19 347.04 L834.95 344.13 L820.98 350.33 L803.02 365.31 L785.2 385.21 L764.53 409.65 L745.45 433.62 L729.44 453.25 L721.22 465.83 L711.5 467.98 L703.75 459.61 L697.8 441.85 L688.18 416.6 L678.06 388.04 L665.02 361.89 L654.92 339.12 L643.31 324.51 L635.42 320.93 L632.86 329.13 L636.31 348.03 L648.92 375.36 L665.08 406.56 L685.98 437.51 L711.54 464.07 L735.95 481.43 L757.94 489.63 L775.82 486.54 L788.73 473.18 L791.85 451.45 L786.46 425.1 L772.01 397.98 L756.44 374.9 L736.86 358.31 L721.97 351 L710.24 352.31 L701.96 361.46 L700.79 376.51 L706.09 394.12 L720.04 411.15 L738.95 424.13 L756.78 430.24 L771.58 428.54 L781.25 419.54 L782.13 404.84 L774.99 388.73 L755.63 371.57 L729.51 358.51 L701.45 352.73 L668.71 355.13 L638.14 366.4 L612.87 385.17 L596.23 408.86 L588.63 433.64 L593.91 455.96 L609.8 471.28 L633.96 478.87 L666.28 476.32 L700.33 463.35 L735.81 442.22 L768.52 415.98 L796.71 388.79 L817.17 364.72 L830.36 347.72 L834.81 340.24 L832.69 342.95 L823.63 355.52 L810.24 376.1 L793.29 401.04 L774.32 426.07 L754.08 446.78 L733.61 459.53 L717.23 462.43 L698.59 453.86 L680.49 435.27 L665.78 411.64 L653.55 383.22 L644.97 356.11 L639.6 334.68 L637.37 322.5 L640.46 322.06 L648.23 333.7 L660.38 355.97 L676.09 385.77 L694.76 418.89 L712.02 448.22 L729.86 474.1 L747.06 490.73 L758.51 495.41 L768.16 488.44 L771.47 470.7 L769.59 445.38 L762.41 416.45 L751.31 388.43 L740.5 365.84 L728.89 352.05 L721.01 347.22 L717.29 352.54 L717.19 366.2 L724.16 385.64 L732.46 406.3 L744.09 424.57 L757.31 436.94 L767.64 440.69 L774.05 435.08 L776.83 422.46 L773.89 402.87 L764.23 380.45 L746.77 359.03 L725.83 343.03 L700.79 335.31 L674.85 337.84 L650.6 350.87 L631 372.96 L614.02 400.52 L608.67 428.46 L607.81 455.92 L616.81 477.3 L630.45 488.8 L652.69 489.43 L678.44 478.74 L709.28 459.01 L741.94 433.25 L771.66 405.19 L799.57 379.6" opacity="0.04"/><path d="M704.57 452.49 L703.67 455.56 L706.87 453.44 L711.75 445.68 L715.03 432.87 L715.42 416.49 L709.41 398.07 L697.99 379.92 L682.29 364.2 L659.37 352.2 L642.73 346.74 L627.95 347.07 L619.47 353.85 L620.82 366.43 L632.17 383.19 L654.8 402.32 L686.57 421.54 L721.46 438.24 L755.23 450.53 L785.67 457.36 L807.74 458.33 L820.06 453.51 L819.32 443.5 L807.16 429.98 L785.03 414.67 L760.34 400 L730.39 386.77 L703.58 376.75 L686.57 371.02 L678.56 369.21 L679.46 370.54 L693.22 374.96 L711.68 380.58 L736.83 387.02 L758.93 392.66 L775.98 397.23 L782.7 400.38 L778.9 402.62 L762.39 404.3 L735.37 406.19 L704.14 408.75 L664.78 412.32 L627.52 417.14 L597.59 422.81 L578.32 428.39 L572.8 432.83 L583.6 435.14 L608.51 434.17 L647.17 429.61 L689.12 420.62 L731 409.42 L773.52 395.36 L808.59 380.91 L834.65 368.38 L844.97 359.15 L843.17 355.35 L830.93 358.01 L807.76 366.8 L783.16 381.63 L760.53 400.7 L740.4 419.54 L723.92 438.66 L712.06 453.58 L709.53 462.55 L707.98 463.11 L708.47 455.24 L709.12 439.77 L705.92 418.36 L695.83 393.64 L684.84 369.76 L671.94 350.96 L655.93 336.97 L640.53 331.54 L629.92 335.71 L625.74 348.91 L632.12 369.69 L646.26 394.83 L669.35 421.16 L697.6 444.93 L731.18 463.43 L758.48 473.17 L783.74 475.05 L802.31 468.24 L812.24 454.14 L807.83 434.5 L796.88 413.25 L775.08 392.66 L749.65 375.99 L727.12 365.59 L706.77 361.77 L693.94 364.08 L689.64 371.82 L693.55 382.71 L707.27 394.63 L727.35 405.04 L750.79 412.05 L769.66 414.03 L785.35 411.57 L790.08 404.95 L783.29 396.06 L766.81 387.79 L738.76 380.92 L704.13 378.24 L666.97 380.96 L631.13 389.2 L601.51 402.11 L581.91 417.84 L576.15 434 L585.32 447.8 L608.37 456.62 L640.02 458.68 L678.48 453.03 L717.77 439.66 L759.96 421.08 L792.97 398.85 L818.96 376.99 L833.45 358.58 L839.19 347.04 L834.95 344.13 L820.98 350.33 L804.21 363.97 L785.2 385.21 L764.53 409.65 L745.45 433.62 L729.44 453.25 L721.22 465.83 L711.5 467.98 L703.75 459.61 L697.8 441.85 L688.18 416.6 L678.66 390.08 L665.02 361.89 L654.92 339.12 L643.31 324.51 L635.42 320.93 L632.86 329.13 L636.31 348.03 L648.92 375.36 L665.08 406.56 L685.98 437.51 L709.86 462.44 L735.95 481.43 L757.94 489.63 L775.82 486.54 L788.73 473.18 L791.85 451.45 L786.46 425.1 L772.01 397.98 L756.44 374.9 L736.86 358.31 L722.64 351.17 L710.24 352.31 L701.96 361.46 L700.79 376.51 L706.09 394.12 L720.04 411.15 L738.95 424.13 L756.78 430.24 L771.58 428.54 L781.25 419.54 L782.56 406.05 L774.99 388.73 L755.63 371.57 L729.51 358.51 L701.45 352.73 L668.71 355.13 L638.14 366.4 L612.87 385.17 L596.23 408.86 L588.63 433.64 L593.07 454.53 L609.8 471.28 L633.96 478.87 L666.28 476.32 L700.33 463.35 L735.81 442.22 L768.52 415.98 L796.71 388.79 L817.17 364.72 L830.36 347.72 L834.33 340.37 L832.69 342.95 L823.63 355.52 L810.24 376.1 L793.29 401.04 L774.32 426.07 L754.08 446.78 L733.61 459.53 L717.23 462.43 L698.59 453.86 L681.67 436.87 L665.78 411.64 L653.55 383.22 L644.97 356.11 L639.6 334.68 L637.37 322.5 L640.46 322.06 L648.23 333.7 L660.38 355.97 L676.09 385.77 L692.97 416.46 L712.02 448.22 L729.86 474.1 L747.06 490.73 L758.51 495.41 L768.16 488.44 L771.47 470.7 L769.59 445.38 L762.41 416.45 L751.31 388.43 L740.79 367.14 L728.89 352.05 L721.01 347.22 L717.29 352.54 L717.19 366.2 L724.16 385.64 L732.46 406.3 L744.09 424.57 L757.31 436.94 L767.64 440.69 L773.94 435.81 L776.83 422.46 L773.89 402.87 L764.23 380.45 L746.77 359.03 L725.83 343.03 L700.79 335.31 L674.85 337.84 L650.6 350.87 L631 372.96 L615.14 398.45 L608.67 428.46 L607.81 455.92 L616.81 477.3 L630.45 488.8 L652.69 489.43 L678.44 478.74 L709.28 459.01 L741.94 433.25 L771.66 405.19 L797.74 381.27 L818.3 360.87 L834.49 349.47 L844.19 348.27 L844.94 356.62 L838.94 372.85 L822.42 393.09 L801.64 414.12 L777.93 431.93 L747.74 442.4 L720.81 444.41 L689.85 436.96 L668.35 421.93 L647.21 400.32 L630.57 376.17 L622.76 354.12 L620.23 337.58 L626.44 330.19 L639.71 333.55 L656.62 347.43" opacity="0.06"/><path d="M785.67 457.36 L807.74 458.33 L820.06 453.51 L819.32 443.5 L807.16 429.98 L785.03 414.67 L760.34 400 L730.39 386.77 L703.58 376.75 L686.57 371.02 L678.68 369.2 L679.46 370.54 L693.22 374.96 L711.68 380.58 L736.83 387.02 L758.93 392.66 L775.98 397.23 L782.7 400.38 L778.9 402.62 L762.39 404.3 L737.73 406.05 L704.14 408.75 L664.78 412.32 L627.52 417.14 L597.59 422.81 L578.32 428.39 L572.8 432.83 L583.6 435.14 L608.51 434.17 L647.17 429.61 L685.71 421.35 L731 409.42 L773.52 395.36 L808.59 380.91 L834.65 368.38 L844.97 359.15 L843.17 355.35 L830.93 358.01 L807.76 366.8 L783.16 381.63 L762.1 399.26 L740.4 419.54 L723.92 438.66 L712.06 453.58 L709.53 462.55 L707.98 463.11 L708.47 455.24 L709.12 439.77 L705.92 418.36 L695.83 393.64 L685.67 371.37 L671.94 350.96 L655.93 336.97 L640.53 331.54 L629.92 335.71 L625.74 348.91 L632.12 369.69 L646.26 394.83 L669.35 421.16 L697.6 444.93 L728.74 462.34 L758.48 473.17 L783.74 475.05 L802.31 468.24 L812.24 454.14 L807.83 434.5 L796.88 413.25 L775.08 392.66 L749.65 375.99 L727.12 365.59 L707.71 361.77 L693.94 364.08 L689.64 371.82 L693.55 382.71 L707.27 394.63 L727.35 405.04 L750.79 412.05 L769.66 414.03 L785.35 411.57 L790.08 404.95 L783.96 396.7 L766.81 387.79 L738.76 380.92 L704.13 378.24 L666.97 380.96 L631.13 389.2 L601.51 402.11 L581.91 417.84 L576.15 434 L585.32 447.8 L606.47 456.23 L640.02 458.68 L678.48 453.03 L717.77 439.66 L759.96 421.08 L792.97 398.85 L818.96 376.99 L833.45 358.58 L839.19 347.04 L834.95 344.13 L822.6 349.64 L804.21 363.97 L785.2 385.21 L764.53 409.65 L745.45 433.62 L729.44 453.25 L721.22 465.83 L711.5 467.98 L703.75 459.61 L697.8 441.85 L688.62 418.52 L678.66 390.08 L665.02 361.89 L654.92 339.12 L643.31 324.51 L635.42 320.93 L632.86 329.13 L636.31 348.03 L648.92 375.36 L665.08 406.56 L684.31 435.39 L709.86 462.44 L735.95 481.43 L757.94 489.63 L775.82 486.54 L788.73 473.18 L791.85 451.45 L786.46 425.1 L772.01 397.98 L756.44 374.9 L738.15 359.21 L722.64 351.17 L710.24 352.31 L701.96 361.46 L700.79 376.51 L706.09 394.12 L720.04 411.15 L738.95 424.13 L756.78 430.24 L771.58 428.54 L780.46 420.35 L782.56 406.05 L774.99 388.73 L755.63 371.57 L729.51 358.51 L701.45 352.73 L668.71 355.13 L638.14 366.4 L612.87 385.17 L596.23 408.86 L589.15 431.96 L593.07 454.53 L609.8 471.28 L633.96 478.87 L666.28 476.32 L700.33 463.35 L735.81 442.22 L768.52 415.98 L796.71 388.79 L817.17 364.72 L829.52 348.61 L834.33 340.37 L832.69 342.95 L823.63 355.52 L810.24 376.1 L793.29 401.04 L774.32 426.07 L754.08 446.78 L733.61 459.53 L717.23 462.43 L699.59 454.78 L681.67 436.87 L665.78 411.64 L653.55 383.22 L644.97 356.11 L639.6 334.68 L637.37 322.5 L640.46 322.06 L648.23 333.7 L660.38 355.97 L674.81 383.47 L692.97 416.46 L712.02 448.22 L729.86 474.1 L747.06 490.73 L758.51 495.41 L768.16 488.44 L771.47 470.7 L769.59 445.38 L762.41 416.45 L752.48 390.35 L740.79 367.14 L728.89 352.05 L721.01 347.22 L717.29 352.54 L717.19 366.2 L724.16 385.64 L732.46 406.3 L744.09 424.57 L757.31 436.94 L767.32 440.77 L773.94 435.81 L776.83 422.46 L773.89 402.87 L764.23 380.45 L746.77 359.03 L725.83 343.03 L700.79 335.31 L674.85 337.84 L650.6 350.87 L632.16 371.13 L615.14 398.45 L608.67 428.46 L607.81 455.92 L616.81 477.3 L630.45 488.8 L652.69 489.43 L678.44 478.74 L709.28 459.01 L741.94 433.25 L769.2 407.11 L797.74 381.27 L818.3 360.87 L834.49 349.47 L844.19 348.27 L844.94 356.62 L838.94 372.85 L822.42 393.09 L801.64 414.12 L777.93 431.93 L749.77 441.91 L720.81 444.41 L689.85 436.96 L668.35 421.93 L647.21 400.32 L630.57 376.17 L622.76 354.12 L620.23 337.58 L626.44 330.19 L639.71 333.55 L655.45 346.14 L676.3 368.61 L697.54 397.09 L715.76 427.32 L730.64 455.09 L744.01 476.77 L753.18 489 L753.27 489.5 L754.25 479.75 L749.25 460.45 L742.93 437.1 L731.58 409.33 L724.71 384.08 L719.77 364.63 L718.58 353.84 L719.8 352.73 L724.72 361.07 L731.16 376.62 L742.11 396.72 L750.79 416.67" opacity="0.07"/><path d="M762.39 404.3 L737.73 406.05 L704.14 408.75 L664.78 412.32 L627.52 417.14 L597.59 422.81 L578.32 428.39 L572.8 432.83 L583.6 435.14 L608.51 434.17 L644.6 430.14 L685.71 421.35 L731 409.42 L773.52 395.36 L808.59 380.91 L834.65 368.38 L844.97 359.15 L843.17 355.35 L830.93 358.01 L807.76 366.8 L784.47 380.35 L762.1 399.26 L740.4 419.54 L723.92 438.66 L712.06 453.58 L709.53 462.55 L707.98 463.11 L708.47 455.24 L709.12 439.77 L705.92 418.36 L696.83 395.45 L685.67 371.37 L671.94 350.96 L655.93 336.97 L640.53 331.54 L629.92 335.71 L625.74 348.91 L632.12 369.69 L646.26 394.83 L669.35 421.16 L695.81 443.43 L728.74 462.34 L758.48 473.17 L783.74 475.05 L802.31 468.24 L812.24 454.14 L807.83 434.5 L796.88 413.25 L775.08 392.66 L749.65 375.99 L728.42 366.08 L707.71 361.77 L693.94 364.08 L689.64 371.82 L693.55 382.71 L707.27 394.63 L727.35 405.04 L750.79 412.05 L769.66 414.03 L785.35 411.57 L790.6 405.58 L783.96 396.7 L766.81 387.79 L738.76 380.92 L704.13 378.24 L666.97 380.96 L631.13 389.2 L601.51 402.11 L581.91 417.84 L576.15 434 L583.7 446.89 L606.47 456.23 L640.02 458.68 L678.48 453.03 L717.77 439.66 L759.96 421.08 L792.97 398.85 L818.96 376.99 L833.45 358.58 L839.19 347.04 L835.12 343.97 L822.6 349.64 L804.21 363.97 L785.2 385.21 L764.53 409.65 L745.45 433.62 L729.44 453.25 L721.22 465.83 L711.5 467.98 L703.75 459.61 L698.01 443.36 L688.62 418.52 L678.66 390.08 L665.02 361.89 L654.92 339.12 L643.31 324.51 L635.42 320.93 L632.86 329.13 L636.31 348.03 L648.92 375.36 L663.71 404.28 L684.31 435.39 L709.86 462.44 L735.95 481.43 L757.94 489.63 L775.82 486.54 L788.73 473.18 L791.85 451.45 L786.46 425.1 L772.01 397.98 L757.66 376.35 L738.15 359.21 L722.64 351.17 L710.24 352.31 L701.96 361.46 L700.79 376.51 L706.09 394.12 L720.04 411.15 L738.95 424.13 L756.78 430.24 L770.92 428.95 L780.46 420.35 L782.56 406.05 L774.99 388.73 L755.63 371.57 L729.51 358.51 L701.45 352.73 L668.71 355.13 L638.14 366.4 L612.87 385.17 L596.97 407.06 L589.15 431.96 L593.07 454.53 L609.8 471.28 L633.96 478.87 L666.28 476.32 L700.33 463.35 L735.81 442.22 L768.52 415.98 L796.71 388.79 L815.64 366.2 L829.52 348.61 L834.33 340.37 L832.69 342.95 L823.63 355.52 L810.24 376.1 L793.29 401.04 L774.32 426.07 L754.08 446.78 L733.61 459.53 L718.54 462.62 L699.59 454.78 L681.67 436.87 L665.78 411.64 L653.55 383.22 L644.97 356.11 L639.6 334.68 L637.37 322.5 L640.46 322.06 L648.23 333.7 L659.57 354.12 L674.81 383.47 L692.97 416.46 L712.02 448.22 L729.86 474.1 L747.06 490.73 L758.51 495.41 L768.16 488.44 L771.47 470.7 L769.59 445.38 L763.27 418.56 L752.48 390.35 L740.79 367.14 L728.89 352.05 L721.01 347.22 L717.29 352.54 L717.19 366.2 L724.16 385.64 L732.46 406.3 L744.09 424.57 L756.89 436.39 L767.32 440.77 L773.94 435.81 L776.83 422.46 L773.89 402.87 L764.23 380.45 L746.77 359.03 L725.83 343.03 L700.79 335.31 L674.85 337.84 L652.07 349.59 L632.16 371.13 L615.14 398.45 L608.67 428.46 L607.81 455.92 L616.81 477.3 L630.45 488.8 L652.69 489.43 L678.44 478.74 L709.28 459.01 L739.83 435.23 L769.2 407.11 L797.74 381.27 L818.3 360.87 L834.49 349.47 L844.19 348.27 L844.94 356.62 L838.94 372.85 L822.42 393.09 L801.64 414.12 L779.34 430.79 L749.77 441.91 L720.81 444.41 L689.85 436.96 L668.35 421.93 L647.21 400.32 L630.57 376.17 L622.76 354.12 L620.23 337.58 L626.44 330.19 L638.96 333 L655.45 346.14 L676.3 368.61 L697.54 397.09 L715.76 427.32 L730.64 455.09 L744.01 476.77 L753.18 489 L753.27 489.5 L754.25 479.75 L749.69 462.07 L742.93 437.1 L731.58 409.33 L724.71 384.08 L719.77 364.63 L718.58 353.84 L719.8 352.73 L724.72 361.07 L731.16 376.62 L742.11 396.72 L749.48 415.23 L761 432.41 L767.31 442.41 L771.05 443.63 L771.19 435.41 L767.94 418.9 L759.52 396.39 L750.87 372.15 L735.99 349.34 L720.78 332.63 L701.99 324.55 L686.34 326.8 L665.41 339.05 L649.48 361.19 L635.54 389.76 L626.08 421.09 L619.9 450.6 L621.05 474.72 L629.93 490.29 L641.91 494.81" opacity="0.09"/><path d="M809.76 365.96 L785.95 379.82 L763.07 399.15 L740.88 419.89 L724.03 439.45 L711.9 454.7 L709.32 463.87 L707.73 464.45 L708.23 456.4 L708.89 440.57 L705.54 420.33 L696.32 395.25 L684.92 370.63 L670.88 349.76 L654.5 335.46 L638.75 329.9 L627.91 334.17 L623.63 347.67 L630.16 368.92 L644.61 394.62 L666.28 419.66 L695.29 444.32 L728.96 463.66 L759.38 474.74 L785.2 476.66 L804.2 469.69 L814.35 455.28 L809.83 435.19 L798.63 413.46 L776.35 392.4 L752.42 376.42 L728.63 365.23 L707.46 360.82 L693.38 363.18 L688.98 371.1 L692.98 382.23 L707 394.42 L727.54 405.06 L751.51 412.23 L770.81 414.25 L785.74 412.04 L792.22 405.62 L785.43 396.54 L767.89 387.42 L739.21 380.4 L703.8 377.66 L665.79 380.44 L629.15 388.86 L598.85 402.07 L578.81 418.15 L572.8 433.54 L580.64 447.86 L603.93 457.41 L638.23 459.91 L677.57 454.14 L717.74 440.47 L760.88 421.46 L794.64 398.73 L821.22 376.38 L836.03 357.55 L841.99 346.34 L837.74 342.61 L824.94 348.41 L806.14 363.06 L786.69 384.78 L765.56 409.78 L746.04 434.29 L729.68 454.37 L721.27 467.23 L711.33 469.42 L704.09 461.85 L697.54 444.25 L687.93 418.85 L677.75 389.77 L663.8 360.94 L653.48 337.65 L641.6 322.71 L633.53 319.05 L630.91 327.44 L634.45 346.77 L646.1 372.51 L662.46 404.29 L683.52 436.1 L709.65 463.76 L736.34 483.18 L758.82 491.57 L777.11 488.41 L790.31 474.74 L793.49 452.53 L787.98 425.57 L774.87 399.81 L758.53 375.73 L738.59 358.2 L722.72 349.98 L710.04 351.14 L701.58 360.5 L700.38 375.89 L705.8 393.9 L720.07 411.31 L739.4 424.59 L756.6 430.67 L772.1 429.52 L781.85 420.72 L784 406.1 L776.25 388.39 L756.45 370.83 L729.75 357.48 L701.05 351.58 L667.58 354.03 L636.32 365.55 L612.52 383.23 L594.21 407.13 L586.21 432.59 L590.22 455.67 L607.33 472.8 L632.04 480.56 L665.08 477.95 L699.91 464.69 L736.19 443.08 L769.64 416.25 L796.4 390.34 L817.83 365.35 L832.02 347.36 L836.93 338.93 L835.25 341.57 L825.99 354.43 L812.3 375.47 L794.97 400.98 L775.57 426.57 L754.87 447.74 L735.41 460.18 L718.53 463.94 L699.15 455.93 L680.82 437.61 L664.58 411.81 L652.07 382.75 L643.3 355.03 L637.8 333.12 L635.53 320.66 L638.68 320.21 L646.17 330.9 L658.23 352.99 L673.81 383.01 L692.38 416.74 L711.86 449.22 L730.1 475.68 L747.7 492.69 L759.4 497.47 L769.27 490.34 L772.66 472.21 L770.81 448.3 L764.27 418.89 L753.23 390.04 L741.29 366.31 L729.11 350.88 L721.05 345.93 L717.25 351.38 L717.14 365.34 L724.27 385.23 L732.77 406.35 L743.58 423.84 L757.74 437.12 L768.42 441.6 L775.18 436.53 L778.13 422.88 L775.13 402.85 L765.25 379.91 L747.4 358.01 L725.98 341.66 L700.37 333.75 L675.3 335.74 L650.56 348.36 L630.19 370.39 L612.8 398.33 L606.18 429.01 L605.29 457.09 L614.5 478.96 L628.45 490.71 L651.19 491.36 L677.52 480.43 L707.04 461.98 L740.3 435.94 L770.34 407.18 L799.52 380.75 L820.55 359.89 L837.09 348.24 L847.02 347.01 L847.79 355.55 L841.65 372.14 L824.75 392.85 L804.9 412.85 L780.7 431.4 L750.46 442.77 L720.86 445.32 L689.19 437.7 L667.21 422.33 L645.59 400.23 L628.57 375.54 L620.59 352.99 L618 336.08 L623.19 328.64 L637.15 331.4 L654.01 344.83 L675.33 367.81 L697.05 396.93 L715.69 427.85 L730.91 456.24 L744.57 478.41 L753.95 490.92 L754.04 491.43 L755.04 482.51 L750.38 463.38 L743.47 437.85 L731.87 409.45 L724.84 383.63 L719.79 363.74 L718.57 352.71 L719.82 351.57 L724.85 360.1 L731.43 376 L742.22 395.09 L750.17 415.48 L761.94 433.05 L768.4 443.28 L772.22 444.52 L772.37 436.12 L769.04 419.24 L760.43 396.21 L751.59 371.43 L736.37 348.11 L722.78 332.08 L701.6 322.75 L685.61 325.06 L664.2 337.58 L647.91 360.22 L633.66 389.44 L623.98 421.48 L617.66 451.65 L618.84 476.31 L627.91 492.24 L638.97 496.89 L658.34 491.43 L683.98 476.31 L713.23 453.99 L748.89 428.75 L780.96 403.38 L811.8 382.22 L837 367.7 L854.45 361.33 L862.16 363.06 L862.13 371.05 L848.44 383.38 L826.58 397.28 L795.71 409.18 L759.48 416.52 L722.45 417.77 L686.87 412.28 L653.06 400.49 L625.5 384.75 L610.24 368.53" opacity="0.12"/><path d="M644.61 394.62 L666.28 419.66 L695.29 444.32 L728.96 463.66 L759.38 474.74 L785.2 476.66 L804.2 469.69 L814.35 455.28 L809.83 435.19 L798.63 413.46 L778.24 393.82 L752.42 376.42 L728.63 365.23 L707.46 360.82 L693.38 363.18 L688.98 371.1 L692.98 382.23 L707 394.42 L727.54 405.06 L751.51 412.23 L769.6 414.28 L785.74 412.04 L792.22 405.62 L785.43 396.54 L767.89 387.42 L739.21 380.4 L703.8 377.66 L665.79 380.44 L629.15 388.86 L598.85 402.07 L579.39 416.9 L572.8 433.54 L580.64 447.86 L603.93 457.41 L638.23 459.91 L677.57 454.14 L717.74 440.47 L760.88 421.46 L794.64 398.73 L821.22 376.38 L835.32 358.7 L841.99 346.34 L837.74 342.61 L824.94 348.41 L806.14 363.06 L786.69 384.78 L765.56 409.78 L746.04 434.29 L729.68 454.37 L721.27 467.23 L712.29 469.67 L704.09 461.85 L697.54 444.25 L687.93 418.85 L677.75 389.77 L663.8 360.94 L653.48 337.65 L641.6 322.71 L633.53 319.05 L630.91 327.44 L634.13 345.09 L646.1 372.51 L662.46 404.29 L683.52 436.1 L709.65 463.76 L736.34 483.18 L758.82 491.57 L777.11 488.41 L790.31 474.74 L793.49 452.53 L788.43 427.54 L774.87 399.81 L758.53 375.73 L738.59 358.2 L722.72 349.98 L710.04 351.14 L701.58 360.5 L700.38 375.89 L705.8 393.9 L720.07 411.31 L738.33 423.89 L756.6 430.67 L772.1 429.52 L781.85 420.72 L784 406.1 L776.25 388.39 L756.45 370.83 L729.75 357.48 L701.05 351.58 L667.58 354.03 L638.24 364.42 L612.52 383.23 L594.21 407.13 L586.21 432.59 L590.22 455.67 L607.33 472.8 L632.04 480.56 L665.08 477.95 L699.91 464.69 L736.19 443.08 L767.37 418.25 L796.4 390.34 L817.83 365.35 L832.02 347.36 L836.93 338.93 L835.25 341.57 L825.99 354.43 L812.3 375.47 L794.97 400.98 L775.57 426.57 L757.05 446.56 L735.41 460.18 L718.53 463.94 L699.15 455.93 L680.82 437.61 L664.58 411.81 L652.07 382.75 L643.3 355.03 L637.8 333.12 L635.53 320.66 L637.89 319.77 L646.17 330.9 L658.23 352.99 L673.81 383.01 L692.38 416.74 L711.86 449.22 L730.1 475.68 L747.7 492.69 L759.4 497.47 L769.27 490.34 L772.63 473.81 L770.81 448.3 L764.27 418.89 L753.23 390.04 L741.29 366.31 L729.11 350.88 L721.05 345.93 L717.25 351.38 L717.14 365.34 L724.27 385.23 L731.8 404.84 L743.58 423.84 L757.74 437.12 L768.42 441.6 L775.18 436.53 L778.13 422.88 L775.13 402.85 L765.25 379.91 L747.4 358.01 L725.98 341.66 L701.88 333.93 L675.3 335.74 L650.56 348.36 L630.19 370.39 L612.8 398.33 L606.18 429.01 L605.29 457.09 L614.5 478.96 L628.45 490.71 L651.19 491.36 L675.59 481.57 L707.04 461.98 L740.3 435.94 L770.34 407.18 L799.52 380.75 L820.55 359.89 L837.09 348.24 L847.02 347.01 L847.79 355.55 L841.65 372.14 L826.46 391.34 L804.9 412.85 L780.7 431.4 L750.46 442.77 L720.86 445.32 L689.19 437.7 L667.21 422.33 L645.59 400.23 L628.57 375.54 L620.59 352.99 L617.55 336.96 L623.19 328.64 L637.15 331.4 L654.01 344.83 L675.33 367.81 L697.05 396.93 L715.69 427.85 L730.91 456.24 L744.57 478.41 L753.95 490.92 L754.5 491.82 L755.04 482.51 L750.38 463.38 L743.47 437.85 L731.87 409.45 L724.84 383.63 L719.79 363.74 L718.57 352.71 L719.82 351.57 L724.85 360.1 L730.52 374.63 L742.22 395.09 L750.17 415.48 L761.94 433.05 L768.4 443.28 L772.22 444.52 L772.37 436.12 L769.04 419.24 L760.43 396.21 L751.59 371.43 L737.47 349.61 L722.78 332.08 L701.6 322.75 L685.61 325.06 L664.2 337.58 L647.91 360.22 L633.66 389.44 L623.98 421.48 L617.66 451.65 L618.84 476.31 L627.27 491.48 L638.97 496.89 L658.34 491.43 L683.98 476.31 L713.23 453.99 L748.89 428.75 L780.96 403.38 L811.8 382.22 L837 367.7 L854.45 361.33 L862.14 362.71 L862.13 371.05 L848.44 383.38 L826.58 397.28 L795.71 409.18 L759.48 416.52 L722.45 417.77 L686.87 412.28 L653.06 400.49 L625.5 384.75 L610.94 369.64 L606.97 355.74 L609.32 346.39 L622.81 344.71 L641.73 351.29 L666.22 366.24 L691.52 387.63 L713.3 412.47 L732.69 437.77 L747.58 459.86 L754.74 474.43 L757.41 481.87 L750.4 479.07 L742.74 467.59 L729.81 448.38 L718.28 425.1 L709.6 401.32 L705.73 380.78 L706.13 366.37 L712.41 360.36" opacity="0.15"/><path d="M751.51 412.23 L769.6 414.28 L785.74 412.04 L792.22 405.62 L785.43 396.54 L767.89 387.42 L739.21 380.4 L703.8 377.66 L665.79 380.44 L629.15 388.86 L600.79 401.01 L579.39 416.9 L572.8 433.54 L580.64 447.86 L603.93 457.41 L638.23 459.91 L677.57 454.14 L717.74 440.47 L760.88 421.46 L794.64 398.73 L820.21 377.97 L835.32 358.7 L841.99 346.34 L837.74 342.61 L824.94 348.41 L806.14 363.06 L786.69 384.78 L765.56 409.78 L746.04 434.29 L729.68 454.37 L722.51 466.73 L712.29 469.67 L704.09 461.85 L697.54 444.25 L687.93 418.85 L677.75 389.77 L663.8 360.94 L653.48 337.65 L641.6 322.71 L633.53 319.05 L630.35 326.38 L634.13 345.09 L646.1 372.51 L662.46 404.29 L683.52 436.1 L709.65 463.76 L736.34 483.18 L758.82 491.57 L777.11 488.41 L790.31 474.74 L793.89 454.36 L788.43 427.54 L774.87 399.81 L758.53 375.73 L738.59 358.2 L722.72 349.98 L710.04 351.14 L701.58 360.5 L700.38 375.89 L705.8 393.9 L718.43 410.12 L738.33 423.89 L756.6 430.67 L772.1 429.52 L781.85 420.72 L784 406.1 L776.25 388.39 L756.45 370.83 L729.75 357.48 L701.05 351.58 L670.06 353.56 L638.24 364.42 L612.52 383.23 L594.21 407.13 L586.21 432.59 L590.22 455.67 L607.33 472.8 L632.04 480.56 L665.08 477.95 L699.91 464.69 L733.11 444.77 L767.37 418.25 L796.4 390.34 L817.83 365.35 L832.02 347.36 L836.93 338.93 L835.25 341.57 L825.99 354.43 L812.3 375.47 L794.97 400.98 L776.93 424.82 L757.05 446.56 L735.41 460.18 L718.53 463.94 L699.15 455.93 L680.82 437.61 L664.58 411.81 L652.07 382.75 L643.3 355.03 L637.8 333.12 L635.43 321.16 L637.89 319.77 L646.17 330.9 L658.23 352.99 L673.81 383.01 L692.38 416.74 L711.86 449.22 L730.1 475.68 L747.7 492.69 L759.4 497.47 L768.76 491.24 L772.63 473.81 L770.81 448.3 L764.27 418.89 L753.23 390.04 L741.29 366.31 L729.11 350.88 L721.05 345.93 L717.25 351.38 L717.14 365.34 L723.67 383.71 L731.8 404.84 L743.58 423.84 L757.74 437.12 L768.42 441.6 L775.18 436.53 L778.13 422.88 L775.13 402.85 L765.25 379.91 L747.4 358.01 L727.38 342.53 L701.88 333.93 L675.3 335.74 L650.56 348.36 L630.19 370.39 L612.8 398.33 L606.18 429.01 L605.29 457.09 L614.5 478.96 L628.45 490.71 L649.71 491.75 L675.59 481.57 L707.04 461.98 L740.3 435.94 L770.34 407.18 L799.52 380.75 L820.55 359.89 L837.09 348.24 L847.02 347.01 L847.79 355.55 L842.28 370.75 L826.46 391.34 L804.9 412.85 L780.7 431.4 L750.46 442.77 L720.86 445.32 L689.19 437.7 L667.21 422.33 L645.59 400.23 L628.57 375.54 L620.77 354.43 L617.55 336.96 L623.19 328.64 L637.15 331.4 L654.01 344.83 L675.33 367.81 L697.05 396.93 L715.69 427.85 L730.91 456.24 L744.57 478.41 L753.99 490.47 L754.5 491.82 L755.04 482.51 L750.38 463.38 L743.47 437.85 L731.87 409.45 L724.84 383.63 L719.79 363.74 L718.57 352.71 L719.82 351.57 L724.03 359.16 L730.52 374.63 L742.22 395.09 L750.17 415.48 L761.94 433.05 L768.4 443.28 L772.22 444.52 L772.37 436.12 L769.04 419.24 L760.43 396.21 L751.88 373.12 L737.47 349.61 L722.78 332.08 L701.6 322.75 L685.61 325.06 L664.2 337.58 L647.91 360.22 L633.66 389.44 L623.98 421.48 L617.66 451.65 L618.58 474.82 L627.27 491.48 L638.97 496.89 L658.34 491.43 L683.98 476.31 L713.23 453.99 L748.89 428.75 L780.96 403.38 L811.8 382.22 L837 367.7 L853.46 361.5 L862.14 362.71 L862.13 371.05 L848.44 383.38 L826.58 397.28 L795.71 409.18 L759.48 416.52 L722.45 417.77 L686.87 412.28 L653.06 400.49 L627.26 385.95 L610.94 369.64 L606.97 355.74 L609.32 346.39 L622.81 344.71 L641.73 351.29 L666.22 366.24 L691.52 387.63 L713.3 412.47 L732.69 437.77 L746.77 458.48 L754.74 474.43 L757.41 481.87 L750.4 479.07 L742.74 467.59 L729.81 448.38 L718.28 425.1 L709.6 401.32 L705.73 380.78 L706.13 366.37 L711.84 360.5 L720.46 362.53 L733.64 372.93 L745.69 388.98 L755.7 407.65 L764.9 425.7 L771.2 439.48 L774.06 446.16 L770.12 443.58 L769.36 432.95 L762.16 415.52 L751.08 391.47 L738.46 365.55 L727.31 342.02 L713.22 323.9 L699.92 314.7 L687.96 316.22 L676.8 328.65 L662.46 350.1 L652.58 379.02" opacity="0.18"/><path d="M791.26 398.96 L815.69 379.13 L830.12 360.73 L836.49 348.92 L832.43 345.35 L820.2 350.9 L802.24 364.89 L783.67 385.64 L763.48 409.52 L744.83 432.93 L729.97 450.93 L722.35 463.92 L712.59 466.73 L704.76 459.26 L698.5 442.45 L689.32 418.19 L679.6 390.41 L666.27 362.87 L656.4 340.62 L645.06 326.35 L638.15 322.77 L634.32 329.85 L637.93 347.73 L649.36 373.91 L664.99 404.27 L685.11 434.67 L710.07 461.09 L735.56 479.64 L757.04 487.65 L774.51 484.64 L786.54 472.82 L790.54 452.11 L785.33 426.48 L772.37 399.99 L756.76 376.99 L737.71 360.24 L722.55 352.39 L710.44 353.5 L702.36 362.44 L701.21 377.15 L705.79 393.11 L718.45 409.84 L737.47 423 L754.92 429.48 L769.72 428.38 L779.04 419.98 L781.09 406 L773.69 389.09 L754.78 372.32 L729.26 359.56 L703.98 354.07 L672.25 355.82 L641.85 366.19 L617.28 384.16 L599.79 406.99 L592.15 431.31 L595.98 453.36 L612.32 469.72 L635.92 477.14 L667.5 474.64 L698.44 463.19 L732.48 442.95 L765.21 417.61 L792.94 390.95 L813.41 367.07 L826.97 349.89 L831.66 341.84 L830.06 344.36 L821.21 356.64 L808.13 376.75 L792.96 399.33 L774.34 423.89 L755.35 444.66 L734.67 457.67 L718.55 461.26 L700.04 453.61 L682.53 436.11 L667.01 411.46 L655.07 383.7 L646.68 357.22 L641.46 337.48 L639.17 324.86 L641.52 323.53 L649.42 334.17 L660.95 355.27 L675.83 383.95 L693.57 416.17 L712.18 447.2 L729.6 472.48 L746.42 488.73 L756.84 493.35 L766.53 487.34 L770.23 470.69 L768.49 446.32 L762.24 418.23 L751.7 390.66 L740.29 367.99 L728.66 353.25 L720.96 348.53 L717.33 353.73 L717.21 365.92 L723.46 384.62 L731.23 404.8 L742.48 422.95 L756.01 435.64 L766.21 439.92 L772.66 435.07 L775.49 422.03 L772.62 402.9 L763.18 380.99 L747.8 361.48 L727 345.28 L702.65 337.06 L677.25 338.79 L653.62 350.85 L634.16 371.89 L617.54 398.58 L611.22 427.89 L610.38 454.72 L619.17 475.61 L631.24 486.38 L652.81 487.82 L677.53 478.1 L707.57 459.39 L739.35 434.51 L768.04 407.04 L795.92 381.79 L816.01 361.87 L831.81 350.73 L841.29 349.55 L842.1 356.83 L836.77 372.24 L821.65 391.9 L801.06 412.45 L777.94 430.17 L749.05 441.03 L720.77 443.47 L690.52 436.2 L669.52 421.51 L648.87 400.4 L633.24 378.44 L625.16 356.64 L622.08 339.95 L627.47 332.01 L640.81 334.65 L656.92 347.47 L677.28 369.43 L698.03 397.25 L715.84 426.78 L730.37 453.91 L742.59 473.84 L752.42 486.6 L752.91 487.9 L753.43 479 L748.98 460.73 L742.37 436.34 L731.29 409.2 L724.58 384.54 L719.75 365.54 L718.59 355 L719.43 353.65 L723.81 361.16 L730 375.94 L741.18 395.49 L748.78 414.97 L760.02 431.75 L766.19 441.53 L769.84 442.71 L769.99 434.69 L766.81 418.56 L759.44 398.27 L750.41 374.5 L736.64 352.04 L722.62 335.3 L702.38 326.38 L687.1 328.59 L666.65 340.55 L651.09 362.18 L637.47 390.09 L628.23 420.7 L621.94 447.53 L623.07 471.66 L631.37 487.57 L642.55 492.74 L661.06 487.53 L685.54 473.07 L713.49 451.75 L747.55 427.64 L778.19 403.41 L807.65 383.19 L830.02 370.04 L847.45 363.4 L855.74 364.56 L855.73 372.53 L842.65 384.3 L821.77 397.58 L792.28 408.95 L757.67 415.96 L722.29 417.15 L688.31 411.91 L658.6 401.68 L631.36 386.76 L615.77 371.18 L611.98 357.9 L614.22 348.96 L627.11 347.37 L645.18 353.65 L668.58 367.93 L692.75 388.37 L713.56 412.09 L731.2 434.65 L745.53 456.04 L753.14 471.28 L755.69 478.39 L749 475.71 L741.68 464.75 L729.33 446.4 L718.32 424.16 L710.02 401.44 L706.32 381.82 L706.29 368.75 L712.16 362.44 L720.39 364.38 L732.99 374.32 L744.5 389.65 L754.06 407.48 L762.85 424.73 L768.86 437.9 L771.6 444.27 L767.84 441.81 L767.52 432.68 L760.23 415 L749.65 392.03 L737.59 367.27 L726.94 344.79 L713.48 327.48 L700.78 318.69 L689.35 320.14 L678.69 332.02 L664.99 352.51 L656.02 377.99 L644.4 408.23 L636.22 438.33 L628.61 464.02 L627.73 483.01 L634.35 493.28 L647.37 493.87 L666.45 485.38 L693.78 470.02 L726.01 450.16 L756.77 430.05 L791.3 409.82 L822.81 393.18 L846.31 381.39 L859.81 375.06 L865.2 374.27 L856.65 376.92 L833.96 381.09 L803.18 385.42 L766.34 388.12" opacity="0.22"/><path d="M645.06 326.35 L638.15 322.77 L634.32 329.85 L637.93 347.73 L649.36 373.91 L664.99 404.27 L685.11 434.67 L710.07 461.09 L735.56 479.64 L757.04 487.65 L772.97 485.14 L786.54 472.82 L790.54 452.11 L785.33 426.48 L772.37 399.99 L756.76 376.99 L737.71 360.24 L722.55 352.39 L710.44 353.5 L702.36 362.44 L700.95 375.96 L705.79 393.11 L718.45 409.84 L737.47 423 L754.92 429.48 L769.72 428.38 L779.04 419.98 L781.09 406 L773.69 389.09 L754.78 372.32 L731.24 360.27 L703.98 354.07 L672.25 355.82 L641.85 366.19 L617.28 384.16 L599.79 406.99 L592.15 431.31 L595.98 453.36 L612.32 469.72 L635.92 477.14 L664.75 475.12 L698.44 463.19 L732.48 442.95 L765.21 417.61 L792.94 390.95 L813.41 367.07 L826.97 349.89 L831.66 341.84 L830.06 344.36 L821.21 356.64 L809.07 375.11 L792.96 399.33 L774.34 423.89 L755.35 444.66 L734.67 457.67 L718.55 461.26 L700.04 453.61 L682.53 436.11 L667.01 411.46 L655.07 383.7 L647.3 358.99 L641.46 337.48 L639.17 324.86 L641.52 323.53 L649.42 334.17 L660.95 355.27 L675.83 383.95 L693.57 416.17 L712.18 447.2 L729.6 472.48 L745.64 487.97 L756.84 493.35 L766.53 487.34 L770.23 470.69 L768.49 446.32 L762.24 418.23 L751.7 390.66 L740.29 367.99 L728.66 353.25 L720.96 348.53 L717.24 353.03 L717.21 365.92 L723.46 384.62 L731.23 404.8 L742.48 422.95 L756.01 435.64 L766.21 439.92 L772.66 435.07 L775.49 422.03 L772.62 402.9 L763.93 382.54 L747.8 361.48 L727 345.28 L702.65 337.06 L677.25 338.79 L653.62 350.85 L634.16 371.89 L617.54 398.58 L611.22 427.89 L610.38 454.72 L618.14 474.37 L631.24 486.38 L652.81 487.82 L677.53 478.1 L707.57 459.39 L739.35 434.51 L768.04 407.04 L795.92 381.79 L816.01 361.87 L831.81 350.73 L840.79 349.3 L842.1 356.83 L836.77 372.24 L821.65 391.9 L801.06 412.45 L777.94 430.17 L749.05 441.03 L720.77 443.47 L690.52 436.2 L669.52 421.51 L649.85 401.99 L633.24 378.44 L625.16 356.64 L622.08 339.95 L627.47 332.01 L640.81 334.65 L656.92 347.47 L677.28 369.43 L698.03 397.25 L715.84 426.78 L729.47 452.14 L742.59 473.84 L752.42 486.6 L752.91 487.9 L753.43 479 L748.98 460.73 L742.37 436.34 L731.29 409.2 L724.58 384.54 L719.75 365.54 L718.4 355.42 L719.43 353.65 L723.81 361.16 L730 375.94 L741.18 395.49 L748.78 414.97 L760.02 431.75 L766.19 441.53 L769.84 442.71 L769.99 434.69 L767.42 419.97 L759.44 398.27 L750.41 374.5 L736.64 352.04 L722.62 335.3 L702.38 326.38 L687.1 328.59 L666.65 340.55 L651.09 362.18 L637.47 390.09 L628.73 418.51 L621.94 447.53 L623.07 471.66 L631.37 487.57 L642.55 492.74 L661.06 487.53 L685.54 473.07 L713.49 451.75 L747.55 427.64 L778.19 403.41 L805.97 384.49 L830.02 370.04 L847.45 363.4 L855.74 364.56 L855.73 372.53 L842.65 384.3 L821.77 397.58 L792.28 408.95 L757.67 415.96 L722.29 417.15 L690.47 412.46 L658.6 401.68 L631.36 386.76 L615.77 371.18 L611.98 357.9 L614.22 348.96 L627.11 347.37 L645.18 353.65 L668.58 367.93 L692.75 388.37 L712.11 410.34 L731.2 434.65 L745.53 456.04 L753.14 471.28 L755.69 478.39 L749 475.71 L741.68 464.75 L729.33 446.4 L718.32 424.16 L710.02 401.44 L706.29 383.03 L706.29 368.75 L712.16 362.44 L720.39 364.38 L732.99 374.32 L744.5 389.65 L754.06 407.48 L762.85 424.73 L768.86 437.9 L771.6 444.27 L768.1 442.26 L767.52 432.68 L760.23 415 L749.65 392.03 L737.59 367.27 L726.94 344.79 L713.48 327.48 L700.78 318.69 L689.35 320.14 L678.69 332.02 L665.99 350.8 L656.02 377.99 L644.4 408.23 L636.22 438.33 L628.61 464.02 L627.73 483.01 L634.35 493.28 L647.37 493.87 L666.45 485.38 L693.78 470.02 L723.48 451.65 L756.77 430.05 L791.3 409.82 L822.81 393.18 L846.31 381.39 L859.81 375.06 L865.2 374.27 L856.65 376.92 L833.96 381.09 L803.18 385.42 L769.38 388.05 L727.61 387.83 L686.58 384.48 L652.68 378.86 L624.62 371.54 L610.27 365.11 L604.83 360.58 L612.6 360.35 L630.56 365.32 L653.89 375.45 L680.15 389.34 L705.7 407.07 L729.01 426.12 L743.56 443.4 L754.13 457.4 L756.54 465.55 L750.48 466.5 L738.76 460.22 L724.42 447.7 L710.49 430.87" opacity="0.26"/><path d="M702.36 362.44 L700.95 375.96 L705.79 393.11 L718.45 409.84 L737.47 423 L754.92 429.48 L769.72 428.38 L779.04 419.98 L781.09 406 L773.69 389.09 L756.87 373.49 L731.24 360.27 L703.98 354.07 L672.25 355.82 L641.85 366.19 L617.28 384.16 L599.79 406.99 L592.15 431.31 L595.98 453.36 L612.32 469.72 L633.52 476.88 L664.75 475.12 L698.44 463.19 L732.48 442.95 L765.21 417.61 L792.94 390.95 L813.41 367.07 L826.97 349.89 L831.66 341.84 L830.06 344.36 L822.35 355.52 L809.07 375.11 L792.96 399.33 L774.34 423.89 L755.35 444.66 L734.67 457.67 L718.55 461.26 L700.04 453.61 L682.53 436.11 L667.01 411.46 L655.83 385.7 L647.3 358.99 L641.46 337.48 L639.17 324.86 L641.52 323.53 L649.42 334.17 L660.95 355.27 L675.83 383.95 L693.57 416.17 L712.18 447.2 L728.45 470.95 L745.64 487.97 L756.84 493.35 L766.53 487.34 L770.23 470.69 L768.49 446.32 L762.24 418.23 L751.7 390.66 L740.29 367.99 L728.66 353.25 L721.14 348.49 L717.24 353.03 L717.21 365.92 L723.46 384.62 L731.23 404.8 L742.48 422.95 L756.01 435.64 L766.21 439.92 L772.66 435.07 L775.49 422.03 L772.95 404.39 L763.93 382.54 L747.8 361.48 L727 345.28 L702.65 337.06 L677.25 338.79 L653.62 350.85 L634.16 371.89 L617.54 398.58 L611.22 427.89 L609.87 452.92 L618.14 474.37 L631.24 486.38 L652.81 487.82 L677.53 478.1 L707.57 459.39 L739.35 434.51 L768.04 407.04 L795.92 381.79 L816.01 361.87 L830.99 351.22 L840.79 349.3 L842.1 356.83 L836.77 372.24 L821.65 391.9 L801.06 412.45 L777.94 430.17 L749.05 441.03 L720.77 443.47 L690.52 436.2 L671.16 422.83 L649.85 401.99 L633.24 378.44 L625.16 356.64 L622.08 339.95 L627.47 332.01 L640.81 334.65 L656.92 347.47 L677.28 369.43 L698.03 397.25 L714.93 424.74 L729.47 452.14 L742.59 473.84 L752.42 486.6 L752.91 487.9 L753.43 479 L748.98 460.73 L742.37 436.34 L731.29 409.2 L724.58 384.54 L719.41 366.55 L718.4 355.42 L719.43 353.65 L723.81 361.16 L730 375.94 L741.18 395.49 L748.78 414.97 L760.02 431.75 L766.19 441.53 L769.84 442.71 L770.53 435.61 L767.42 419.97 L759.44 398.27 L750.41 374.5 L736.64 352.04 L722.62 335.3 L702.38 326.38 L687.1 328.59 L666.65 340.55 L651.09 362.18 L638.82 388.03 L628.73 418.51 L621.94 447.53 L623.07 471.66 L631.37 487.57 L642.55 492.74 L661.06 487.53 L685.54 473.07 L713.49 451.75 L747.55 427.64 L776.09 405.06 L805.97 384.49 L830.02 370.04 L847.45 363.4 L855.74 364.56 L855.73 372.53 L842.65 384.3 L821.77 397.58 L792.28 408.95 L757.67 415.96 L725.29 417.35 L690.47 412.46 L658.6 401.68 L631.36 386.76 L615.77 371.18 L611.98 357.9 L614.22 348.96 L627.11 347.37 L645.18 353.65 L668.58 367.93 L691.16 386.77 L712.11 410.34 L731.2 434.65 L745.53 456.04 L753.14 471.28 L755.69 478.39 L749 475.71 L741.68 464.75 L729.33 446.4 L718.32 424.16 L710.9 403.07 L706.29 383.03 L706.29 368.75 L712.16 362.44 L720.39 364.38 L732.99 374.32 L744.5 389.65 L754.06 407.48 L762.85 424.73 L768.86 437.9 L771.5 444.08 L768.1 442.26 L767.52 432.68 L760.23 415 L749.65 392.03 L737.59 367.27 L726.94 344.79 L713.48 327.48 L700.78 318.69 L689.35 320.14 L680.02 330.93 L665.99 350.8 L656.02 377.99 L644.4 408.23 L636.22 438.33 L628.61 464.02 L627.73 483.01 L634.35 493.28 L647.37 493.87 L666.45 485.38 L691.99 471.35 L723.48 451.65 L756.77 430.05 L791.3 409.82 L822.81 393.18 L846.31 381.39 L859.81 375.06 L865.2 374.27 L856.65 376.92 L833.96 381.09 L805.75 385.17 L769.38 388.05 L727.61 387.83 L686.58 384.48 L652.68 378.86 L624.62 371.54 L610.27 365.11 L604.83 360.58 L612.6 360.35 L630.56 365.32 L652.48 374.62 L680.15 389.34 L705.7 407.07 L729.01 426.12 L743.56 443.4 L754.13 457.4 L756.54 465.55 L750.48 466.5 L738.76 460.22 L724.42 447.7 L711.64 432.2 L700.48 413.66 L695.97 396.27 L695.01 382.09 L700.73 373.68 L711.87 372.18 L724.37 377.3 L742.15 388.87 L758.39 404.12 L768.53 419.93 L776.08 433.21 L779.52 443.09 L776.44 446.05 L769.88 441.26 L758.71 428.44 L747.51 409.32 L736.03 385.98 L725.01 361.44 L716.22 339.24 L706.67 322.08" opacity="0.3"/><path d="M612.32 469.72 L633.52 476.88 L664.75 475.12 L698.44 463.19 L732.48 442.95 L765.21 417.61 L792.94 390.95 L813.41 367.07 L826.97 349.89 L831.66 341.84 L830.3 343.82 L822.35 355.52 L809.07 375.11 L792.96 399.33 L774.34 423.89 L755.35 444.66 L734.67 457.67 L718.55 461.26 L700.04 453.61 L682.53 436.11 L668.19 413.4 L655.83 385.7 L647.3 358.99 L641.46 337.48 L639.17 324.86 L641.52 323.53 L649.42 334.17 L660.95 355.27 L675.83 383.95 L693.57 416.17 L710.41 445.06 L728.45 470.95 L745.64 487.97 L756.84 493.35 L766.53 487.34 L770.23 470.69 L768.49 446.32 L762.24 418.23 L751.7 390.66 L740.29 367.99 L729.18 353.95 L721.14 348.49 L717.24 353.03 L717.21 365.92 L723.46 384.62 L731.23 404.8 L742.48 422.95 L756.01 435.64 L766.21 439.92 L772.66 435.07 L775.32 423.18 L772.95 404.39 L763.93 382.54 L747.8 361.48 L727 345.28 L702.65 337.06 L677.25 338.79 L653.62 350.85 L634.16 371.89 L617.54 398.58 L611.05 425.77 L609.87 452.92 L618.14 474.37 L631.24 486.38 L652.81 487.82 L677.53 478.1 L707.57 459.39 L739.35 434.51 L768.04 407.04 L795.92 381.79 L814.81 363.04 L830.99 351.22 L840.79 349.3 L842.1 356.83 L836.77 372.24 L821.65 391.9 L801.06 412.45 L777.94 430.17 L749.05 441.03 L720.77 443.47 L692.59 437.01 L671.16 422.83 L649.85 401.99 L633.24 378.44 L625.16 356.64 L622.08 339.95 L627.47 332.01 L640.81 334.65 L656.92 347.47 L677.28 369.43 L696.87 395.19 L714.93 424.74 L729.47 452.14 L742.59 473.84 L752.42 486.6 L752.91 487.9 L753.43 479 L748.98 460.73 L742.37 436.34 L731.29 409.2 L725.36 386.2 L719.41 366.55 L718.4 355.42 L719.43 353.65 L723.81 361.16 L730 375.94 L741.18 395.49 L748.78 414.97 L760.02 431.75 L766.19 441.53 L769.45 442.9 L770.53 435.61 L767.42 419.97 L759.44 398.27 L750.41 374.5 L736.64 352.04 L722.62 335.3 L702.38 326.38 L687.1 328.59 L666.65 340.55 L651.84 360.34 L638.82 388.03 L628.73 418.51 L621.94 447.53 L623.07 471.66 L631.37 487.57 L642.55 492.74 L661.06 487.53 L685.54 473.07 L713.49 451.75 L744.91 429.37 L776.09 405.06 L805.97 384.49 L830.02 370.04 L847.45 363.4 L855.74 364.56 L855.73 372.53 L842.65 384.3 L821.77 397.58 L792.28 408.95 L759.61 415.56 L725.29 417.35 L690.47 412.46 L658.6 401.68 L631.36 386.76 L615.77 371.18 L611.98 357.9 L614.22 348.96 L627.11 347.37 L645.18 353.65 L667.09 366.71 L691.16 386.77 L712.11 410.34 L731.2 434.65 L745.53 456.04 L753.14 471.28 L755.69 478.39 L749 475.71 L741.68 464.75 L729.33 446.4 L719.44 425.87 L710.9 403.07 L706.29 383.03 L706.29 368.75 L712.16 362.44 L720.39 364.38 L732.99 374.32 L744.5 389.65 L754.06 407.48 L762.85 424.73 L768.7 437.18 L771.5 444.08 L768.1 442.26 L767.52 432.68 L760.23 415 L749.65 392.03 L737.59 367.27 L726.94 344.79 L713.48 327.48 L700.78 318.69 L689.74 319.63 L680.02 330.93 L665.99 350.8 L656.02 377.99 L644.4 408.23 L636.22 438.33 L628.61 464.02 L627.73 483.01 L634.35 493.28 L647.37 493.87 L664.25 486.16 L691.99 471.35 L723.48 451.65 L756.77 430.05 L791.3 409.82 L822.81 393.18 L846.31 381.39 L859.81 375.06 L865.2 374.27 L856.65 376.92 L836.05 380.79 L805.75 385.17 L769.38 388.05 L727.61 387.83 L686.58 384.48 L652.68 378.86 L624.62 371.54 L610.27 365.11 L604.83 360.58 L612.6 360.35 L629.22 364.81 L652.48 374.62 L680.15 389.34 L705.7 407.07 L729.01 426.12 L743.56 443.4 L754.13 457.4 L756.54 465.55 L750.48 466.5 L738.76 460.22 L725.39 448.76 L711.64 432.2 L700.48 413.66 L695.97 396.27 L695.01 382.09 L700.73 373.68 L711.87 372.18 L724.37 377.3 L742.15 388.87 L758.39 404.12 L767.71 418.8 L776.08 433.21 L779.52 443.09 L776.44 446.05 L769.88 441.26 L758.71 428.44 L747.51 409.32 L736.03 385.98 L725.01 361.44 L716.22 339.24 L707.36 323.08 L701.28 313.58 L694.76 313.33 L687.5 322.79 L681.37 341.51 L671.45 366.77 L660.46 396.11 L647.25 425.94 L640.57 454.1 L632.41 476.24 L631.2 490.51 L635.54 497.65 L650.48 496.77 L672.81 488.27 L704.96 474.33 L740.38 456.43 L775.52 436.73 L812 418.09 L842.22 401.51 L861.97 387.86" opacity="0.35"/><path d="M683.62 435.15 L669.7 413.12 L657.71 386.24 L649.44 360.34 L643.77 339.47 L641.55 327.22 L643.83 325.94 L651.5 336.26 L662.68 356.72 L677.12 384.55 L692.89 413.54 L710.67 443.83 L728.17 468.95 L744.84 485.47 L755.71 490.68 L765.11 484.85 L768.7 468.7 L767.01 445.06 L760.95 417.8 L750.73 391.06 L740.24 370.38 L728.88 355.45 L721.08 350.15 L717.29 354.55 L717.26 367.06 L723.33 385.2 L730.86 404.78 L741.78 422.38 L754.91 434.69 L764.8 438.85 L770.71 434.76 L773.64 422.61 L771.34 404.38 L762.59 383.18 L746.94 362.75 L726.76 347.04 L703.14 339.06 L678.5 340.74 L655.57 352.44 L636.7 372.85 L621.27 396.74 L614.27 425.12 L613.13 451.46 L621.16 472.27 L633.86 483.92 L654.79 485.32 L678.77 475.89 L707.91 457.74 L738.74 433.6 L766.58 406.95 L791.86 384.07 L811.95 364.26 L827.64 352.79 L837.15 350.93 L838.43 358.24 L833.25 373.19 L818.59 392.27 L798.61 412.2 L776.18 429.39 L748.16 439.93 L722.28 442.37 L693.38 436.03 L672.59 422.27 L651.91 402.05 L635.8 379.2 L627.97 358.06 L624.98 341.87 L630.21 334.16 L643.15 336.72 L658.77 349.16 L677.38 368.75 L697.53 395.45 L715.05 424.12 L729.16 450.7 L741.88 471.76 L751.43 484.14 L751.9 485.39 L752.41 476.76 L748.08 459.03 L741.68 435.37 L731.66 410.91 L725.17 386.74 L719.4 367.67 L718.42 356.87 L719.42 355.16 L723.67 362.44 L729.68 376.78 L740.52 395.74 L747.89 414.64 L758.8 430.92 L764.36 439.98 L767.94 441.74 L768.99 434.67 L765.98 419.5 L758.23 398.44 L749.48 375.38 L736.11 353.59 L722.51 337.35 L702.88 328.7 L688.05 330.84 L669.95 341.35 L653.84 361.64 L641.21 388.51 L631.43 418.08 L624.84 446.23 L625.93 469.64 L633.99 485.07 L644.83 490.09 L662.79 485.03 L686.54 471.01 L711.63 451.96 L744.14 428.61 L774.39 405.03 L803.37 385.07 L826.71 371.05 L843.62 364.61 L851.66 365.74 L851.65 373.47 L838.96 384.89 L818.7 397.78 L792.49 408.15 L758.4 415.21 L725.1 416.95 L691.32 412.21 L660.41 401.75 L633.98 387.27 L618.85 372.16 L615.18 359.27 L617.35 350.61 L629.85 349.06 L646.04 354.46 L668.64 367.83 L692 387.28 L712.31 410.15 L730.83 433.73 L744.74 454.49 L752.12 469.27 L754.6 476.17 L748.1 473.57 L741 462.93 L729.94 446.58 L719.43 425.21 L711.14 403.09 L706.67 383.65 L706.67 369.81 L712.37 363.69 L720.35 365.57 L732.57 375.21 L743.74 390.08 L753.01 407.38 L760.98 423.01 L767.22 436.19 L769.93 442.88 L766.64 441.12 L766.07 431.83 L759 414.68 L748.73 392.39 L737.03 368.37 L726.7 346.56 L713.65 329.77 L702.14 321.52 L690.61 322.15 L681.19 333.11 L667.57 352.38 L657.9 378.77 L646.63 408.1 L638.69 437.3 L631.3 462.23 L630.45 480.65 L636.88 490.61 L648.84 491.52 L665.89 483.7 L692.8 469.34 L723.35 450.22 L755.65 429.28 L789.14 409.65 L819.71 393.5 L842.51 382.06 L855.61 375.93 L860.83 375.15 L853.79 377.5 L832.56 381.48 L803.16 385.73 L767.87 388.52 L727.35 388.31 L687.55 385.06 L654.66 379.61 L627.44 372.51 L613.52 366.27 L608.24 361.88 L615.2 361.56 L631.9 365.98 L654.47 375.49 L681.31 389.78 L706.1 406.97 L728.71 425.45 L742.83 442.22 L753.08 455.8 L755.42 463.71 L749.54 464.63 L739.01 459.18 L725.2 447.42 L711.86 431.36 L701.04 413.37 L696.66 396.5 L695.73 382.74 L701.28 374.58 L712.08 373.13 L724.21 378.1 L741.46 389.32 L756.05 402.98 L766.26 418.35 L774.38 432.34 L777.71 441.93 L774.73 444.79 L768.36 440.15 L757.52 427.71 L746.66 409.16 L735.52 386.52 L724.83 362.71 L717.29 342.64 L707.7 325.49 L701.81 316.28 L695.48 316.03 L688.44 325.22 L682.5 343.37 L672.87 367.88 L662.2 396.34 L649.39 425.29 L642.92 452.6 L635.59 472.79 L633.82 487.93 L638.03 494.86 L652.52 494 L674.19 485.75 L705.38 472.23 L739.74 454.86 L773.84 435.75 L809.23 417.67 L838.54 401.58 L856.56 389.15 L865.2 379.01 L861.19 371.99 L841.66 367.05 L810.41 363.73 L771.2 361.42 L730.21 359.93 L690.41 358.87 L652.62 357.91 L625.32 358.3 L612.97 360.66 L610.4 365.34 L618.35 372.64 L638.62 383.23 L663.23 395.94 L690.53 410.23 L717.01 424.83 L738.51 438.1 L749.52 448.03 L756.07 454.4" opacity="0.4"/><path d="M750.73 391.06 L740.24 370.38 L728.88 355.45 L721.08 350.15 L717.29 354.55 L717.26 367.06 L723.33 385.2 L730.86 404.78 L741.78 422.38 L754.91 434.69 L763.91 438.8 L770.71 434.76 L773.64 422.61 L771.34 404.38 L762.59 383.18 L746.94 362.75 L726.76 347.04 L703.14 339.06 L678.5 340.74 L655.57 352.44 L638.14 371.19 L621.27 396.74 L614.27 425.12 L613.13 451.46 L621.16 472.27 L633.86 483.92 L654.79 485.32 L678.77 475.89 L707.91 457.74 L738.74 433.6 L764.33 408.79 L791.86 384.07 L811.95 364.26 L827.64 352.79 L837.15 350.93 L838.43 358.24 L833.25 373.19 L818.59 392.27 L798.61 412.2 L776.18 429.39 L749.91 439.39 L722.28 442.37 L693.38 436.03 L672.59 422.27 L651.91 402.05 L635.8 379.2 L627.97 358.06 L624.98 341.87 L630.21 334.16 L643.15 336.72 L656.92 347.87 L677.38 368.75 L697.53 395.45 L715.05 424.12 L729.16 450.7 L741.88 471.76 L751.43 484.14 L751.9 485.39 L752.41 476.76 L748.08 459.03 L742.34 437.2 L731.66 410.91 L725.17 386.74 L719.4 367.67 L718.42 356.87 L719.42 355.16 L723.67 362.44 L729.68 376.78 L740.52 395.74 L747.89 414.64 L758.29 429.97 L764.36 439.98 L767.94 441.74 L768.99 434.67 L765.98 419.5 L758.23 398.44 L749.48 375.38 L736.11 353.59 L722.51 337.35 L702.88 328.7 L689.32 330.37 L669.95 341.35 L653.84 361.64 L641.21 388.51 L631.43 418.08 L624.84 446.23 L625.93 469.64 L633.99 485.07 L644.83 490.09 L662.79 485.03 L684.97 472.31 L711.63 451.96 L744.14 428.61 L774.39 405.03 L803.37 385.07 L826.71 371.05 L843.62 364.61 L851.66 365.74 L851.65 373.47 L838.96 384.89 L820.22 396.85 L792.49 408.15 L758.4 415.21 L725.1 416.95 L691.32 412.21 L660.41 401.75 L633.98 387.27 L618.85 372.16 L615.18 359.27 L617.35 350.61 L628.81 348.93 L646.04 354.46 L668.64 367.83 L692 387.28 L712.31 410.15 L730.83 433.73 L744.74 454.49 L752.12 469.27 L754.6 476.17 L748.1 473.57 L741.27 463.9 L729.94 446.58 L719.43 425.21 L711.14 403.09 L706.67 383.65 L706.67 369.81 L712.37 363.69 L720.35 365.57 L732.57 375.21 L743.74 390.08 L752.54 406.15 L760.98 423.01 L767.22 436.19 L769.93 442.88 L766.64 441.12 L766.07 431.83 L759 414.68 L748.73 392.39 L737.03 368.37 L726.7 346.56 L714.82 330.76 L702.14 321.52 L690.61 322.15 L681.19 333.11 L667.57 352.38 L657.9 378.77 L646.63 408.1 L638.69 437.3 L631.3 462.23 L630.45 480.65 L636.38 490.23 L648.84 491.52 L665.89 483.7 L692.8 469.34 L723.35 450.22 L755.65 429.28 L789.14 409.65 L819.71 393.5 L842.51 382.06 L855.61 375.93 L860.73 375.05 L853.79 377.5 L832.56 381.48 L803.16 385.73 L767.87 388.52 L727.35 388.31 L687.55 385.06 L654.66 379.61 L627.44 372.51 L613.52 366.27 L607.76 362.01 L615.2 361.56 L631.9 365.98 L654.47 375.49 L681.31 389.78 L706.1 406.97 L728.71 425.45 L742.83 442.22 L753.08 455.8 L755.42 463.71 L750.33 464.83 L739.01 459.18 L725.2 447.42 L711.86 431.36 L701.04 413.37 L696.66 396.5 L695.73 382.74 L701.28 374.58 L712.08 373.13 L724.21 378.1 L740.17 388.36 L756.05 402.98 L766.26 418.35 L774.38 432.34 L777.71 441.93 L774.73 444.79 L768.36 440.15 L757.52 427.71 L746.66 409.16 L735.52 386.52 L725.67 364.4 L717.29 342.64 L707.7 325.49 L701.81 316.28 L695.48 316.03 L688.44 325.22 L682.5 343.37 L672.87 367.88 L662.2 396.34 L649.39 425.29 L643.06 450.76 L635.59 472.79 L633.82 487.93 L638.03 494.86 L652.52 494 L674.19 485.75 L705.38 472.23 L739.74 454.86 L773.84 435.75 L809.23 417.67 L836.58 402.62 L856.56 389.15 L865.2 379.01 L861.19 371.99 L841.66 367.05 L810.41 363.73 L771.2 361.42 L730.21 359.93 L690.41 358.87 L652.62 357.91 L626.56 358.16 L612.97 360.66 L610.4 365.34 L618.35 372.64 L638.62 383.23 L663.23 395.94 L690.53 410.23 L717.01 424.83 L738.51 438.1 L749.52 448.03 L756.22 454.16 L752.09 455.46 L741.65 451.68 L726.75 443.18 L707.34 430.67 L692.17 416.7 L683.03 403.13 L681.81 391.97 L685.46 384.34 L698.33 382.13 L712.86 384.58 L734.05 392.41 L753.45 403.69 L770.69 416.88 L781.15 429.38 L786.51 439.36 L784.4 444.51 L776.08 443.53 L762.68 435.78 L748.07 421.9" opacity="0.46"/><path d="M655.57 352.44 L638.14 371.19 L621.27 396.74 L614.27 425.12 L613.13 451.46 L621.16 472.27 L633.86 483.92 L654.79 485.32 L678.77 475.89 L707.91 457.74 L736.6 435.46 L764.33 408.79 L791.86 384.07 L811.95 364.26 L827.64 352.79 L837.15 350.93 L838.43 358.24 L833.25 373.19 L818.59 392.27 L798.61 412.2 L777.75 428.32 L749.91 439.39 L722.28 442.37 L693.38 436.03 L672.59 422.27 L651.91 402.05 L635.8 379.2 L627.97 358.06 L624.98 341.87 L630.21 334.16 L641.92 336.17 L656.92 347.87 L677.38 368.75 L697.53 395.45 L715.05 424.12 L729.16 450.7 L741.88 471.76 L751.43 484.14 L751.9 485.39 L752.41 476.76 L748.45 460.53 L742.34 437.2 L731.66 410.91 L725.17 386.74 L719.4 367.67 L718.42 356.87 L719.42 355.16 L723.67 362.44 L729.68 376.78 L740.52 395.74 L746.72 413.26 L758.29 429.97 L764.36 439.98 L767.94 441.74 L768.99 434.67 L765.98 419.5 L758.23 398.44 L749.48 375.38 L736.11 353.59 L722.51 337.35 L704.36 329.01 L689.32 330.37 L669.95 341.35 L653.84 361.64 L641.21 388.51 L631.43 418.08 L624.84 446.23 L625.93 469.64 L633.99 485.07 L644.83 490.09 L660.98 485.67 L684.97 472.31 L711.63 451.96 L744.14 428.61 L774.39 405.03 L803.37 385.07 L826.71 371.05 L843.62 364.61 L851.66 365.74 L851.65 373.47 L840.03 383.98 L820.22 396.85 L792.49 408.15 L758.4 415.21 L725.1 416.95 L691.32 412.21 L660.41 401.75 L633.98 387.27 L618.85 372.16 L615.18 359.27 L616.32 350.93 L628.81 348.93 L646.04 354.46 L668.64 367.83 L692 387.28 L712.31 410.15 L730.83 433.73 L744.74 454.49 L752.12 469.27 L754.6 476.17 L748.96 474.09 L741.27 463.9 L729.94 446.58 L719.43 425.21 L711.14 403.09 L706.67 383.65 L706.67 369.81 L712.37 363.69 L720.35 365.57 L732.57 375.21 L742.56 388.84 L752.54 406.15 L760.98 423.01 L767.22 436.19 L769.93 442.88 L766.64 441.12 L766.07 431.83 L759 414.68 L748.73 392.39 L737.03 368.37 L727.47 347.98 L714.82 330.76 L702.14 321.52 L690.61 322.15 L681.19 333.11 L667.57 352.38 L657.9 378.77 L646.63 408.1 L638.69 437.3 L631.3 462.23 L630.27 479.6 L636.38 490.23 L648.84 491.52 L665.89 483.7 L692.8 469.34 L723.35 450.22 L755.65 429.28 L789.14 409.65 L819.71 393.5 L842.51 382.06 L854.45 376.11 L860.73 375.05 L853.79 377.5 L832.56 381.48 L803.16 385.73 L767.87 388.52 L727.35 388.31 L687.55 385.06 L654.66 379.61 L627.44 372.51 L613.92 366.63 L607.76 362.01 L615.2 361.56 L631.9 365.98 L654.47 375.49 L681.31 389.78 L706.1 406.97 L728.71 425.45 L742.83 442.22 L753.08 455.8 L755.16 463.32 L750.33 464.83 L739.01 459.18 L725.2 447.42 L711.86 431.36 L701.04 413.37 L696.66 396.5 L695.73 382.74 L701.28 374.58 L712.08 373.13 L723.61 377.59 L740.17 388.36 L756.05 402.98 L766.26 418.35 L774.38 432.34 L777.71 441.93 L774.73 444.79 L768.36 440.15 L757.52 427.71 L746.66 409.16 L736.67 388.27 L725.67 364.4 L717.29 342.64 L707.7 325.49 L701.81 316.28 L695.48 316.03 L688.44 325.22 L682.5 343.37 L672.87 367.88 L662.2 396.34 L650.27 423.26 L643.06 450.76 L635.59 472.79 L633.82 487.93 L638.03 494.86 L652.52 494 L674.19 485.75 L705.38 472.23 L739.74 454.86 L773.84 435.75 L807.07 418.94 L836.58 402.62 L856.56 389.15 L865.2 379.01 L861.19 371.99 L841.66 367.05 L810.41 363.73 L771.2 361.42 L730.21 359.93 L690.41 358.87 L654.61 357.88 L626.56 358.16 L612.97 360.66 L610.4 365.34 L618.35 372.64 L638.62 383.23 L663.23 395.94 L690.53 410.23 L717.01 424.83 L738.51 438.1 L748.99 447.44 L756.22 454.16 L752.09 455.46 L741.65 451.68 L726.75 443.18 L707.34 430.67 L692.17 416.7 L683.03 403.13 L681.81 391.97 L685.46 384.34 L697.17 382.1 L712.86 384.58 L734.05 392.41 L753.45 403.69 L770.69 416.88 L781.15 429.38 L786.51 439.36 L784.4 444.51 L776.08 443.53 L762.68 435.78 L749.46 423.13 L736.48 404.8 L722.2 382.85 L711.03 360.24 L703.02 339.6 L702.15 324.13 L701.93 315.07 L702.05 313.92 L701.51 321.23 L699.34 336.55 L692.18 356.29 L682.42 382.13 L669.26 409.98 L654.96 437.32 L641.87 461.7 L634.37 481.34 L632.81 494.5 L639.61 500.52 L657.44 499.65 L684.75 492.35" opacity="0.51"/><path d="M798.61 412.2 L777.75 428.32 L749.91 439.39 L722.28 442.37 L693.38 436.03 L672.59 422.27 L651.91 402.05 L635.8 379.2 L627.97 358.06 L624.98 341.87 L629.22 334.33 L641.92 336.17 L656.92 347.87 L677.38 368.75 L697.53 395.45 L715.05 424.12 L729.16 450.7 L741.88 471.76 L751.43 484.14 L751.9 485.39 L752.16 477.65 L748.45 460.53 L742.34 437.2 L731.66 410.91 L725.17 386.74 L719.4 367.67 L718.42 356.87 L719.42 355.16 L723.67 362.44 L729.68 376.78 L740.1 394.38 L746.72 413.26 L758.29 429.97 L764.36 439.98 L767.94 441.74 L768.99 434.67 L765.98 419.5 L758.23 398.44 L749.48 375.38 L736.11 353.59 L724.05 338.34 L704.36 329.01 L689.32 330.37 L669.95 341.35 L653.84 361.64 L641.21 388.51 L631.43 418.08 L624.84 446.23 L625.93 469.64 L633.99 485.07 L643.77 490.06 L660.98 485.67 L684.97 472.31 L711.63 451.96 L744.14 428.61 L774.39 405.03 L803.37 385.07 L826.71 371.05 L843.62 364.61 L851.66 365.74 L852.14 372.77 L840.03 383.98 L820.22 396.85 L792.49 408.15 L758.4 415.21 L725.1 416.95 L691.32 412.21 L660.41 401.75 L633.98 387.27 L618.85 372.16 L615.14 360.07 L616.32 350.93 L628.81 348.93 L646.04 354.46 L668.64 367.83 L692 387.28 L712.31 410.15 L730.83 433.73 L744.74 454.49 L752.12 469.27 L754.44 475.95 L748.96 474.09 L741.27 463.9 L729.94 446.58 L719.43 425.21 L711.14 403.09 L706.67 383.65 L706.67 369.81 L712.37 363.69 L720.35 365.57 L732.25 374.39 L742.56 388.84 L752.54 406.15 L760.98 423.01 L767.22 436.19 L769.93 442.88 L766.64 441.12 L766.07 431.83 L759 414.68 L748.73 392.39 L737.62 370.02 L727.47 347.98 L714.82 330.76 L702.14 321.52 L690.61 322.15 L681.19 333.11 L667.57 352.38 L657.9 378.77 L646.63 408.1 L638.69 437.3 L631.76 460.65 L630.27 479.6 L636.38 490.23 L648.84 491.52 L665.89 483.7 L692.8 469.34 L723.35 450.22 L755.65 429.28 L789.14 409.65 L819.71 393.5 L840.92 382.66 L854.45 376.11 L860.73 375.05 L853.79 377.5 L832.56 381.48 L803.16 385.73 L767.87 388.52 L727.35 388.31 L687.55 385.06 L654.66 379.61 L628.96 373.01 L613.92 366.63 L607.76 362.01 L615.2 361.56 L631.9 365.98 L654.47 375.49 L681.31 389.78 L706.1 406.97 L728.71 425.45 L742.83 442.22 L752.42 454.97 L755.16 463.32 L750.33 464.83 L739.01 459.18 L725.2 447.42 L711.86 431.36 L701.04 413.37 L696.66 396.5 L695.73 382.74 L701.28 374.58 L711.18 373 L723.61 377.59 L740.17 388.36 L756.05 402.98 L766.26 418.35 L774.38 432.34 L777.71 441.93 L774.73 444.79 L768.36 440.15 L757.52 427.71 L747.58 410.67 L736.67 388.27 L725.67 364.4 L717.29 342.64 L707.7 325.49 L701.81 316.28 L695.48 316.03 L688.44 325.22 L682.5 343.37 L672.87 367.88 L663.34 394.3 L650.27 423.26 L643.06 450.76 L635.59 472.79 L633.82 487.93 L638.03 494.86 L652.52 494 L674.19 485.75 L705.38 472.23 L739.74 454.86 L771.26 437.1 L807.07 418.94 L836.58 402.62 L856.56 389.15 L865.2 379.01 L861.19 371.99 L841.66 367.05 L810.41 363.73 L771.2 361.42 L730.21 359.93 L693.74 359.03 L654.61 357.88 L626.56 358.16 L612.97 360.66 L610.4 365.34 L618.35 372.64 L638.62 383.23 L663.23 395.94 L690.53 410.23 L717.01 424.83 L737.52 437.28 L748.99 447.44 L756.22 454.16 L752.09 455.46 L741.65 451.68 L726.75 443.18 L707.34 430.67 L692.17 416.7 L683.03 403.13 L681.81 391.97 L684.83 384.71 L697.17 382.1 L712.86 384.58 L734.05 392.41 L753.45 403.69 L770.69 416.88 L781.15 429.38 L786.51 439.36 L784.4 444.51 L776.08 443.53 L763.95 436.59 L749.46 423.13 L736.48 404.8 L722.2 382.85 L711.03 360.24 L703.02 339.6 L702.15 324.13 L701.93 315.07 L702.05 313.92 L701.51 321.23 L699.16 335.15 L692.18 356.29 L682.42 382.13 L669.26 409.98 L654.96 437.32 L641.87 461.7 L634.37 481.34 L632.81 494.5 L639.61 500.52 L657.44 499.65 L682.48 493.06 L716.16 480.61 L753.7 463.95 L791.21 444.62 L824.08 424.06 L847.14 403.49 L857.22 384.06 L855.31 367.13 L839.63 353.12 L810.65 342.31 L774.09 335.33 L733.81 332.08 L690.75 332.26 L654.1 336.46 L629.35 344.65 L615.42 355.79 L613.27 369.24 L624.63 384.54 L647.1 400.67 L673.41 415.92" opacity="0.58"/><path d="M751.9 485.39 L752.16 477.65 L748.45 460.53 L742.34 437.2 L731.66 410.91 L725.17 386.74 L719.4 367.67 L718.42 356.87 L719.42 355.16 L723.67 362.44 L728.81 375.52 L740.1 394.38 L746.72 413.26 L758.29 429.97 L764.36 439.98 L767.94 441.74 L768.99 434.67 L765.98 419.5 L758.23 398.44 L749.48 375.38 L737.42 355.05 L724.05 338.34 L704.36 329.01 L689.32 330.37 L669.95 341.35 L653.84 361.64 L641.21 388.51 L631.43 418.08 L624.84 446.23 L625.93 469.64 L633.29 484.3 L643.77 490.06 L660.98 485.67 L684.97 472.31 L711.63 451.96 L744.14 428.61 L774.39 405.03 L803.37 385.07 L826.71 371.05 L843.62 364.61 L851.14 365.39 L852.14 372.77 L840.03 383.98 L820.22 396.85 L792.49 408.15 L758.4 415.21 L725.1 416.95 L691.32 412.21 L660.41 401.75 L633.98 387.27 L619.32 373.17 L615.14 360.07 L616.32 350.93 L628.81 348.93 L646.04 354.46 L668.64 367.83 L692 387.28 L712.31 410.15 L730.83 433.73 L744.74 454.49 L751.6 468.43 L754.44 475.95 L748.96 474.09 L741.27 463.9 L729.94 446.58 L719.43 425.21 L711.14 403.09 L706.67 383.65 L706.67 369.81 L712.37 363.69 L719.5 365.14 L732.25 374.39 L742.56 388.84 L752.54 406.15 L760.98 423.01 L767.22 436.19 L769.93 442.88 L766.64 441.12 L766.07 431.83 L759 414.68 L749.83 394.13 L737.62 370.02 L727.47 347.98 L714.82 330.76 L702.14 321.52 L690.61 322.15 L681.19 333.11 L667.57 352.38 L657.9 378.77 L646.63 408.1 L639.12 435.3 L631.76 460.65 L630.27 479.6 L636.38 490.23 L648.84 491.52 L665.89 483.7 L692.8 469.34 L723.35 450.22 L755.65 429.28 L789.14 409.65 L817.42 394.46 L840.92 382.66 L854.45 376.11 L860.73 375.05 L853.79 377.5 L832.56 381.48 L803.16 385.73 L767.87 388.52 L727.35 388.31 L687.55 385.06 L657.18 380.12 L628.96 373.01 L613.92 366.63 L607.76 362.01 L615.2 361.56 L631.9 365.98 L654.47 375.49 L681.31 389.78 L706.1 406.97 L728.71 425.45 L742.29 441.15 L752.42 454.97 L755.16 463.32 L750.33 464.83 L739.01 459.18 L725.2 447.42 L711.86 431.36 L701.04 413.37 L696.66 396.5 L695.73 382.74 L700.66 374.95 L711.18 373 L723.61 377.59 L740.17 388.36 L756.05 402.98 L766.26 418.35 L774.38 432.34 L777.71 441.93 L774.73 444.79 L768.36 440.15 L758.08 428.79 L747.58 410.67 L736.67 388.27 L725.67 364.4 L717.29 342.64 L707.7 325.49 L701.81 316.28 L695.48 316.03 L688.44 325.22 L682.5 343.37 L673.65 365.97 L663.34 394.3 L650.27 423.26 L643.06 450.76 L635.59 472.79 L633.82 487.93 L638.03 494.86 L652.52 494 L674.19 485.75 L705.38 472.23 L737.06 456.16 L771.26 437.1 L807.07 418.94 L836.58 402.62 L856.56 389.15 L865.2 379.01 L861.19 371.99 L841.66 367.05 L810.41 363.73 L771.2 361.42 L733.57 360.09 L693.74 359.03 L654.61 357.88 L626.56 358.16 L612.97 360.66 L610.4 365.34 L618.35 372.64 L638.62 383.23 L663.23 395.94 L690.53 410.23 L715.17 423.8 L737.52 437.28 L748.99 447.44 L756.22 454.16 L752.09 455.46 L741.65 451.68 L726.75 443.18 L707.34 430.67 L692.17 416.7 L683.03 403.13 L681.51 392.63 L684.83 384.71 L697.17 382.1 L712.86 384.58 L734.05 392.41 L753.45 403.69 L770.69 416.88 L781.15 429.38 L786.51 439.36 L784.4 444.51 L776.81 443.82 L763.95 436.59 L749.46 423.13 L736.48 404.8 L722.2 382.85 L711.03 360.24 L703.02 339.6 L702.15 324.13 L701.93 315.07 L702.05 313.92 L701.86 320.47 L699.16 335.15 L692.18 356.29 L682.42 382.13 L669.26 409.98 L654.96 437.32 L641.87 461.7 L634.37 481.34 L632.81 494.5 L639.61 500.52 L655.74 499.92 L682.48 493.06 L716.16 480.61 L753.7 463.95 L791.21 444.62 L824.08 424.06 L847.14 403.49 L857.22 384.06 L855.31 367.13 L839.63 353.12 L813.4 343.02 L774.09 335.33 L733.81 332.08 L690.75 332.26 L654.1 336.46 L629.35 344.65 L615.42 355.79 L613.27 369.24 L624.63 384.54 L647.1 400.67 L671.61 414.91 L699.62 428.6 L723.17 439.25 L741.04 446.35 L752.2 449.6 L751.56 448.25 L744.72 443.39 L728.83 435.05 L707.05 424.37 L690.94 413.97 L675.06 404.41 L666.83 396.59 L669.15 392.3 L678.09 391.48 L695.33 394.65 L717.42 401.17 L744.04 410.54 L767.57 420.75 L787.4 430.66 L798.92 438.35" opacity="0.65"/></g>
  </g>
  <g fill="#111" fill-opacity=".46" font-family="SFMono-Regular, SF Mono, ui-monospace, monospace" font-size="9">
    <text x="896" y="407">M</text>
    <text x="719" y="227" text-anchor="middle">S</text>
    <text x="719" y="590" text-anchor="middle">NORMALIZED</text>
    <text x="41" y="772">DIFF  -21.4 DBFS</text>
    <text x="1397" y="772" text-anchor="end">CORR  0.30</text>
  </g>
</svg>
