<?xml version="1.0" encoding="UTF-8"?>
<svg xmlns="http://www.w3.org/2000/svg" width="1438" height="808" viewBox="0 0 1438 808" preserveAspectRatio="xMidYMid meet" data-state="playing">
  <title>Entrainment reference program playing with live PCM telemetry</title>
  <desc>Deterministic vector snapshot of the active 100 and 104 hertz stereo carriers, differential amplitude contour, filtered pink layer, and fading mid-side vectorscope history.</desc>
  <rect width="1438" height="808" fill="#f6f5ef"/>
  <g fill="none" stroke="#111" stroke-width="1" stroke-opacity=".075" vector-effect="non-scaling-stroke"><line x1="41" y1="127" x2="1397" y2="127"/><line x1="41" y1="220" x2="1397" y2="220"/><line x1="41" y1="313" x2="1397" y2="313"/><line x1="41" y1="406" x2="1397" y2="406"/><line x1="41" y1="499" x2="1397" y2="499"/><line x1="41" y1="592" x2="1397" y2="592"/><line x1="41" y1="685" x2="1397" y2="685"/></g>
  <g fill="#111" fill-opacity=".58" font-family="SFMono-Regular, SF Mono, ui-monospace, monospace" font-size="10">
    <text x="41" y="130">L  LIVE  -22.7 DBFS</text>
    <text x="1397" y="130" text-anchor="end">R  LIVE  -22.7 DBFS</text>
  </g>
  <g fill="none" stroke="#111" vector-effect="non-scaling-stroke">
    <circle cx="719" cy="404" r="170" stroke-opacity=".18"/>
    <path d="M549 404H889M719 234V574" stroke-opacity=".11"/>
    <path d="M41 404.03 L43 406.97 L45 409.92 L47 412.32 L49 415.13 L51 417.46 L53 419.16 L55 421.2 L57 422.55 L59 423.61 L61 424.26 L63 424.75 L65 424.78 L67 424.27 L69 423.5 L71 422.1 L73 420.59 L75 418.38 L77 416.19 L79 413.51 L81 410.51 L83 407.69 L85 404.78 L87 401.78 L89 398.63 L91 395.83 L93 393.12 L95 390.73 L97 388.37 L99 386.22 L101 384.64 L103 383.69 L105 382.69 L107 382.38 L109 382.35 L111 382.74 L113 383.61 L115 384.94 L117 386.66 L119 388.88 L121 391.1 L123 393.68 L125 396.52 L127 399.37 L129 402.68 L131 406.1 L133 409.32 L135 412.01 L137 414.79 L139 417.72 L141 419.76 L143 422.06 L145 423.67 L147 424.93 L149 426.31 L151 426.69 L153 426.83 L155 426.42 L157 425.56 L159 424.28 L161 422.39 L163 420.37 L165 418.09 L167 415.67 L169 413.06 L171 409.5 L173 406.15 L175 403.28 L177 399.95 L179 396.65 L181 393.51 L183 390.57 L185 388.31 L187 386.3 L189 384.56 L191 382.63 L193 381.67 L195 381.04 L197 380.73 L199 380.83 L201 381.63 L203 382.88 L205 384.73 L207 386.73 L209 389.34 L211 391.8 L213 394.73 L215 398.06 L217 400.96 L219 404.23 L221 407.59 L223 410.39 L225 413.91 L227 416.31 L229 419.07 L231 421.15 L233 423.29 L235 424.8 L237 425.73 L239 426.61 L241 426.96 L243 426.75 L245 425.82 L247 424.95 L249 423.55 L251 421.52 L253 419.39 L255 416.57 L257 414.23 L259 410.91 L261 407.28 L263 404.25 L265 401.14 L267 397.75 L269 394.75 L271 391.92 L273 389.14 L275 387.05 L277 385 L279 383.62 L281 382.18 L283 381.27 L285 380.97 L287 381.12 L289 381.77 L291 383.02 L293 384.47 L295 385.96 L297 388.49 L299 391.07 L301 393.85 L303 397.15 L305 400.06 L307 403.22 L309 406.2 L311 409.36 L313 412.18 L315 415.27 L317 418.07 L319 419.98 L321 421.92 L323 423.61 L325 425.09 L327 425.81 L329 426.15 L331 426.22 L333 425.74 L335 424.84 L337 423.19 L339 421.61 L341 419.76 L343 417.51 L345 414.81 L347 411.85 L349 408.92 L351 406.05 L353 402.88 L355 399.79 L357 396.46 L359 393.97 L361 391.66 L363 389.23 L365 387.28 L367 385.44 L369 383.92 L371 383.52 L373 383.22 L375 383.05 L377 383.23 L379 384.07 L381 385.37 L383 387.08 L385 389.12 L387 391.41 L389 393.7 L391 396.1 L393 398.73 L395 401.83 L397 404.76 L399 407.54 L401 410.02 L403 413 L405 415.71 L407 418.1 L409 419.83 L411 421.11 L413 422.45 L415 423.5 L417 423.5 L419 423.88 L421 423.54 L423 423.11 L425 421.84 L427 420.45 L429 418.67 L431 416.56 L433 414.56 L435 412.04 L437 409.74 L439 407.1 L441 404.13 L443 401.63 L445 398.88 L447 396.17 L449 394.03 L451 391.77 L453 390.05 L455 388.45 L457 387.36 L459 386.51 L461 386.01 L463 385.88 L465 386.01 L467 386.68 L469 387.78 L471 388.74 L473 390.52 L475 392.38 L477 394.38 L479 396.41 L481 398.66 L483 401.38 L485 403.72 L487 406.04 L489 408.39 L491 411.02 L493 412.99 L495 414.86 L497 416.54 L499 417.96 L501 419.09 L503 420.13" stroke-opacity=".76" stroke-width="1.15"/>
    <path d="M935 416.02 L937 414.1 L939 411.44 L941 408.05 L943 405.26 L945 402.09 L947 398.99 L949 396.26 L951 393.26 L953 390.59 L955 388.21 L957 386.64 L959 385.19 L961 384 L963 383.46 L965 383.12 L967 383.31 L969 383.71 L971 384.99 L973 386.41 L975 388.1 L977 390 L979 392.76 L981 395.71 L983 398.62 L985 401.98 L987 404.73 L989 408.23 L991 411.35 L993 414.2 L995 417.08 L997 419.66 L999 421.7 L1001 423.69 L1003 425.01 L1005 425.85 L1007 426.35 L1009 426.38 L1011 425.89 L1013 425.07 L1015 423.37 L1017 421.34 L1019 419.53 L1021 416.63 L1023 413.91 L1025 411.04 L1027 407.79 L1029 404.55 L1031 400.93 L1033 397.84 L1035 394.09 L1037 391.29 L1039 388.77 L1041 386.16 L1043 384.67 L1045 382.89 L1047 381.88 L1049 381.23 L1051 381.05 L1053 381.42 L1055 382.07 L1057 383.54 L1059 385.08 L1061 387.67 L1063 390.71 L1065 393.09 L1067 396.14 L1069 399.35 L1071 402.77 L1073 406.15 L1075 409.5 L1077 412.74 L1079 415.74 L1081 418.99 L1083 421.81 L1085 423.47 L1087 425.37 L1089 426.49 L1091 427.14 L1093 427.19 L1095 426.99 L1097 426.26 L1099 425.23 L1101 423.85 L1103 421.98 L1105 419.13 L1107 416.21 L1109 413.27 L1111 410.12 L1113 406.55 L1115 403.04 L1117 398.93 L1119 396.01 L1121 392.71 L1123 389.81 L1125 386.74 L1127 384.59 L1129 382.58 L1131 381.07 L1133 380.29 L1135 379.96 L1137 380.05 L1139 380.36 L1141 381.58 L1143 383.36 L1145 385.3 L1147 388 L1149 390.58 L1151 393.76 L1153 396.77 L1155 399.72 L1157 403.61 L1159 407.4 L1161 409.99 L1163 413.48 L1165 416.71 L1167 419.39 L1169 422.21 L1171 424.2 L1173 425.81 L1175 426.67 L1177 427.13 L1179 427.25 L1181 426.8 L1183 426.08 L1185 424.95 L1187 423.07 L1189 420.29 L1191 418.01 L1193 415.67 L1195 412.48 L1197 409.51 L1199 405.75 L1201 402.2 L1203 399.13 L1205 395.8 L1207 392.37 L1209 389.8 L1211 387.49 L1213 385.24 L1215 383.37 L1217 382.14 L1219 381.66 L1221 381.27 L1223 381.47 L1225 382.34 L1227 383.57 L1229 385.3 L1231 387.01 L1233 389.25 L1235 392.29 L1237 395.48 L1239 398.61 L1241 401.79 L1243 404.57 L1245 408.18 L1247 411.32 L1249 414.33 L1251 416.66 L1253 419.57 L1255 421.58 L1257 423.23 L1259 424.64 L1261 425.29 L1263 425.34 L1265 425.77 L1267 425.44 L1269 424.24 L1271 422.49 L1273 420.62 L1275 418.85 L1277 416.5 L1279 413.85 L1281 410.96 L1283 407.6 L1285 404.68 L1287 401.28 L1289 398.44 L1291 395.5 L1293 392.6 L1295 390.25 L1297 388.47 L1299 386.97 L1301 385.77 L1303 384.54 L1305 383.8 L1307 383.79 L1309 384.36 L1311 384.52 L1313 386.14 L1315 387.54 L1317 389.83 L1319 391.85 L1321 394.42 L1323 397.13 L1325 399.91 L1327 402.68 L1329 405.57 L1331 408.88 L1333 411.75 L1335 414.05 L1337 416.18 L1339 418.16 L1341 419.7 L1343 421.38 L1345 422.22 L1347 422.74 L1349 422.93 L1351 422.93 L1353 422.35 L1355 421.35 L1357 420.1 L1359 418.29 L1361 416.4 L1363 414.34 L1365 411.47 L1367 409.55 L1369 406.9 L1371 404.08 L1373 401.11 L1375 398.3 L1377 396.67 L1379 394.16 L1381 391.87 L1383 390 L1385 388.95 L1387 387.95 L1389 387.05 L1391 386.61 L1393 386.57 L1395 386.94 L1397 387.98" stroke-opacity=".76" stroke-width="1.15"/>
    <g stroke-linejoin="round" stroke-linecap="round" stroke-width="1.05"><path d="M721 404.19 L745.36 404.68 L769.43 405.03 L791.01 405.2 L810.57 405.28 L827.91 405.27 L841.5 405.07 L853.56 404.92 L857.86 404.25 L856.03 403.26 L853.13 402.49 L841.97 401.19 L828.98 400.05 L809.78 398.67 L789.02 397.5 L766.19 396.49 L741.92 395.7 L717.06 395.18 L689.25 394.69 L664.69 394.77 L642.69 395.12 L622.67 396.01 L603.18 397.03 L588.29 398.52 L578.24 400.4 L574.48 402.73 L575.54 405.28 L580.74 407.91 L591.06 410.61 L604.53 413.14 L623.96 415.66 L644.4 417.76 L666.16 419.36 L694.33 420.93 L719.14 421.53 L747.72 421.89 L770.84 421.14 L795.55 420.05 L814.91 418.03 L832.19 415.5 L843.7 412.54 L853.82 409.08 L858.23 405.15 L861.69 401.35 L856.7 397.11 L844.71 392.69 L830.92 388.75 L812.93 385.15 L791.85 382.09 L764.58 379.33 L739.2 377.62 L711.51 376.66 L686.76 376.93 L662.56 378.12 L639.59 380.22 L618.06 383.14 L598.44 386.77 L584.5 391.32 L576.55 396.63 L573.71 402.4 L574.73 407.92 L582.4 414.09 L591.45 419.78 L604.34 425.03 L624.91 430.08 L647.63 434.24 L672.23 437.39 L697.94 439.39 L722.85 440.04 L752.45 439.9 L775.49 438.26 L801.2 435.55 L819 431.13 L835.72 425.85 L846.13 419.41 L853.81 412.42 L859.17 405.16 L856.82 397.38 L852.07 389.86 L841.78 382.55 L826.06 376.03 L809.81 370.21 L785.76 364.99 L762.8 361.36 L734.49 358.77 L708.26 357.99 L681.81 358.76 L658.09 361.3 L633.89 365.15 L611.74 370.39 L596.11 376.6 L583.86 384.41 L577.18 393.18 L572.8 402.27 L574.77 411.75 L582.87 421.28 L591.19 429.95 L609.7 438.47 L632.35 445.98 L653.21 451.68 L675.41 455.66 L700.9 458.28 L727.37 459.06 L753.81 457.95 L777.84 454.79 L801.36 449.93 L819.91 443.13 L837.71 435.11 L849.39 425.62 L859.13 415.46 L859.93 405.08 L857.58 393.84 L851.17 382.81 L838.87 372.21 L821.14 362.4 L801.18 354.03 L779.56 347.38 L755.38 342.56 L728.23 339.66 L704.26 339.32 L677.89 340.57 L655.73 344.59 L634.77 350.67 L615.59 358.6 L598.34 368.09 L586.77 379.15 L580.32 391.31 L579.22 404.17 L583.47 417.28 L587.97 429.67 L601.08 441.05 L616.31 451.92 L635.65 461.34 L659.39 469.03 L681.8 474.21 L704.9 476.94 L732.71 477.58 L757.45 475.39 L780.29 470.59 L801.95 463.49 L817.46 454.72 L830.52 443.41 L843.89 430.99 L848.9 417.04 L851.17 402.62 L849.46 388.12 L839.75 373.62 L827.72 360.18 L813.23 348.25 L792.21 337.77 L771.91 330.15 L748.63 324.37 L723.46 321.22 L698.68 320.99 L675.63 323.78 L651.97 329.18 L633.28 337.55 L617.29 348.31 L602.21 360.89 L592.11 375.22 L588.29 389.76 L585.48 405.74 L590.77 422.22 L599.49 438.13 L610.53 452.85 L626.38 466.13 L642.01 477.03 L666 486.09 L687.86 491.97 L711.14 494.87 L733.99 494.84 L756.95 491.64 L781.01 485.58 L800.3 476.34 L815.26 464.31 L829.5 450.32 L838.23 434.39 L845.11 417.47 L843.86 399.52 L841.44 381.87 L833.61 365.82 L822.66 349.81 L809.68 335.69 L791.52 323.61 L770.39 314.18 L745.92 307.63 L724.48 304.8 L702.77 305.4 L678.83 309.15 L660.59 316.71 L643.87 326.36 L627.22 339.32 L614.15 354.7 L603.58 371.82 L599.03 390.43 L597.94 409.61 L602.06 428.86 L609.16 447.3 L619.31 464.3 L633.3 479.39 L650.84 491.37 L671.96 501.41 L690.44 507.69 L712.89 510.72 L735.82 510.08 L757.7 505.68 L774.26 497.27 L793.51 486.04 L806.48 471.46 L816.35 454.41 L823.82 437.02 L829.81 417.2 L829.69 396.54 L827.85 376.2 L820.05 356.45 L807.04 338.03 L794.98 322.2 L778.56 308.93 L760.16 298.88 L739.44 292.33 L721.35 289.88 L703.23 291.22 L681.25 296.02 L661.7 304.74 L644.58 317.03 L631.32 332.57 L622.8 350.88 L613.14 370.68 L610.34 392.12 L613 414.29 L616.24 434.43 L625.13 455.43 L634.97 474.51 L648.04 491.29 L666.17 505.42 L684.2 515.88 L702.57 522.43 L719.72 524.69 L738.63 522.96 L755.14 516.88 L772.58 508.04 L786.1 494.6 L796.9 477.88 L808.18 458.85 L812.69 437.4 L816.74 414.97 L816.3 391.91 L813.36 369.25 L805.3 347.48 L793.48 327.47 L780.67 311.23 L768.73 297.19 L754.6 286.76 L734.67 279.85 L718.61 277.71 L700.23 279.7 L683.87 286.18 L669.31 296.85 L654.07 311.04 L644.15 327.43" opacity="0.04"/><path d="M578.29 394.18 L573.58 399.39 L573.12 405.31 L579.35 411.55 L586.03 417.3 L597.79 422.81 L615.43 428.01 L637.51 432.59 L660.5 436.11 L687.02 438.73 L711.97 440.06 L738.47 440.23 L764.82 439.16 L789.58 436.8 L811.03 433.11 L828.86 428.23 L841.97 422.26 L851.64 415.55 L857.91 408.36 L858.16 400.69 L855.34 393.61 L845.75 385.95 L834.33 378.99 L817.78 372.61 L797.96 367.2 L772.58 362.68 L746.18 359.6 L719.35 358.07 L693.77 358.26 L666.94 359.87 L645.85 363.02 L622.4 367.57 L602.82 373.58 L586.73 380.75 L580.93 389.48 L572.8 398.2 L573.35 407.69 L578.4 417.2 L585.15 426.14 L600.92 434.93 L620.76 442.43 L641.47 448.96 L663.86 453.94 L690.29 457.47 L717.99 459.21 L743.24 458.78 L767.64 456.41 L789.87 452.09 L814.88 446.53 L830.39 438.72 L843.34 430.44 L857.18 420.87 L859.37 409.84 L858.19 398.54 L853.65 387.38 L845.56 376.72 L829.48 366.45 L809.46 357.32 L790.35 350.08 L765.35 344.27 L740.14 340.61 L717.1 339.24 L689.8 339.68 L666.26 342.68 L643.92 347.82 L623.09 354.91 L607.69 364.05 L590.77 374.2 L581.95 385.94 L578.96 398.61 L578.69 410.54 L584.6 423.51 L595.17 435.99 L609.66 447.51 L626.46 457.51 L648.97 466.05 L671.72 472.31 L695.17 476.17 L721.46 477.75 L745.92 476.6 L768.99 473.34 L790.08 467.24 L810.59 459.02 L826.63 448.63 L841.66 436.8 L848.95 423.3 L848.98 408.66 L850.24 394.25 L844.88 379.77 L834.1 365.83 L821.6 354.03 L803.2 342.71 L781.79 333.37 L759.35 326.51 L735.02 322.23 L710.29 320.77 L685 322.13 L661.34 326.41 L639.69 333.46 L624.29 343.44 L608.9 354.3 L596.25 367.82 L590.39 383.03 L585.81 398.82 L587.12 415.11 L594.31 431.34 L606.36 446.85 L619.18 460.72 L634.87 472.69 L655.63 482.62 L677.72 489.57 L699.66 493.91 L724.38 495.37 L747.71 493.52 L770.74 488.6 L791.8 480.64 L809.88 469.88 L824.78 456.69 L835.9 441.52 L844.01 424.98 L845.28 408.56 L845.66 390.9 L837.71 373.1 L828.45 356.51 L814.56 341.32 L798.31 328.27 L780.54 317.87 L756.6 309.96 L733.1 305.44 L710.24 304.44 L691.31 306.83 L669.01 312.4 L653.43 321.74 L632.39 333.22 L620.21 347.9 L608.48 364.36 L600.86 382.37 L597.83 401.35 L599.8 420.68 L604.23 439.42 L613.26 456.01 L625.78 472.18 L643.85 486.36 L661.99 497.51 L682.5 505.53 L704.52 510.1 L725.52 510.85 L748.85 508.14 L766.74 501.31 L786.04 491.36 L800.35 479.15 L811.46 463.22 L820.04 445.17 L826.34 425.67 L829.14 405.3 L827 384.61 L823.14 364.65 L812.61 345.59 L803.03 328.88 L785.98 314.17 L769.33 303.36 L748.92 294.93 L729.53 290.47 L710.47 290.01 L689.73 293.31 L670.08 300.49 L653.59 311.49 L637.19 325.55 L626.15 342.72 L617.19 362.01 L611.46 381.3 L610.89 403.16 L613.25 425.11 L620.12 446.55 L630.99 466.71 L642.46 484.54 L657.41 499.77 L675.27 511.83 L692.86 520.03 L711.52 524.24 L729.18 524.44 L746.58 520.48 L763.58 512.5 L780.24 500.82 L793.25 485.54 L804.02 467.37 L812.05 446.92 L817.02 424.87 L816.87 401.79 L813.98 378.73 L808.43 357.99 L799.39 337.09 L786.63 318.31 L775.28 302.83 L760.81 290.65 L742.83 282.14 L726.42 278.08 L708.57 278.26 L690.63 282.77 L676.38 291.81 L660.64 303.33 L649.13 319.54 L636.38 338.37 L631.68 360.14 L625.71 383.06 L626.18 407.17 L630.13 431.3 L638.01 454.69 L645.08 476.02 L652.96 494.74 L666.32 509.82 L682.48 522.57 L697.73 531.01 L713.02 534.99 L728.17 534.39 L745.95 529.58 L757.51 519.81 L771.98 506.43 L784.29 489.4 L794.13 469.31 L800.91 448.54 L802.73 424.31 L802.23 399.35 L799.34 374.52 L796.66 350.95 L786.21 328.58 L776.26 309.07 L763.71 292.72 L751.31 280.37 L736.86 272.18 L721.68 268.51 L708.08 269.41 L695.46 275.05 L683.21 285.15 L671.32 299.31 L662.57 317.31 L654.46 338.24 L648.99 361.56 L646.03 386.43 L645.5 411.98 L648.1 435.63 L651.14 459.84 L659.27 482.49 L670.11 502.55 L679.71 518.9 L690.99 531.35 L704.13 539.49 L716.52 542.82 L732.11 541.67 L743.05 535.27 L752.81 525.26 L761.96 510.38 L772.46 492.09 L777.34 470.27 L780.97 446.19 L782.56 420.6 L785.68 394.8 L781.38 368.69 L775.64 343.84 L769.42 321.19" opacity="0.08"/><path d="M799.28 352.17 L778.58 346.08 L753.8 341.32 L727.3 338.64 L702.09 338.37 L674.41 340.1 L651.41 344.42 L630.66 350.9 L612.06 359.26 L594.46 369.05 L583.82 379.59 L577.41 391.98 L576.71 405.07 L581.77 418.42 L587.06 431 L601.55 443.3 L617.31 454.12 L636.43 463.33 L661.8 470.94 L683.76 475.76 L706.2 478.14 L734.67 478.63 L760.06 476.25 L783.38 471.23 L804.35 463.76 L821.53 454.02 L835.35 442.4 L846.53 429.41 L851.95 415.22 L853.47 400.52 L850.64 386.78 L841.54 372.21 L829.11 358.66 L813.07 346.55 L792.35 336.14 L769.2 327.99 L746.12 322.59 L721.2 319.88 L694.87 319.94 L670.97 323.11 L649.72 328.58 L631.28 337.29 L614.76 348.33 L599.2 361.18 L589.8 375.89 L585.2 391.79 L583.98 408.17 L589 424.76 L600.15 440.98 L610.44 455.58 L626.42 467.99 L642.76 478.92 L667.38 487.94 L689.26 493.65 L712.66 496.34 L736.99 495.9 L761.12 492.29 L785.04 485.68 L803.5 475.81 L819.37 463.37 L832.57 449.99 L840.87 433.68 L847.55 416.44 L846.26 398.22 L843.33 380.31 L833.74 362.8 L822.08 346.76 L807.6 332.64 L790.83 320.96 L767.49 311.63 L744.52 305.8 L722.87 303.19 L701.15 304.08 L677.14 308.17 L658.75 316.08 L639.53 326.82 L623.12 340.36 L611.61 356.41 L600.79 373.95 L596.49 392.95 L596.66 411.14 L600.18 430.56 L608.5 449.29 L618.27 466.35 L633.61 481.6 L651.86 494.26 L674.68 504.12 L693.82 510.01 L715.65 512.44 L739.04 511.26 L759.56 506.74 L777.16 498.06 L795.82 486.35 L808.59 471.33 L818.2 453.84 L825.66 434.62 L831.78 414.43 L829.89 393.29 L828.44 372.82 L819.85 352.93 L807.48 335.78 L795.29 319.92 L777.99 306.61 L759.02 296.64 L738.92 290.37 L717.41 287.94 L700.38 290.01 L677.1 295.33 L659.34 304.91 L640.64 317.69 L629.73 332.77 L620.58 351.45 L611.39 371.72 L608.56 393.52 L611.55 416.04 L616.5 438.1 L624.32 459.04 L635.25 478.17 L648.37 494.76 L667.52 508.67 L684.51 518.16 L703.34 524.52 L721.37 526.58 L740.46 524.51 L756.63 517.99 L775.34 507.88 L788.05 493.66 L800.19 476.43 L810.61 456.71 L815.69 434.8 L818.03 413.44 L817.05 390 L813.98 367.06 L806.43 345.15 L793.6 324.93 L779.9 307.55 L767.44 293.8 L751.58 283.62 L732.78 277.39 L715.95 275.8 L698.22 278.07 L682.95 285.09 L667.18 296.09 L651.83 310.75 L640.41 328.9 L633.01 349.89 L626.63 372.65 L624.56 396.72 L626.37 421.22 L632.92 445.4 L639.8 466.47 L648.92 487.04 L660.64 504.83 L675.43 519.3 L691.42 529.79 L706.12 535.7 L720.6 536.98 L737.47 533.91 L753.63 526.3 L767.81 514.33 L779.57 499.73 L792.17 480.97 L799.98 459.21 L802.91 435.22 L804.43 410.22 L801.42 384.75 L800.98 360.44 L790.88 336.81 L781.38 315.78 L770.9 297.87 L758.05 284.31 L744.25 273.83 L726.67 267.52 L713.18 266.42 L700.92 270.21 L687.36 278.44 L676.7 291.27 L665.16 307.79 L655.87 327.75 L650.64 350.63 L647.48 373.57 L645.55 399.24 L644.44 424.95 L650.65 450.54 L653.99 474 L664.22 495.61 L676.84 514.14 L686.78 528.44 L698.97 538.57 L711.44 544.01 L723.16 544.71 L738.52 541.08 L749.1 532.21 L759.16 518.93 L768.04 501.64 L775.74 480.99 L782.08 457.68 L783.04 432.1 L785.54 405.9 L784.1 379.4 L778.47 355.24 L772.69 331.08 L765.26 309.42 L756.37 291.02 L745.44 276.43 L738.08 266.74 L724.14 261.14 L712.86 260.81 L703.9 265.69 L693.45 275.15 L685.64 288.09 L678.06 305.88 L670.67 326.97 L666.44 350.94 L665.43 376.94 L663.16 403.56 L666.39 430.65 L667.21 456.36 L674.73 480.85 L680.76 502.35 L690.51 519.64 L698.04 533.95 L707.39 543.89 L717.35 549.01 L727.39 549.1 L734.75 543.89 L742.89 533.96 L750.65 519.57 L759.1 501.35 L762.21 479.29 L764.83 456.55 L768.09 430.53 L767.1 403.28 L767.01 376.32 L762.73 350.02 L756.75 325.55 L750.99 303.97 L744.23 285.85 L736.37 271.8 L731.05 262.69 L723.8 258.39 L716.65 258.73 L709.86 264.14 L701.89 274.23 L697.03 289.12 L690.98 307.77 L685.04 329.67 L683.14 354.48 L681.94 380.95 L681.75 408.2 L681.25 433.22 L686.21 459.65 L689.68 483.86 L692.88 505.14 L700.08 523.27 L705.64 537 L711.55 546.1 L717.07 550.2 L724.57 549.44 L729.15 543.97" opacity="0.14"/><path d="M795.74 480.24 L812.33 469.85 L826.68 456.28 L838.59 440.89 L846.12 424.02 L846.24 405.97 L845.66 388.05 L837.34 370.16 L827.62 353.56 L814.29 338.57 L797.96 326.46 L779.23 316.07 L754.75 308.26 L731.72 304.02 L708.27 303.22 L687.07 306.14 L666.59 312.46 L649.65 322.21 L629.58 334.33 L616.7 349.42 L605.72 365.04 L598.74 383.42 L596.72 402.76 L598.4 422.26 L603.48 441.21 L613.81 459.15 L626.26 475.16 L644.84 489.14 L664.17 500.06 L684.72 507.65 L706.11 511.65 L727.86 512.19 L750.98 509.13 L768.09 501.86 L787.6 491.56 L803.16 477.95 L814.56 461.53 L822.88 443 L828.92 423.1 L830.9 402.36 L828.77 382.95 L824.16 362.76 L812.89 343.54 L802.97 326.78 L785.91 312.13 L767.84 300.72 L746.23 292.64 L727.57 288.79 L708.3 288.9 L687.13 292.78 L667.59 299.79 L651.01 311.18 L635.09 325.7 L624.84 343.34 L614.78 362.88 L610.31 384.19 L610.29 406.4 L613.15 428.58 L620.37 450.12 L630.8 470.16 L643.28 486.84 L658.02 501.98 L676.57 513.99 L694.33 521.99 L712.61 525.89 L732.55 525.73 L748.9 520.99 L767.6 512.51 L783.38 500.08 L794.93 484.01 L805.95 466.78 L813.51 445.89 L818.08 423.45 L818.21 400.11 L814.39 376.72 L809.23 354.36 L798.87 333.39 L785.3 314.72 L773.42 299.5 L758.83 287.74 L742.12 280.18 L724.89 276.32 L707.2 276.86 L689.08 281.73 L675.1 291.23 L657.47 304.12 L646.52 321.06 L633.95 340.5 L629.07 362.77 L624.44 386.26 L624.7 408.91 L629.66 433.4 L637.07 456.9 L644.46 478.35 L652.74 497.13 L668.18 513.27 L683.65 525.5 L698.89 533.39 L714.89 536.82 L730 535.53 L747.78 530.68 L759.21 520.45 L772.91 506.53 L786.39 489.17 L795.87 468.61 L802.85 445.73 L804.79 421.08 L802.83 395.65 L801.11 370.76 L796.93 346.98 L786.68 326.15 L776.13 306.57 L763.06 290.24 L750.12 278 L735.2 270 L720.89 266.76 L706.51 268.28 L693.15 274.59 L681.39 285.49 L669.01 300.34 L661.73 317.69 L653.12 339.02 L648.03 362.81 L645.8 388.14 L645.07 413.98 L648.36 439.71 L651.49 463.98 L659.42 486.51 L670.99 506.41 L681.53 522.5 L691.72 533.72 L704.99 541.63 L717.43 544.63 L733.13 543.11 L744.64 536.34 L755.7 525.01 L762.94 509.16 L775.13 490.35 L778.51 467.73 L782.09 443.09 L783.17 418.9 L786.53 392.8 L781.47 366.36 L776.57 341.43 L769.57 318.61 L760.11 298.63 L749.85 282.35 L740.75 270.51 L728.91 263.06 L714.88 260.28 L708.9 262.95 L697.06 269.89 L689.69 281.93 L680.16 297.87 L673.09 317.64 L666.8 340.35 L666.68 365.8 L662.77 391.97 L664.54 419.03 L666.85 445.45 L671.35 468.82 L676.8 491.73 L686.21 511.9 L693.61 527.99 L702.79 539.9 L712.8 547.14 L723.04 549.42 L732.74 546.6 L737.46 538.33 L748.96 526.22 L754.83 510.72 L760.61 490.53 L763.8 467.18 L764.73 441.55 L769.61 415.22 L765.41 387.64 L764.54 361.18 L759.75 335.91 L755.38 313.21 L747.26 293.35 L739.58 278.42 L732.58 266.76 L727.27 260.11 L718.76 258.11 L711.89 261.36 L705.42 269.58 L697.42 282.24 L693.69 299.53 L685.9 319.89 L683.37 343.64 L682.31 367.61 L681.74 394.55 L683.34 421.92 L684.23 448.45 L688.9 473.74 L691.66 496.27 L696.57 515.73 L704.17 531.54 L710.32 542.7 L715.09 548.85 L720.84 550.2 L725.6 546.61 L732.85 538.38 L738.03 525.31 L740.95 507.85 L743.59 486.86 L745.54 463.01 L747.48 437.23 L748.4 410.31 L747.68 383.11 L744.68 358.32 L742.53 333.42 L738.27 310.83 L734.76 291.64 L730.36 276.33 L728.73 265.82 L723.34 259.71 L718.44 258.68 L713.57 262.7 L708.67 271.59 L707.52 284.31 L704.27 301.72 L705.66 323.13 L703.72 346.89 L701.2 372.48 L702.32 399.49 L702.82 426.48 L703.02 452.57 L705.28 477.12 L708.61 499.18 L712.96 516.81 L712.11 531.32 L716.72 542 L716.89 547.36 L718.28 547.88 L719.91 543.43 L723.77 534.42 L726.08 520.73 L728.31 503.04 L727.21 481.59 L727.68 459.48 L728.1 433.89 L726.44 407.1 L725.19 380.31 L724.15 354.44 L722.07 330.23 L723.17 309.01 L719.57 290.57 L718.12 276.35 L718.02 266.74 L716.36 261.9 L717.32 261.76 L714.51 266.09 L715.98 275.69 L716.34 289.57 L717.6 307.49 L717.71 328.58 L719.51 352.43 L716.7 377.49 L718.92 403.99" opacity="0.23"/><path d="M617.42 441.13 L625.32 460.45 L636.8 479.45 L650.04 495.82 L668.47 509.39 L687.13 519.21 L705.61 524.94 L725.03 526.54 L743.12 523.76 L758.49 516.6 L776.12 506.88 L788.85 492.45 L801.19 475.07 L811.43 455.2 L816.3 433.2 L817.65 410.05 L816.86 386.71 L811.79 363.74 L804.51 342.16 L791.3 322.3 L779.53 306.59 L766.58 293.06 L749.88 283.1 L731.22 277.2 L714.53 275.94 L695.44 278.85 L680.29 286.47 L665.58 298.13 L650.45 313.27 L638.43 331.73 L632.88 351.54 L626.7 374.39 L625.12 398.52 L627.05 422.98 L633.86 447.08 L640.45 469.43 L650.08 489.65 L662.41 507 L677 520.88 L693.53 530.8 L707.3 535.85 L721.66 536.79 L739.04 533.45 L754.19 525.43 L768.52 513.2 L781.36 497.15 L793.74 477.99 L799.91 455.78 L803.22 431.68 L803.66 406.53 L800.62 382.91 L800.77 358.79 L790.02 335.26 L780.34 314.44 L770.23 296.84 L757.1 282.76 L742.52 272.85 L724.97 267.21 L711.4 266.78 L698.45 271.16 L686.39 279.3 L675.5 292.38 L665.29 309.28 L655.17 329.34 L649.81 352.33 L646.88 377.18 L644.46 402.82 L644.45 428.56 L650.81 453.94 L655.18 477.17 L665.16 496.97 L677.83 515.23 L687.46 529.18 L699.67 538.98 L712.38 544.1 L725.65 544.4 L739.69 539.94 L751.4 530.56 L760.41 516.59 L769.33 498.82 L776.34 479.35 L782 455.84 L783.18 430.22 L785.22 403.98 L783.92 377.56 L777.87 351.73 L770.81 327.78 L763.91 306.64 L754.87 288.79 L744.67 274.9 L737.69 266.37 L722.68 261 L712.17 261.11 L702.74 266.28 L693.04 276.14 L685.25 290.58 L676.95 308.78 L669.28 330.23 L664.98 354.46 L664.74 380.69 L662.93 405.46 L666.13 432.46 L667.05 458.06 L675.31 482.43 L680.93 503.65 L692.58 521.96 L699.23 535.53 L708.87 544.81 L719.22 549.26 L728.63 548.56 L735.38 543.22 L744.12 533.05 L751.28 518.3 L759.63 499.83 L762.78 477.59 L764.58 452.8 L768.36 426.69 L766.23 399.3 L767.33 372.61 L762.41 346.49 L756.78 324.03 L750.77 302.67 L743.45 284.78 L735.68 271.07 L730.1 262.28 L721.81 258.14 L716.36 259.39 L708.77 265.41 L701.47 276.23 L696.47 291.68 L690.08 309.26 L684.82 331.42 L683.5 356.42 L682.22 382.94 L682.37 410.21 L681.3 436.98 L686.6 463.19 L690.23 487.03 L693.18 507.79 L701.85 525.51 L705.6 537.64 L711.68 546.41 L717.68 550.2 L724.46 549 L729.48 542.59 L734.69 531.44 L738.86 515.81 L741.76 496.24 L745.25 473.64 L745.85 448.41 L748.99 423.98 L748.72 396.73 L747.62 369.77 L744.42 343.88 L738.79 319.91 L735.42 299.21 L731.68 282.19 L729.41 269.62 L724.94 261.5 L721.23 258.45 L715.61 259.89 L712.67 266.61 L708.78 277.94 L703.65 293.46 L705.17 313.5 L705.43 336.47 L701.98 361.27 L702.5 387.92 L701.89 414.9 L703.11 441.61 L704.14 465.18 L705.65 488.46 L710.79 509.15 L712.45 525.73 L714.93 538.14 L716.05 545.71 L718.86 548.54 L719.18 546.07 L721.78 538.94 L724.19 527.13 L726.46 512.37 L728.15 492.82 L727.56 470 L729.02 445.19 L728.25 418.78 L727.38 391.92 L724.07 365.27 L724.54 340.46 L721.87 317.56 L719.17 297.69 L719.7 282.92 L717.74 270.8 L717.39 263.51 L716.86 261.07 L716.06 263.55 L715.58 270.92 L717.05 283.1 L716.22 299.17 L717.74 319.11 L719.43 341.97 L718.19 364.77 L718.15 390.72 L719.94 417.28 L717.61 442.85 L720.1 467.58 L719.02 489.64 L722.19 509.19 L720.91 524.53 L722.84 536.05 L720.42 542.47 L718.58 544.18 L717.13 541.39 L718.13 534.13 L717.1 522.13 L712.21 505.6 L714.82 486.46 L712.84 463.94 L714.14 439.76 L712.03 413.97 L711.06 388.02 L710.36 364.44 L708.79 340.33 L712.47 319.07 L711.47 300.22 L711.8 285.14 L714.58 274.49 L718.13 268.42 L718.88 266.73 L721.37 270.01 L725.27 278.1 L727.09 289.31 L728.9 305.19 L733.62 324.84 L736.35 347 L736.09 370.78 L736.89 395.85 L737.79 421.2 L738.22 445.91 L734.82 468.71 L735.3 489.73 L734.01 506.41 L730.46 520.67 L725.05 530.68 L720.56 536.4 L721.82 538.21 L715.55 534.48 L709.31 526.22 L705 513.95 L704.13 498.27 L701.29 479.07 L699.03 458.94 L695.81 435.33 L692.52 410.61 L693.96 386.2 L693.92 362.21 L694.28 339.69 L699.16 319.92 L705.15 303.18 L708.12 289.57 L710.46 280.42" opacity="0.34"/><path d="M718.57 266.47 L705.77 268.42 L692.44 275.06 L680.32 286.25 L668.26 301.41 L659.53 320.37 L651.59 342.15 L648.35 366.4 L645.21 391.77 L645.11 417.69 L648.46 441.55 L651.53 465.71 L659.87 488.12 L672.02 507.87 L682.34 523.67 L693.47 535.3 L707.35 542.61 L718.98 544.83 L735.31 542.68 L746.36 535.19 L756.55 524.21 L763.41 508.02 L775.38 488.93 L779.13 466.14 L782.64 441.35 L784.03 415.22 L786.17 388.98 L780.22 362.56 L775.25 337.87 L768.31 315.43 L759.71 297.22 L749.54 281.22 L740.36 269.68 L727.82 262.48 L714.28 260.12 L706.59 263.38 L695.99 271.16 L688.55 283.83 L679.23 300.36 L672.68 320.67 L666.55 342 L666.39 367.6 L662.48 393.86 L665.04 421.02 L667.06 447.36 L672.17 472.37 L678.67 495.01 L688.33 514.73 L694.57 530.11 L703.78 541.38 L713.21 547.63 L723.86 549.6 L732.56 546.31 L738.24 537.79 L749.51 525.33 L756.61 508.29 L761.1 487.46 L764.04 463.71 L766 437.94 L769.27 411.3 L765.68 385.72 L764.35 359.26 L759 334.05 L754.67 311.52 L747.12 291.97 L738.19 276.25 L732.42 265.38 L726.47 259.36 L718.45 258.14 L711.57 262.11 L705.32 270.21 L697.56 283.23 L693.37 300.76 L685.82 321.4 L683.39 345.36 L682.2 371.37 L680.52 398.3 L683.22 425.79 L684.41 452.21 L689.46 477.26 L691.85 497.89 L697.31 517.19 L704.61 532.67 L709.99 543.42 L715.71 549.33 L721.53 550.2 L727.65 546.04 L733.51 536.96 L737.94 523.16 L740.5 505.1 L744.19 485.4 L745.18 461.24 L747.73 435.39 L747.95 408.31 L747.22 381.1 L744.15 354.54 L740.97 329.8 L738.39 307.8 L734.1 289.03 L730.23 274.37 L727.76 264.95 L723.25 259.3 L717.48 258.53 L713.63 263.03 L708.28 272.22 L706.82 286.37 L703.85 304.37 L704.98 326.23 L702.67 350.3 L701.38 376.27 L702.61 401.45 L702.84 428.42 L702.92 454.44 L706.02 478.96 L709.08 500.8 L712.56 519.26 L713.07 533.34 L717.71 543.37 L716.83 547.91 L718.06 547.69 L720.46 543.17 L723.97 533.77 L726.08 519.74 L728.3 501.76 L727.63 480.11 L728.08 456.03 L728.51 430.21 L727.01 403.34 L724.39 376.43 L724.67 350.88 L722.24 328.53 L722.8 307.42 L719.45 289.25 L718.1 275.33 L717.6 265.99 L716.18 261.34 L716.78 261.86 L715.32 267.06 L715.76 277.21 L716.06 291.7 L717.89 308.8 L717.97 330.12 L718.87 354.05 L716.18 379.25 L719.21 405.91 L718.05 431.96 L718.36 457.15 L719.72 480.58 L720.87 501.27 L722.11 518.57 L721.88 530.9 L720.02 539.73 L718.56 543.88 L717.58 543.23 L717.34 537.83 L717.52 527.86 L714.23 513.2 L713.68 495.09 L714.49 474.01 L714.47 450.44 L712.59 426.91 L711.16 400.93 L711.52 375.3 L710.22 350.5 L710.34 327.76 L712.52 307.92 L711.39 291.04 L712.97 278.41 L716.17 270.34 L717.84 266.72 L720.44 267.75 L723.7 273.47 L726.88 283.71 L725.98 297.63 L731.47 315.99 L735.18 337.18 L735.7 360.32 L736.12 384.96 L738.37 410.47 L737.18 435.36 L737.02 457.63 L735.57 479.65 L734.36 499.08 L729.17 514.74 L729.12 527.18 L722.27 534.53 L722.35 538.19 L718.12 536.69 L711.78 530.33 L707.11 519.79 L705.73 506.75 L701.98 488.99 L700.66 468.58 L696.99 445.63 L694.83 421.4 L693.34 396.64 L694.03 372.37 L694.1 349.09 L697.11 328.05 L702.28 309.88 L706.11 295.8 L708.03 283.98 L713.65 276.77 L719.32 273.97 L721.82 275.31 L729.58 281.74 L736.42 292.32 L738.97 306.28 L745.98 324.21 L747.19 344.24 L750.56 365.02 L753.07 388.6 L755.94 412.81 L753.61 436.15 L752.27 458.55 L747.07 478.65 L745.32 496.63 L738.35 510.8 L731.59 521.33 L727.56 528.14 L721.86 530.38 L714.91 528.48 L707.19 522.17 L701.15 511.94 L696.98 498.17 L691.73 480.97 L687.32 461.16 L684.13 439.47 L681.89 416.6 L681.73 393.49 L681.7 372.29 L683.03 350.65 L687.29 331.15 L692.3 314.21 L697.06 300.31 L703.57 290.18 L710.14 283.97 L718.4 282.11 L727.47 284.59 L735.08 291.04 L741.69 300.52 L747.6 314.08 L755.1 331.01 L755.54 349.68 L761.31 370.96 L762.05 392.85 L762.36 415.15 L762.63 437.16 L762.45 458.05 L756.38 476.43 L753.66 491.7 L744.59 504.51 L735.37 513.88 L726.75 519.54 L718.45 521.25 L710.89 518.98 L703.3 512.7 L694.31 502.45 L687.15 488.96 L680.29 472.5" opacity="0.48"/><path d="M764.2 448.99 L768.25 424.73 L765.42 397.29 L767.15 370.76 L761.61 344.73 L756.49 320.96 L750.16 300.06 L742.66 282.75 L734.62 269.66 L728.17 261.48 L721.53 258.26 L715.7 259.83 L708.16 266.19 L701.14 277.36 L695.57 293.02 L688.86 312.31 L684.65 334.95 L682.3 360.07 L682.93 386.91 L683.11 414.16 L681.87 438.88 L687.17 464.93 L690.72 488.54 L693.77 509.05 L702.12 526.42 L707.01 539.08 L712.43 547.07 L719.04 550.2 L724.96 548.18 L730.93 541.19 L734.97 530.3 L738.99 514.39 L742.3 494.65 L745.34 471.83 L746.33 446.54 L749.1 420.1 L748.43 392.83 L746.68 365.96 L743.94 340.42 L738.08 316.84 L734.92 297.98 L731.93 281.35 L729.68 269.12 L724.58 261.29 L720.45 258.55 L715.79 260.8 L710.95 267.98 L708.97 280.17 L704.47 296.31 L705.22 316.73 L704.64 338.19 L702.06 363.19 L702.14 389.82 L701.79 416.79 L703.43 443.45 L704.02 468.54 L706.79 491.55 L712.16 511.75 L712.09 527.53 L714.36 539.26 L715.99 545.87 L718.47 548.3 L719.27 545.53 L721.49 538.02 L724.72 526.01 L727.28 509.72 L727.47 489.55 L727.66 466.48 L728.35 441.37 L728.02 414.92 L727.15 390.01 L724.84 363.58 L724.03 338.79 L721.99 316.17 L718.98 296.54 L719.75 281.11 L716.76 269.53 L716.53 262.94 L716.78 261.31 L715.93 264.48 L715.2 271.75 L717.6 284.34 L716.39 300.62 L717.81 320.76 L719.67 343.79 L717.26 368.35 L718.46 394.53 L720.76 421.1 L716.82 446.3 L720.29 470.85 L719.7 491.09 L721.98 510.26 L720.99 525.34 L722.22 536.45 L719.92 542.54 L718.41 543.91 L717 540.44 L717.59 532.48 L716.81 519.91 L712.33 502.91 L715.07 484.88 L712.91 462.19 L713.54 437.85 L711.84 412.09 L711.06 386.2 L710.63 361 L709.27 337.21 L712.37 316.29 L711.32 297.94 L712.2 283.51 L715.32 274.12 L717.96 268.29 L719.6 267.05 L720.96 270.52 L725.8 279.04 L726.45 291.39 L730.2 308.01 L733.28 327.87 L736.39 350.38 L736.72 374.41 L736.43 397.6 L737.83 422.98 L737.66 447.51 L735.05 470.24 L734.86 490.97 L733.46 508.54 L730.7 522.33 L724.17 531.58 L721.12 536.82 L720.1 537.69 L714.7 533.82 L709.33 525.37 L705.49 512.88 L703.72 496.85 L701.58 477.56 L698.36 455.57 L695.55 431.83 L692.09 407.04 L693.04 382.63 L693.27 358.86 L694.51 338.26 L699.82 318.75 L705.23 302.2 L708.23 288.88 L711.06 279.52 L717.7 274.94 L719.45 274.25 L727.45 278.81 L732.5 287.37 L738.04 300.05 L741.97 314.95 L746.34 334.01 L749.56 355.4 L752.78 378.52 L755.47 402.52 L755.49 426.3 L752.06 448.96 L749.67 470.25 L744.14 488.9 L741.37 504.98 L735.54 516.43 L729.38 525.03 L724.54 529.6 L717.44 529.56 L710.91 525.24 L703.31 516.56 L697.87 504.22 L691.26 488.23 L688.89 469.78 L685.48 448.88 L682.47 428.03 L679.47 404.76 L683.11 382.2 L680.54 359.58 L683.48 339.1 L690.66 321.33 L695.38 306.06 L700.28 294.18 L706.88 286.28 L714.12 282.51 L722.57 282.99 L730.4 287.4 L738.98 295.97 L743.91 307.88 L752.08 323.57 L756.18 341.62 L759.83 361.85 L760.68 383.28 L763.34 405.73 L762.57 427.79 L762.63 447.73 L758.96 467.35 L754.48 484.76 L748.23 499.23 L739.48 510.15 L728.8 517.2 L722.74 520.9 L714.31 520.27 L705.14 515.5 L698.76 507.19 L688.86 495.72 L683.46 480.9 L678.21 463.36 L673.35 443.72 L671.79 423.01 L668.45 401.31 L671.87 380.44 L673.85 360.1 L678.25 341.48 L681.26 324.77 L687.43 312.05 L697.15 301.74 L704.1 294.58 L715.07 291.68 L726.57 292.74 L737.79 297.64 L746.28 305.93 L756.67 317.94 L764.72 332.73 L772.02 350.02 L776.88 367.65 L778.65 387.55 L777.49 407.81 L775.98 428.04 L773.75 447.49 L770.77 465.48 L761.02 480.63 L754.17 493.59 L745.05 503.25 L734.23 509.32 L721.36 511.38 L710.31 510.35 L700.87 505.82 L686.89 497.14 L679.75 486 L669.3 471.5 L661.33 454.83 L655.25 436.48 L655.26 417.6 L656.08 398.17 L657.17 380.19 L660.7 361.78 L664.79 344.74 L671.89 329.99 L680.94 317.92 L692.28 309.03 L705.11 303.54 L716.72 301.34 L728.4 302.71 L741.69 307.81 L751.57 315.29 L762.67 326.45 L771.73 340.16 L780.08 356.15 L786.99 373.78 L786.64 391.73 L787.39 410.44 L787.11 428.98 L782.06 446.25 L777.07 461.11" opacity="0.65"/></g>
  </g>
  <g fill="#111" fill-opacity=".46" font-family="SFMono-Regular, SF Mono, ui-monospace, monospace" font-size="9">
    <text x="896" y="407">M</text>
    <text x="719" y="227" text-anchor="middle">S</text>
    <text x="719" y="590" text-anchor="middle">NORMALIZED</text>
    <text x="41" y="772">DIFF  -16.8 DBFS</text>
    <text x="1397" y="772" text-anchor="end">CORR  -0.94</text>
  </g>
</svg>
