<svg width="460" height="433" viewBox="0 0 460 433" fill="none" xmlns="http://www.w3.org/2000/svg">
<path d="M194.197 193.877C209.704 192.637 245.877 192.596 262.157 193.8C275.994 194.822 289.404 196.56 300.243 198.613C305.66 199.639 310.473 200.751 314.395 201.903C318.238 203.033 321.482 204.273 323.576 205.646C328.66 208.976 328.9 216.365 323.706 219.768L323.705 219.767C323.098 220.164 322.359 220.614 321.45 220.901C320.497 221.203 319.545 221.273 318.526 221.193C317.159 221.087 315.421 220.677 313.062 220.029L310.488 219.305C306.397 218.136 301.734 216.984 299.426 216.54C300.365 220.353 302.077 227.448 303.889 235.054L307.791 251.394C316.765 288.866 325.03 322.614 336.915 370.371L336.916 370.372C338.689 377.497 340.302 384.291 341.474 389.501C342.059 392.104 342.538 394.326 342.871 396.003C343.037 396.839 343.172 397.559 343.266 398.131C343.346 398.619 343.437 399.225 343.437 399.698C343.436 404.573 340.261 408.82 335.798 412.161C331.263 415.556 324.901 418.418 317.306 420.5C294.603 426.722 260.071 429.664 226.312 429.493C192.578 429.322 159.125 426.04 138.626 419.57C131.779 417.409 126.134 414.67 122.136 411.495C118.18 408.354 115.437 404.442 115.437 399.959C115.437 399.441 115.577 398.679 115.684 398.114C115.818 397.399 116.013 396.453 116.258 395.313C116.748 393.031 117.454 389.908 118.322 386.177C120.059 378.71 122.452 368.763 125.084 358.136C136.55 311.831 145.448 275.517 151.409 250.714C154.39 238.311 156.635 228.796 158.1 222.354C158.609 220.115 159.019 218.255 159.335 216.78C157.234 217.258 154.519 217.912 151.581 218.659H151.58L139.676 221.687L137.892 222.141L136.679 220.755L134.429 218.184C133.704 217.356 133.003 216.512 132.501 215.67C131.974 214.786 131.518 213.66 131.615 212.319C131.709 211.017 132.295 209.966 132.887 209.155C133.471 208.355 134.255 207.533 135.099 206.689C137.984 203.804 141.797 202.52 150.279 200.513C163.028 197.497 178.927 195.099 194.197 193.877ZM232.206 387.959C216.522 387.882 201.001 388.027 195.662 388.43C179.467 389.65 163.606 391.952 151.839 394.51C145.938 395.793 141.169 397.119 137.927 398.368C136.971 398.737 136.198 399.08 135.594 399.389C136.12 399.679 136.778 400.003 137.582 400.35C140.533 401.623 144.909 403.007 150.377 404.309C171.131 409.25 200.2 411.745 229.442 411.735C258.684 411.725 287.832 409.21 308.744 404.254C313.754 403.067 318.162 401.634 321.253 400.295C321.979 399.98 322.607 399.679 323.138 399.402C322.594 399.131 321.959 398.839 321.239 398.533C318.221 397.251 314.076 395.883 309.733 394.837C300.128 392.522 286.321 390.425 271.629 389.054L268.68 388.789C263.388 388.335 247.891 388.036 232.206 387.959ZM261.648 211.826C249.824 210.913 232.829 210.679 217.079 211.004C201.747 211.32 187.899 212.162 181.181 213.354L180.553 213.471L178.49 213.871L177.147 219.472V219.473C176.16 223.585 172.711 237.973 169.481 251.448C166.249 264.933 157.639 300.17 150.348 329.755C146.704 344.541 143.434 358.021 141.103 367.828C139.937 372.731 139.007 376.708 138.383 379.468C139.776 379.14 141.417 378.728 143.158 378.261C163.917 372.688 194.842 369.744 231.388 369.759C266.422 369.774 297.686 372.868 316.446 378.301C317.9 378.722 319.278 379.095 320.479 379.402C320.438 379.219 320.397 379.029 320.353 378.834C319.634 375.665 318.568 371.097 317.233 365.466C314.564 354.207 310.826 338.725 306.666 321.741C300.423 296.258 293.565 268.181 289.181 250.173L285.735 235.99L280.388 213.884L278.801 213.562H278.8C277.118 213.222 269.449 212.429 261.648 211.826ZM88.0283 3.16113C95.5111 2.98284 107.066 2.96493 125.128 3.0459C147.155 3.1447 158.556 3.20688 164.777 3.50488C167.863 3.65268 169.896 3.86605 171.389 4.24023C173.086 4.66594 174.032 5.28919 174.903 5.93652L175.202 6.17871C175.91 6.79326 176.675 7.74224 177.355 8.63477C178.231 9.78291 179.278 11.2669 180.424 12.9697C182.719 16.381 185.476 20.7709 188.149 25.3271C190.789 29.8262 193.318 34.052 195.262 37.2334C196.235 38.8256 197.056 40.1454 197.668 41.1035C197.858 41.4016 198.026 41.6587 198.169 41.875C198.822 41.9549 199.815 42.0382 201.239 42.1133C204.273 42.2732 209.01 42.3974 215.998 42.4922C229.961 42.6816 252.752 42.749 288.509 42.749C338.197 42.749 362.051 42.6805 374.24 43.3789C380.282 43.7251 383.864 44.2712 386.393 45.3096C389.068 46.4084 390.476 48.0793 391.842 49.377L392.93 50.4014C394.031 51.4452 395.14 52.576 396.002 54.0459C397.192 56.0756 397.839 58.553 398.259 62.1855C399.087 69.3433 399.164 82.476 399.437 109.117L399.914 155.878L408.886 158.872C427.215 164.99 440.68 172.286 448.466 180.584C452.392 184.769 454.967 189.308 455.879 194.159C456.797 199.04 455.981 203.976 453.564 208.826C450.293 215.391 444.121 221.094 435.332 226.173C426.527 231.261 414.867 235.854 400.273 240.097C380.799 245.757 346.003 252.284 331.225 253.008C329.199 253.107 327.353 253.137 325.762 252.592C324.158 252.043 323.11 251.033 322.241 249.958L321.879 249.494C320.592 247.8 319.891 245.858 320.042 243.831C320.192 241.811 321.161 240.076 322.524 238.737C325.177 236.133 329.521 234.766 334.368 234.755L334.753 234.744C335.787 234.693 337.756 234.471 340.521 234.077C343.598 233.638 347.465 233.016 351.694 232.283C360.156 230.817 370.004 228.919 377.786 227.19C397.066 222.907 412.547 217.745 423.134 212.362C428.436 209.667 432.371 206.984 434.938 204.438C437.532 201.865 438.437 199.736 438.437 198.088C438.437 196.835 438.292 196.301 437.955 195.713C437.506 194.929 436.617 193.905 434.604 191.966C426.842 184.488 411.257 177.438 388.316 171.401C365.521 165.403 335.932 160.518 300.645 157.068C289.308 155.96 262.173 155.313 234.697 155.205C207.229 155.097 179.735 155.531 167.689 156.549C132.401 159.532 102.43 163.916 78.6768 169.466C54.8393 175.035 37.5657 181.713 27.4209 189.11C21.7799 193.224 20.3512 196.363 20.6475 198.758C20.978 201.428 23.5647 204.95 30.4004 209.368C37.8968 214.213 51.8037 219.422 69.3594 224.084C86.8185 228.72 107.588 232.739 128.594 235.32C131.965 235.734 135.021 236.74 136.981 238.771C139.202 241.073 139.47 244.081 138.372 246.971L138.371 246.972C137.912 248.18 137.338 249.629 136.331 250.774C135.166 252.1 133.674 252.777 131.91 253.045C130.287 253.292 128.299 253.213 125.898 252.978C123.454 252.738 120.325 252.305 116.327 251.733C80.0794 246.549 52.0352 239.56 32.9873 230.961C14.2082 222.483 2.92761 211.836 3 198.746C3.07184 185.656 11.7585 176.333 28.9531 167.725L30.1338 167.143C36.2228 164.186 44.985 160.559 50.3613 158.797L58.4365 156.149L58.458 90.2852C58.4685 58.2619 58.501 41.1442 58.75 31.5684C58.9956 22.1244 59.4382 19.5193 60.6104 16.9883C63.416 10.9281 68.4833 6.32149 74.6582 4.36719C76.8935 3.65979 80.7075 3.33557 88.0283 3.16113ZM123.12 20.7793C101.012 20.7949 89.802 20.8339 83.7256 21.3232C80.6666 21.5696 79.2606 21.9111 78.5127 22.2383C78.1079 22.4154 77.8604 22.5924 77.5059 23C77.4849 23.1915 77.4615 23.4344 77.4375 23.7334C77.3568 24.7413 77.2785 26.203 77.2031 28.0771C77.0528 31.8158 76.9213 37.0719 76.8105 43.3486C76.5892 55.8959 76.4518 72.4532 76.4092 88.9561C76.3665 105.459 76.4181 121.893 76.5752 134.194C76.6538 140.349 76.7584 145.449 76.8896 149.001C76.9208 149.843 76.9531 150.589 76.9863 151.235C78.1501 150.993 79.5352 150.69 80.96 150.359H80.9609C90.0194 148.259 122.164 143.092 137.084 141.327C171.494 137.256 218.239 135.508 257.536 136.815C306.005 138.429 340.871 142.463 382.437 151.293V110.842C382.437 85.9792 382.414 73.748 381.631 67.3408C381.238 64.1275 380.703 62.9427 380.302 62.4111C379.998 62.0092 379.626 61.7498 378.418 61.2236L377.848 60.9814C377.631 60.8909 376.691 60.6514 373.666 60.4512C370.79 60.2607 366.374 60.1175 359.544 60.0127C345.898 59.8033 322.821 59.749 283.604 59.749C238.982 59.749 215.947 59.7354 203.778 59.4863C197.729 59.3625 194.217 59.179 192.041 58.8838C190.939 58.7342 190.038 58.5395 189.262 58.2441C188.626 58.0023 188.148 57.7207 187.759 57.4463L187.396 57.1758C186.678 56.6109 185.887 55.5869 185.216 54.668C184.451 53.6212 183.538 52.2731 182.541 50.7295C180.543 47.6366 178.145 43.6626 175.819 39.543C171.185 31.3324 166.653 23.5706 165.71 22.1943H165.709L164.719 20.75L123.12 20.7793Z" fill="black" stroke="black" stroke-width="6"/>
</svg>
